<ttFont>
<head>
    <!-- Most of this table will be recalculated by the compiler -->
    <tableVersion value="1.0"/>
    <fontRevision value="3.0"/>
    <checkSumAdjustment value="0x9ccb1ff7"/>
    <magicNumber value="0x5f0f3cf5"/>
    <flags value="00000000 00000101"/>
    <unitsPerEm value="2000"/>
    <created value="Tue Dec  4 23:15:01 2018"/>
    <modified value="Wed Dec  5 20:30:21 2018"/>
    <xMin value="-326"/>
    <yMin value="-461"/>
    <xMax value="2614"/>
    <yMax value="2122"/>
    <macStyle value="00000000 00000000"/>
    <lowestRecPPEM value="6"/>
    <fontDirectionHint value="2"/>
    <indexToLocFormat value="0"/>
    <glyphDataFormat value="0"/>
  </head>
    <TTGlyph name=".notdef" xMin="100" yMin="-440" xMax="900" yMax="1616">
      <contour>
        <pt x="100" y="-440" on="1"/>
        <pt x="900" y="-440" on="1"/>
        <pt x="900" y="1616" on="1"/>
        <pt x="100" y="1616" on="1"/>
      </contour>
      <contour>
        <pt x="200" y="-340" on="1"/>
        <pt x="200" y="1516" on="1"/>
        <pt x="800" y="1516" on="1"/>
        <pt x="800" y="-340" on="1"/>
      </contour>
    </TTGlyph>
    <TTGlyph name="A" xMin="41" yMin="0" xMax="1341" yMax="1480">
      <contour>
        <pt x="41" y="0" on="1"/>
        <pt x="630" y="1480" on="1"/>
        <pt x="751" y="1480" on="1"/>
        <pt x="1341" y="0" on="1"/>
        <pt x="1243" y="0" on="1"/>
        <pt x="1039" y="516" on="1"/>
        <pt x="340" y="516" on="1"/>
        <pt x="136" y="0" on="1"/>
      </contour>
      <contour>
        <pt x="373" y="599" on="1"/>
        <pt x="1006" y="599" on="1"/>
        <pt x="689" y="1399" on="1"/>
      </contour>
    </TTGlyph>
    <TTGlyph name="AE" xMin="41" yMin="0" xMax="1794" yMax="1480">
      <contour>
        <pt x="41" y="0" on="1"/>
        <pt x="640" y="1480" on="1"/>
        <pt x="1784" y="1480" on="1"/>
        <pt x="1784" y="1397" on="1"/>
        <pt x="959" y="1397" on="1"/>
        <pt x="1005" y="802" on="1"/>
        <pt x="1686" y="802" on="1"/>
        <pt x="1686" y="719" on="1"/>
        <pt x="1011" y="719" on="1"/>
        <pt x="1060" y="83" on="1"/>
        <pt x="1794" y="83" on="1"/>
        <pt x="1794" y="0" on="1"/>
        <pt x="974" y="0" on="1"/>
        <pt x="935" y="516" on="1"/>
        <pt x="344" y="516" on="1"/>
        <pt x="136" y="0" on="1"/>
      </contour>
      <contour>
        <pt x="699" y="1397" on="1"/>
        <pt x="378" y="599" on="1"/>
        <pt x="929" y="599" on="1"/>
        <pt x="870" y="1397" on="1"/>
      </contour>
    </TTGlyph>
    <TTGlyph name="AEacute" xMin="41" yMin="0" xMax="1794" yMax="1889">
      <component glyphName="AE" x="0" y="0" flags="0x204"/>
      <component glyphName="acutecomb.case" x="358" y="0" flags="0x4"/>
    </TTGlyph>
    <TTGlyph name="Aacute" xMin="41" yMin="0" xMax="1341" yMax="1889">
      <component glyphName="A" x="0" y="0" flags="0x204"/>
      <component glyphName="acutecomb.case" x="138" y="0" flags="0x4"/>
    </TTGlyph>
    <TTGlyph name="Abreve" xMin="41" yMin="0" xMax="1341" yMax="1863">
      <component glyphName="A" x="0" y="0" flags="0x204"/>
      <component glyphName="uni0306.case" x="138" y="0" flags="0x4"/>
    </TTGlyph>
    <TTGlyph name="Acircumflex" xMin="41" yMin="0" xMax="1341" yMax="1889">
      <component glyphName="A" x="0" y="0" flags="0x204"/>
      <component glyphName="uni0302.case" x="138" y="0" flags="0x4"/>
    </TTGlyph>
    <TTGlyph name="Adieresis" xMin="41" yMin="0" xMax="1341" yMax="1823">
      <component glyphName="A" x="0" y="0" flags="0x204"/>
      <component glyphName="uni0308.case" x="138" y="0" flags="0x4"/>
    </TTGlyph>
    <TTGlyph name="Agrave" xMin="41" yMin="0" xMax="1341" yMax="1889">
      <component glyphName="A" x="0" y="0" flags="0x204"/>
      <component glyphName="gravecomb.case" x="138" y="0" flags="0x4"/>
    </TTGlyph>
    <TTGlyph name="Amacron" xMin="41" yMin="0" xMax="1341" yMax="1787">
      <component glyphName="A" x="0" y="0" flags="0x204"/>
      <component glyphName="uni0304.case" x="138" y="0" flags="0x4"/>
    </TTGlyph>
    <TTGlyph name="Aogonek" xMin="41" yMin="-404" xMax="1466" yMax="1480">
      <component glyphName="A" x="0" y="0" flags="0x204"/>
      <component glyphName="uni0328.case" x="793" y="0" flags="0x4"/>
    </TTGlyph>
    <TTGlyph name="Aring" xMin="41" yMin="0" xMax="1341" yMax="1812">
      <component glyphName="A" x="0" y="0" flags="0x204"/>
      <component glyphName="uni030A.case" x="141" y="-169" flags="0x4"/>
    </TTGlyph>
    <TTGlyph name="Aringacute" xMin="41" yMin="0" xMax="1341" yMax="1922">
      <component glyphName="A" x="0" y="0" flags="0x204"/>
      <component glyphName="uni030A0301.case" x="141" y="-169" flags="0x4"/>
    </TTGlyph>
    <TTGlyph name="Atilde" xMin="41" yMin="0" xMax="1341" yMax="1834">
      <component glyphName="A" x="0" y="0" flags="0x204"/>
      <component glyphName="tildecomb.case" x="138" y="0" flags="0x4"/>
    </TTGlyph>
    <TTGlyph name="B" xMin="198" yMin="-11" xMax="1204" yMax="1494">
      <contour>
        <pt x="565" y="-11" on="1"/>
        <pt x="471" y="-11" on="0"/>
        <pt x="302" y="0" on="0"/>
        <pt x="198" y="13" on="1"/>
        <pt x="198" y="1456" on="1"/>
        <pt x="294" y="1475" on="0"/>
        <pt x="482" y="1494" on="0"/>
        <pt x="602" y="1494" on="1"/>
        <pt x="897" y="1494" on="0"/>
        <pt x="1161" y="1301" on="0"/>
        <pt x="1161" y="1106" on="1"/>
        <pt x="1161" y="981" on="0"/>
        <pt x="1033" y="797" on="0"/>
        <pt x="884" y="764" on="1"/>
        <pt x="1052" y="735" on="0"/>
        <pt x="1204" y="540" on="0"/>
        <pt x="1204" y="399" on="1"/>
        <pt x="1204" y="265" on="0"/>
        <pt x="1077" y="83" on="0"/>
        <pt x="797" y="-11" on="0"/>
      </contour>
      <contour>
        <pt x="606" y="1413" on="1"/>
        <pt x="502" y="1413" on="0"/>
        <pt x="354" y="1400" on="0"/>
        <pt x="289" y="1388" on="1"/>
        <pt x="289" y="801" on="1"/>
        <pt x="652" y="801" on="1"/>
        <pt x="870" y="801" on="0"/>
        <pt x="1071" y="949" on="0"/>
        <pt x="1071" y="1105" on="1"/>
        <pt x="1071" y="1270" on="0"/>
        <pt x="856" y="1413" on="0"/>
      </contour>
      <contour>
        <pt x="575" y="70" on="1"/>
        <pt x="780" y="70" on="0"/>
        <pt x="1015" y="144" on="0"/>
        <pt x="1113" y="292" on="0"/>
        <pt x="1113" y="402" on="1"/>
        <pt x="1113" y="566" on="0"/>
        <pt x="898" y="720" on="0"/>
        <pt x="673" y="720" on="1"/>
        <pt x="289" y="720" on="1"/>
        <pt x="289" y="89" on="1"/>
        <pt x="356" y="79" on="0"/>
        <pt x="491" y="70" on="0"/>
      </contour>
    </TTGlyph>
    <TTGlyph name="C" xMin="125" yMin="-18" xMax="1153" yMax="1498">
      <contour>
        <pt x="789" y="-18" on="1"/>
        <pt x="593" y="-18" on="0"/>
        <pt x="294" y="126" on="0"/>
        <pt x="125" y="457" on="0"/>
        <pt x="125" y="738" on="1"/>
        <pt x="125" y="1007" on="0"/>
        <pt x="291" y="1342" on="0"/>
        <pt x="596" y="1498" on="0"/>
        <pt x="806" y="1498" on="1"/>
        <pt x="901" y="1498" on="0"/>
        <pt x="1068" y="1473" on="0"/>
        <pt x="1153" y="1449" on="1"/>
        <pt x="1153" y="1363" on="1"/>
        <pt x="984" y="1414" on="0"/>
        <pt x="805" y="1414" on="1"/>
        <pt x="621" y="1414" on="0"/>
        <pt x="360" y="1282" on="0"/>
        <pt x="221" y="987" on="0"/>
        <pt x="221" y="742" on="1"/>
        <pt x="221" y="486" on="0"/>
        <pt x="363" y="190" on="0"/>
        <pt x="620" y="66" on="0"/>
        <pt x="792" y="66" on="1"/>
        <pt x="884" y="66" on="0"/>
        <pt x="1052" y="94" on="0"/>
        <pt x="1153" y="129" on="1"/>
        <pt x="1153" y="43" on="1"/>
        <pt x="985" y="-18" on="0"/>
      </contour>
    </TTGlyph>
    <TTGlyph name="Cacute" xMin="125" yMin="-18" xMax="1153" yMax="1889">
      <component glyphName="C" x="0" y="0" flags="0x204"/>
      <component glyphName="acutecomb.case" x="171" y="0" flags="0x4"/>
    </TTGlyph>
    <TTGlyph name="Ccaron" xMin="125" yMin="-18" xMax="1153" yMax="1889">
      <component glyphName="C" x="0" y="0" flags="0x204"/>
      <component glyphName="uni030C.case" x="171" y="0" flags="0x4"/>
    </TTGlyph>
    <TTGlyph name="Ccedilla" xMin="125" yMin="-404" xMax="1153" yMax="1498">
      <component glyphName="C" x="0" y="0" flags="0x204"/>
      <component glyphName="uni0327.case" x="187" y="0" flags="0x4"/>
    </TTGlyph>
    <TTGlyph name="Ccircumflex" xMin="125" yMin="-18" xMax="1153" yMax="1889">
      <component glyphName="C" x="0" y="0" flags="0x204"/>
      <component glyphName="uni0302.case" x="171" y="0" flags="0x4"/>
    </TTGlyph>
    <TTGlyph name="Cdotaccent" xMin="125" yMin="-18" xMax="1153" yMax="1823">
      <component glyphName="C" x="0" y="0" flags="0x204"/>
      <component glyphName="uni0307.case" x="171" y="0" flags="0x4"/>
    </TTGlyph>
    <TTGlyph name="D" xMin="198" yMin="-10" xMax="1327" yMax="1494">
      <contour>
        <pt x="557" y="-10" on="1"/>
        <pt x="467" y="-10" on="0"/>
        <pt x="304" y="0" on="0"/>
        <pt x="198" y="13" on="1"/>
        <pt x="198" y="1456" on="1"/>
        <pt x="291" y="1475" on="0"/>
        <pt x="490" y="1494" on="0"/>
        <pt x="579" y="1494" on="1"/>
        <pt x="948" y="1494" on="0"/>
        <pt x="1327" y="1120" on="0"/>
        <pt x="1327" y="740" on="1"/>
        <pt x="1327" y="356" on="0"/>
        <pt x="938" y="-10" on="0"/>
      </contour>
      <contour>
        <pt x="567" y="73" on="1"/>
        <pt x="899" y="73" on="0"/>
        <pt x="1231" y="393" on="0"/>
        <pt x="1231" y="740" on="1"/>
        <pt x="1231" y="1086" on="0"/>
        <pt x="904" y="1410" on="0"/>
        <pt x="576" y="1410" on="1"/>
        <pt x="508" y="1410" on="0"/>
        <pt x="366" y="1398" on="0"/>
        <pt x="289" y="1386" on="1"/>
        <pt x="289" y="91" on="1"/>
        <pt x="349" y="83" on="0"/>
        <pt x="480" y="73" on="0"/>
      </contour>
    </TTGlyph>
    <TTGlyph name="Dcaron" xMin="198" yMin="-10" xMax="1327" yMax="1889">
      <component glyphName="D" x="0" y="0" flags="0x204"/>
      <component glyphName="uni030C.case" x="110" y="0" flags="0x4"/>
    </TTGlyph>
    <TTGlyph name="Dcroat" xMin="5" yMin="-10" xMax="1327" yMax="1494">
      <component glyphName="Eth" x="0" y="0" flags="0x204"/>
    </TTGlyph>
    <TTGlyph name="E" xMin="198" yMin="0" xMax="1123" yMax="1480">
      <contour>
        <pt x="198" y="0" on="1"/>
        <pt x="198" y="1480" on="1"/>
        <pt x="1113" y="1480" on="1"/>
        <pt x="1113" y="1397" on="1"/>
        <pt x="289" y="1397" on="1"/>
        <pt x="289" y="802" on="1"/>
        <pt x="1015" y="802" on="1"/>
        <pt x="1015" y="719" on="1"/>
        <pt x="289" y="719" on="1"/>
        <pt x="289" y="83" on="1"/>
        <pt x="1123" y="83" on="1"/>
        <pt x="1123" y="0" on="1"/>
      </contour>
    </TTGlyph>
    <TTGlyph name="Eacute" xMin="198" yMin="0" xMax="1123" yMax="1889">
      <component glyphName="E" x="0" y="0" flags="0x204"/>
      <component glyphName="acutecomb.case" x="124" y="0" flags="0x4"/>
    </TTGlyph>
    <TTGlyph name="Ebreve" xMin="198" yMin="0" xMax="1123" yMax="1863">
      <component glyphName="E" x="0" y="0" flags="0x204"/>
      <component glyphName="uni0306.case" x="124" y="0" flags="0x4"/>
    </TTGlyph>
    <TTGlyph name="Ecaron" xMin="198" yMin="0" xMax="1123" yMax="1889">
      <component glyphName="E" x="0" y="0" flags="0x204"/>
      <component glyphName="uni030C.case" x="124" y="0" flags="0x4"/>
    </TTGlyph>
    <TTGlyph name="Ecircumflex" xMin="198" yMin="0" xMax="1123" yMax="1889">
      <component glyphName="E" x="0" y="0" flags="0x204"/>
      <component glyphName="uni0302.case" x="124" y="0" flags="0x4"/>
    </TTGlyph>
    <TTGlyph name="Edieresis" xMin="198" yMin="0" xMax="1123" yMax="1823">
      <component glyphName="E" x="0" y="0" flags="0x204"/>
      <component glyphName="uni0308.case" x="124" y="0" flags="0x4"/>
    </TTGlyph>
    <TTGlyph name="Edotaccent" xMin="198" yMin="0" xMax="1123" yMax="1823">
      <component glyphName="E" x="0" y="0" flags="0x204"/>
      <component glyphName="uni0307.case" x="124" y="0" flags="0x4"/>
    </TTGlyph>
    <TTGlyph name="Egrave" xMin="198" yMin="0" xMax="1123" yMax="1889">
      <component glyphName="E" x="0" y="0" flags="0x204"/>
      <component glyphName="gravecomb.case" x="124" y="0" flags="0x4"/>
    </TTGlyph>
    <TTGlyph name="Emacron" xMin="198" yMin="0" xMax="1123" yMax="1787">
      <component glyphName="E" x="0" y="0" flags="0x204"/>
      <component glyphName="uni0304.case" x="124" y="0" flags="0x4"/>
    </TTGlyph>
    <TTGlyph name="Eng" xMin="198" yMin="-461" xMax="1330" yMax="1480">
      <contour>
        <pt x="1103" y="-461" on="1"/>
        <pt x="1041" y="-416" on="1"/>
        <pt x="1118" y="-317" on="0"/>
        <pt x="1212" y="-114" on="0"/>
        <pt x="1230" y="3" on="1"/>
        <pt x="286" y="1342" on="1"/>
        <pt x="286" y="0" on="1"/>
        <pt x="198" y="0" on="1"/>
        <pt x="198" y="1480" on="1"/>
        <pt x="295" y="1480" on="1"/>
        <pt x="1241" y="138" on="1"/>
        <pt x="1242" y="152" on="0"/>
        <pt x="1242" y="167" on="1"/>
        <pt x="1242" y="1480" on="1"/>
        <pt x="1330" y="1480" on="1"/>
        <pt x="1330" y="175" on="1"/>
        <pt x="1330" y="-17" on="0"/>
        <pt x="1221" y="-314" on="0"/>
      </contour>
    </TTGlyph>
    <TTGlyph name="Eogonek" xMin="198" yMin="-404" xMax="1248" yMax="1480">
      <component glyphName="E" x="0" y="0" flags="0x204"/>
      <component glyphName="uni0328.case" x="575" y="0" flags="0x4"/>
    </TTGlyph>
    <TTGlyph name="Eth" xMin="5" yMin="-10" xMax="1327" yMax="1494">
      <component glyphName="D" x="0" y="0" flags="0x204"/>
      <component glyphName="uni0335.D" x="-240" y="-319" flags="0x4"/>
    </TTGlyph>
    <TTGlyph name="Euro" xMin="79" yMin="-18" xMax="1298" yMax="1498">
      <contour>
        <pt x="79" y="541" on="1"/>
        <pt x="79" y="616" on="1"/>
        <pt x="275" y="616" on="1"/>
        <pt x="270" y="674" on="0"/>
        <pt x="270" y="738" on="1"/>
        <pt x="270" y="815" on="0"/>
        <pt x="278" y="884" on="1"/>
        <pt x="79" y="884" on="1"/>
        <pt x="79" y="959" on="1"/>
        <pt x="288" y="959" on="1"/>
        <pt x="337" y="1243" on="0"/>
        <pt x="685" y="1498" on="0"/>
        <pt x="951" y="1498" on="1"/>
        <pt x="1047" y="1498" on="0"/>
        <pt x="1214" y="1473" on="0"/>
        <pt x="1298" y="1449" on="1"/>
        <pt x="1298" y="1364" on="1"/>
        <pt x="1130" y="1415" on="0"/>
        <pt x="950" y="1415" on="1"/>
        <pt x="719" y="1415" on="0"/>
        <pt x="427" y="1205" on="0"/>
        <pt x="383" y="959" on="1"/>
        <pt x="1111" y="959" on="1"/>
        <pt x="1111" y="884" on="1"/>
        <pt x="373" y="884" on="1"/>
        <pt x="366" y="818" on="0"/>
        <pt x="366" y="742" on="1"/>
        <pt x="366" y="675" on="0"/>
        <pt x="371" y="616" on="1"/>
        <pt x="1111" y="616" on="1"/>
        <pt x="1111" y="541" on="1"/>
        <pt x="380" y="541" on="1"/>
        <pt x="407" y="363" on="0"/>
        <pt x="558" y="155" on="0"/>
        <pt x="790" y="65" on="0"/>
        <pt x="937" y="65" on="1"/>
        <pt x="1029" y="65" on="0"/>
        <pt x="1198" y="93" on="0"/>
        <pt x="1298" y="128" on="1"/>
        <pt x="1298" y="43" on="1"/>
        <pt x="1131" y="-18" on="0"/>
        <pt x="934" y="-18" on="1"/>
        <pt x="764" y="-18" on="0"/>
        <pt x="492" y="90" on="0"/>
        <pt x="313" y="335" on="0"/>
        <pt x="283" y="541" on="1"/>
      </contour>
    </TTGlyph>
    <TTGlyph name="Euro.tf" xMin="74" yMin="-18" xMax="1137" yMax="1498">
      <contour>
        <pt x="74" y="541" on="1"/>
        <pt x="74" y="616" on="1"/>
        <pt x="269" y="616" on="1"/>
        <pt x="265" y="674" on="0"/>
        <pt x="265" y="738" on="1"/>
        <pt x="265" y="815" on="0"/>
        <pt x="271" y="884" on="1"/>
        <pt x="74" y="884" on="1"/>
        <pt x="74" y="959" on="1"/>
        <pt x="279" y="959" on="1"/>
        <pt x="320" y="1240" on="0"/>
        <pt x="615" y="1498" on="0"/>
        <pt x="855" y="1498" on="1"/>
        <pt x="926" y="1498" on="0"/>
        <pt x="1068" y="1475" on="0"/>
        <pt x="1137" y="1449" on="1"/>
        <pt x="1137" y="1364" on="1"/>
        <pt x="1069" y="1391" on="0"/>
        <pt x="923" y="1415" on="0"/>
        <pt x="858" y="1415" on="1"/>
        <pt x="653" y="1415" on="0"/>
        <pt x="410" y="1202" on="0"/>
        <pt x="374" y="959" on="1"/>
        <pt x="966" y="959" on="1"/>
        <pt x="966" y="884" on="1"/>
        <pt x="366" y="884" on="1"/>
        <pt x="360" y="818" on="0"/>
        <pt x="360" y="742" on="1"/>
        <pt x="360" y="675" on="0"/>
        <pt x="364" y="616" on="1"/>
        <pt x="966" y="616" on="1"/>
        <pt x="966" y="541" on="1"/>
        <pt x="372" y="541" on="1"/>
        <pt x="404" y="289" on="0"/>
        <pt x="642" y="65" on="0"/>
        <pt x="847" y="65" on="1"/>
        <pt x="909" y="65" on="0"/>
        <pt x="1053" y="89" on="0"/>
        <pt x="1137" y="126" on="1"/>
        <pt x="1137" y="41" on="1"/>
        <pt x="1065" y="8" on="0"/>
        <pt x="913" y="-18" on="0"/>
        <pt x="842" y="-18" on="1"/>
        <pt x="601" y="-18" on="0"/>
        <pt x="311" y="248" on="0"/>
        <pt x="276" y="541" on="1"/>
      </contour>
    </TTGlyph>
    <TTGlyph name="F" xMin="198" yMin="0" xMax="1104" yMax="1480">
      <contour>
        <pt x="198" y="0" on="1"/>
        <pt x="198" y="1480" on="1"/>
        <pt x="1104" y="1480" on="1"/>
        <pt x="1104" y="1397" on="1"/>
        <pt x="289" y="1397" on="1"/>
        <pt x="289" y="799" on="1"/>
        <pt x="1006" y="799" on="1"/>
        <pt x="1006" y="716" on="1"/>
        <pt x="289" y="716" on="1"/>
        <pt x="289" y="0" on="1"/>
      </contour>
    </TTGlyph>
    <TTGlyph name="G" xMin="125" yMin="-11" xMax="1229" yMax="1498">
      <contour>
        <pt x="884" y="-11" on="1"/>
        <pt x="512" y="-11" on="0"/>
        <pt x="125" y="353" on="0"/>
        <pt x="125" y="738" on="1"/>
        <pt x="125" y="1008" on="0"/>
        <pt x="308" y="1343" on="0"/>
        <pt x="630" y="1498" on="0"/>
        <pt x="837" y="1498" on="1"/>
        <pt x="928" y="1498" on="0"/>
        <pt x="1101" y="1473" on="0"/>
        <pt x="1194" y="1449" on="1"/>
        <pt x="1194" y="1363" on="1"/>
        <pt x="1088" y="1392" on="0"/>
        <pt x="919" y="1414" on="0"/>
        <pt x="841" y="1414" on="1"/>
        <pt x="659" y="1414" on="0"/>
        <pt x="379" y="1282" on="0"/>
        <pt x="221" y="986" on="0"/>
        <pt x="221" y="740" on="1"/>
        <pt x="221" y="392" on="0"/>
        <pt x="556" y="73" on="0"/>
        <pt x="882" y="73" on="1"/>
        <pt x="958" y="73" on="0"/>
        <pt x="1084" y="83" on="0"/>
        <pt x="1140" y="93" on="1"/>
        <pt x="1140" y="720" on="1"/>
        <pt x="1229" y="720" on="1"/>
        <pt x="1229" y="18" on="1"/>
        <pt x="1127" y="2" on="0"/>
        <pt x="970" y="-11" on="0"/>
      </contour>
    </TTGlyph>
    <TTGlyph name="Gbreve" xMin="125" yMin="-11" xMax="1229" yMax="1863">
      <component glyphName="G" x="0" y="0" flags="0x204"/>
      <component glyphName="uni0306.case" x="210" y="0" flags="0x4"/>
    </TTGlyph>
    <TTGlyph name="Gcaron" xMin="125" yMin="-11" xMax="1229" yMax="1889">
      <component glyphName="G" x="0" y="0" flags="0x204"/>
      <component glyphName="uni030C.case" x="210" y="0" flags="0x4"/>
    </TTGlyph>
    <TTGlyph name="Gcircumflex" xMin="125" yMin="-11" xMax="1229" yMax="1889">
      <component glyphName="G" x="0" y="0" flags="0x204"/>
      <component glyphName="uni0302.case" x="210" y="0" flags="0x4"/>
    </TTGlyph>
    <TTGlyph name="Gdotaccent" xMin="125" yMin="-11" xMax="1229" yMax="1823">
      <component glyphName="G" x="0" y="0" flags="0x204"/>
      <component glyphName="uni0307.case" x="210" y="0" flags="0x4"/>
    </TTGlyph>
    <TTGlyph name="H" xMin="198" yMin="0" xMax="1301" yMax="1480">
      <contour>
        <pt x="198" y="0" on="1"/>
        <pt x="198" y="1480" on="1"/>
        <pt x="289" y="1480" on="1"/>
        <pt x="289" y="803" on="1"/>
        <pt x="1210" y="803" on="1"/>
        <pt x="1210" y="1480" on="1"/>
        <pt x="1301" y="1480" on="1"/>
        <pt x="1301" y="0" on="1"/>
        <pt x="1210" y="0" on="1"/>
        <pt x="1210" y="718" on="1"/>
        <pt x="289" y="718" on="1"/>
        <pt x="289" y="0" on="1"/>
      </contour>
    </TTGlyph>
    <TTGlyph name="Hbar" xMin="5" yMin="0" xMax="1494" yMax="1480">
      <component glyphName="H" x="0" y="0" flags="0x204"/>
      <component glyphName="uni0336.case" x="-2" y="59" flags="0x4"/>
    </TTGlyph>
    <TTGlyph name="Hcircumflex" xMin="198" yMin="0" xMax="1301" yMax="1889">
      <component glyphName="H" x="0" y="0" flags="0x204"/>
      <component glyphName="uni0302.case" x="197" y="0" flags="0x4"/>
    </TTGlyph>
    <TTGlyph name="I" xMin="198" yMin="0" xMax="289" yMax="1480">
      <contour>
        <pt x="198" y="0" on="1"/>
        <pt x="198" y="1480" on="1"/>
        <pt x="289" y="1480" on="1"/>
        <pt x="289" y="0" on="1"/>
      </contour>
    </TTGlyph>
    <TTGlyph name="I_J.loclNLD" xMin="198" yMin="-341" xMax="776" yMax="1480">
      <component glyphName="I" x="0" y="0" flags="0x4"/>
      <component glyphName="J" x="487" y="0" flags="0x4"/>
    </TTGlyph>
    <TTGlyph name="Iacute" xMin="198" yMin="0" xMax="504" yMax="1889">
      <component glyphName="I" x="0" y="0" flags="0x204"/>
      <component glyphName="acutecomb.case" x="-309" y="0" flags="0x4"/>
    </TTGlyph>
    <TTGlyph name="Iacute_J.loclNLD" xMin="198" yMin="-341" xMax="991" yMax="1889">
      <component glyphName="I" x="0" y="0" flags="0x4"/>
      <component glyphName="acutecomb.case" x="-309" y="0" flags="0x4"/>
      <component glyphName="J" x="487" y="0" flags="0x4"/>
      <component glyphName="acutecomb.case" x="178" y="0" flags="0x4"/>
    </TTGlyph>
    <TTGlyph name="Ibreve" xMin="-67" yMin="0" xMax="555" yMax="1863">
      <component glyphName="I" x="0" y="0" flags="0x204"/>
      <component glyphName="uni0306.case" x="-309" y="0" flags="0x4"/>
    </TTGlyph>
    <TTGlyph name="Icircumflex" xMin="-67" yMin="0" xMax="555" yMax="1889">
      <component glyphName="I" x="0" y="0" flags="0x204"/>
      <component glyphName="uni0302.case" x="-309" y="0" flags="0x4"/>
    </TTGlyph>
    <TTGlyph name="Idieresis" xMin="-70" yMin="0" xMax="558" yMax="1823">
      <component glyphName="I" x="0" y="0" flags="0x204"/>
      <component glyphName="uni0308.case" x="-309" y="0" flags="0x4"/>
    </TTGlyph>
    <TTGlyph name="Idotaccent" xMin="170" yMin="0" xMax="318" yMax="1823">
      <component glyphName="I" x="0" y="0" flags="0x204"/>
      <component glyphName="uni0307.case" x="-309" y="0" flags="0x4"/>
    </TTGlyph>
    <TTGlyph name="Igrave" xMin="-16" yMin="0" xMax="289" yMax="1889">
      <component glyphName="I" x="0" y="0" flags="0x204"/>
      <component glyphName="gravecomb.case" x="-309" y="0" flags="0x4"/>
    </TTGlyph>
    <TTGlyph name="Imacron" xMin="-50" yMin="0" xMax="538" yMax="1787">
      <component glyphName="I" x="0" y="0" flags="0x204"/>
      <component glyphName="uni0304.case" x="-309" y="0" flags="0x4"/>
    </TTGlyph>
    <TTGlyph name="Iogonek" xMin="14" yMin="-404" xMax="414" yMax="1480">
      <component glyphName="I" x="0" y="0" flags="0x204"/>
      <component glyphName="uni0328.case" x="-259" y="0" flags="0x4"/>
    </TTGlyph>
    <TTGlyph name="Itilde" xMin="-80" yMin="0" xMax="568" yMax="1834">
      <component glyphName="I" x="0" y="0" flags="0x204"/>
      <component glyphName="tildecomb.case" x="-309" y="0" flags="0x4"/>
    </TTGlyph>
    <TTGlyph name="J" xMin="0" yMin="-341" xMax="289" yMax="1480">
      <contour>
        <pt x="63" y="-341" on="1"/>
        <pt x="0" y="-296" on="1"/>
        <pt x="103" y="-163" on="0"/>
        <pt x="198" y="112" on="0"/>
        <pt x="198" y="287" on="1"/>
        <pt x="198" y="1480" on="1"/>
        <pt x="289" y="1480" on="1"/>
        <pt x="289" y="256" on="1"/>
        <pt x="281" y="83" on="0"/>
        <pt x="181" y="-194" on="0"/>
      </contour>
    </TTGlyph>
    <TTGlyph name="Jcircumflex" xMin="-67" yMin="-341" xMax="555" yMax="1889">
      <component glyphName="J" x="0" y="0" flags="0x204"/>
      <component glyphName="uni0302.case" x="-309" y="0" flags="0x4"/>
    </TTGlyph>
    <TTGlyph name="K" xMin="198" yMin="0" xMax="1267" yMax="1480">
      <contour>
        <pt x="198" y="0" on="1"/>
        <pt x="198" y="1480" on="1"/>
        <pt x="289" y="1480" on="1"/>
        <pt x="289" y="803" on="1"/>
        <pt x="568" y="803" on="1"/>
        <pt x="1117" y="1480" on="1"/>
        <pt x="1225" y="1480" on="1"/>
        <pt x="640" y="762" on="1"/>
        <pt x="1267" y="0" on="1"/>
        <pt x="1156" y="0" on="1"/>
        <pt x="564" y="718" on="1"/>
        <pt x="289" y="718" on="1"/>
        <pt x="289" y="0" on="1"/>
      </contour>
    </TTGlyph>
    <TTGlyph name="L" xMin="198" yMin="0" xMax="1090" yMax="1480">
      <contour>
        <pt x="198" y="0" on="1"/>
        <pt x="198" y="1480" on="1"/>
        <pt x="289" y="1480" on="1"/>
        <pt x="289" y="84" on="1"/>
        <pt x="1090" y="84" on="1"/>
        <pt x="1090" y="0" on="1"/>
      </contour>
    </TTGlyph>
    <TTGlyph name="Lacute" xMin="198" yMin="0" xMax="1090" yMax="1889">
      <component glyphName="L" x="0" y="0" flags="0x204"/>
      <component glyphName="acutecomb.case" x="-309" y="0" flags="0x4"/>
    </TTGlyph>
    <TTGlyph name="Lcaron" xMin="198" yMin="0" xMax="1090" yMax="1616">
      <component glyphName="L" x="0" y="0" flags="0x204"/>
      <component glyphName="uni030C.alt.case" x="166" y="0" flags="0x4"/>
    </TTGlyph>
    <TTGlyph name="Ldot" xMin="198" yMin="0" xMax="1090" yMax="1480">
      <component glyphName="L" x="0" y="0" flags="0x204"/>
      <component glyphName="periodcentered.CAT" x="563" y="212" flags="0x4"/>
    </TTGlyph>
    <TTGlyph name="Lslash" xMin="14" yMin="0" xMax="1091" yMax="1480">
      <component glyphName="L" x="1" y="0" flags="0x4"/>
      <component glyphName="uni0337.case" x="-156" y="5" flags="0x4"/>
    </TTGlyph>
    <TTGlyph name="M" xMin="202" yMin="0" xMax="1595" yMax="1480">
      <contour>
        <pt x="202" y="0" on="1"/>
        <pt x="202" y="1480" on="1"/>
        <pt x="306" y="1480" on="1"/>
        <pt x="901" y="288" on="1"/>
        <pt x="1492" y="1480" on="1"/>
        <pt x="1595" y="1480" on="1"/>
        <pt x="1595" y="0" on="1"/>
        <pt x="1508" y="0" on="1"/>
        <pt x="1508" y="1324" on="1"/>
        <pt x="946" y="201" on="1"/>
        <pt x="852" y="201" on="1"/>
        <pt x="290" y="1318" on="1"/>
        <pt x="290" y="0" on="1"/>
      </contour>
    </TTGlyph>
    <TTGlyph name="N" xMin="198" yMin="0" xMax="1330" yMax="1480">
      <contour>
        <pt x="198" y="0" on="1"/>
        <pt x="198" y="1480" on="1"/>
        <pt x="295" y="1480" on="1"/>
        <pt x="1242" y="136" on="1"/>
        <pt x="1242" y="1480" on="1"/>
        <pt x="1330" y="1480" on="1"/>
        <pt x="1330" y="0" on="1"/>
        <pt x="1232" y="0" on="1"/>
        <pt x="286" y="1344" on="1"/>
        <pt x="286" y="0" on="1"/>
      </contour>
    </TTGlyph>
    <TTGlyph name="Nacute" xMin="198" yMin="0" xMax="1330" yMax="1889">
      <component glyphName="N" x="0" y="0" flags="0x204"/>
      <component glyphName="acutecomb.case" x="211" y="0" flags="0x4"/>
    </TTGlyph>
    <TTGlyph name="Ncaron" xMin="198" yMin="0" xMax="1330" yMax="1889">
      <component glyphName="N" x="0" y="0" flags="0x204"/>
      <component glyphName="uni030C.case" x="211" y="0" flags="0x4"/>
    </TTGlyph>
    <TTGlyph name="Ntilde" xMin="198" yMin="0" xMax="1330" yMax="1834">
      <component glyphName="N" x="0" y="0" flags="0x204"/>
      <component glyphName="tildecomb.case" x="211" y="0" flags="0x4"/>
    </TTGlyph>
    <TTGlyph name="O" xMin="125" yMin="-18" xMax="1363" yMax="1498">
      <contour>
        <pt x="744" y="-18" on="1"/>
        <pt x="560" y="-18" on="0"/>
        <pt x="281" y="138" on="0"/>
        <pt x="125" y="472" on="0"/>
        <pt x="125" y="740" on="1"/>
        <pt x="125" y="1008" on="0"/>
        <pt x="283" y="1342" on="0"/>
        <pt x="562" y="1498" on="0"/>
        <pt x="744" y="1498" on="1"/>
        <pt x="928" y="1498" on="0"/>
        <pt x="1207" y="1342" on="0"/>
        <pt x="1363" y="1008" on="0"/>
        <pt x="1363" y="740" on="1"/>
        <pt x="1363" y="472" on="0"/>
        <pt x="1205" y="138" on="0"/>
        <pt x="926" y="-18" on="0"/>
      </contour>
      <contour>
        <pt x="744" y="67" on="1"/>
        <pt x="900" y="67" on="0"/>
        <pt x="1135" y="198" on="0"/>
        <pt x="1267" y="492" on="0"/>
        <pt x="1267" y="736" on="1"/>
        <pt x="1267" y="984" on="0"/>
        <pt x="1135" y="1282" on="0"/>
        <pt x="900" y="1413" on="0"/>
        <pt x="744" y="1413" on="1"/>
        <pt x="589" y="1413" on="0"/>
        <pt x="353" y="1282" on="0"/>
        <pt x="221" y="989" on="0"/>
        <pt x="221" y="744" on="1"/>
        <pt x="221" y="496" on="0"/>
        <pt x="353" y="198" on="0"/>
        <pt x="588" y="67" on="0"/>
      </contour>
    </TTGlyph>
    <TTGlyph name="OE" xMin="125" yMin="-10" xMax="2017" yMax="1494">
      <contour>
        <pt x="875" y="-10" on="1"/>
        <pt x="508" y="-10" on="0"/>
        <pt x="125" y="356" on="0"/>
        <pt x="125" y="740" on="1"/>
        <pt x="125" y="1120" on="0"/>
        <pt x="502" y="1494" on="0"/>
        <pt x="862" y="1494" on="1"/>
        <pt x="947" y="1494" on="0"/>
        <pt x="1123" y="1480" on="0"/>
        <pt x="1198" y="1480" on="1"/>
        <pt x="2007" y="1480" on="1"/>
        <pt x="2007" y="1397" on="1"/>
        <pt x="1219" y="1397" on="1"/>
        <pt x="1219" y="802" on="1"/>
        <pt x="1909" y="802" on="1"/>
        <pt x="1909" y="719" on="1"/>
        <pt x="1219" y="719" on="1"/>
        <pt x="1219" y="83" on="1"/>
        <pt x="2017" y="83" on="1"/>
        <pt x="2017" y="0" on="1"/>
        <pt x="1213" y="0" on="1"/>
        <pt x="1146" y="0" on="0"/>
        <pt x="958" y="-10" on="0"/>
      </contour>
      <contour>
        <pt x="867" y="74" on="1"/>
        <pt x="1038" y="74" on="0"/>
        <pt x="1127" y="85" on="1"/>
        <pt x="1127" y="1395" on="1"/>
        <pt x="1062" y="1403" on="0"/>
        <pt x="937" y="1410" on="0"/>
        <pt x="861" y="1410" on="1"/>
        <pt x="544" y="1410" on="0"/>
        <pt x="221" y="1085" on="0"/>
        <pt x="221" y="740" on="1"/>
        <pt x="221" y="393" on="0"/>
        <pt x="548" y="74" on="0"/>
      </contour>
    </TTGlyph>
    <TTGlyph name="Oacute" xMin="125" yMin="-18" xMax="1363" yMax="1889">
      <component glyphName="O" x="0" y="0" flags="0x204"/>
      <component glyphName="acutecomb.case" x="191" y="0" flags="0x4"/>
    </TTGlyph>
    <TTGlyph name="Obreve" xMin="125" yMin="-18" xMax="1363" yMax="1863">
      <component glyphName="O" x="0" y="0" flags="0x204"/>
      <component glyphName="uni0306.case" x="191" y="0" flags="0x4"/>
    </TTGlyph>
    <TTGlyph name="Ocircumflex" xMin="125" yMin="-18" xMax="1363" yMax="1889">
      <component glyphName="O" x="0" y="0" flags="0x204"/>
      <component glyphName="uni0302.case" x="191" y="0" flags="0x4"/>
    </TTGlyph>
    <TTGlyph name="Odieresis" xMin="125" yMin="-18" xMax="1363" yMax="1823">
      <component glyphName="O" x="0" y="0" flags="0x204"/>
      <component glyphName="uni0308.case" x="191" y="0" flags="0x4"/>
    </TTGlyph>
    <TTGlyph name="Ograve" xMin="125" yMin="-18" xMax="1363" yMax="1889">
      <component glyphName="O" x="0" y="0" flags="0x204"/>
      <component glyphName="gravecomb.case" x="191" y="0" flags="0x4"/>
    </TTGlyph>
    <TTGlyph name="Ohorn" xMin="125" yMin="-18" xMax="1364" yMax="1776">
      <contour>
        <pt x="744" y="-18" on="1"/>
        <pt x="560" y="-18" on="0"/>
        <pt x="281" y="138" on="0"/>
        <pt x="125" y="472" on="0"/>
        <pt x="125" y="740" on="1"/>
        <pt x="125" y="1008" on="0"/>
        <pt x="283" y="1342" on="0"/>
        <pt x="562" y="1498" on="0"/>
        <pt x="744" y="1498" on="1"/>
        <pt x="832" y="1498" on="0"/>
        <pt x="975" y="1473" on="0"/>
        <pt x="1076" y="1473" on="1"/>
        <pt x="1175" y="1473" on="0"/>
        <pt x="1285" y="1552" on="0"/>
        <pt x="1285" y="1634" on="1"/>
        <pt x="1285" y="1675" on="0"/>
        <pt x="1271" y="1741" on="0"/>
        <pt x="1260" y="1776" on="1"/>
        <pt x="1339" y="1776" on="1"/>
        <pt x="1352" y="1741" on="0"/>
        <pt x="1364" y="1676" on="0"/>
        <pt x="1364" y="1631" on="1"/>
        <pt x="1364" y="1528" on="0"/>
        <pt x="1229" y="1406" on="0"/>
        <pt x="1104" y="1399" on="1"/>
        <pt x="1224" y="1317" on="0"/>
        <pt x="1363" y="993" on="0"/>
        <pt x="1363" y="740" on="1"/>
        <pt x="1363" y="468" on="0"/>
        <pt x="1207" y="134" on="0"/>
        <pt x="928" y="-18" on="0"/>
      </contour>
      <contour>
        <pt x="744" y="67" on="1"/>
        <pt x="900" y="67" on="0"/>
        <pt x="1135" y="198" on="0"/>
        <pt x="1267" y="492" on="0"/>
        <pt x="1267" y="736" on="1"/>
        <pt x="1267" y="984" on="0"/>
        <pt x="1135" y="1282" on="0"/>
        <pt x="900" y="1413" on="0"/>
        <pt x="744" y="1413" on="1"/>
        <pt x="589" y="1413" on="0"/>
        <pt x="353" y="1282" on="0"/>
        <pt x="221" y="989" on="0"/>
        <pt x="221" y="744" on="1"/>
        <pt x="221" y="496" on="0"/>
        <pt x="353" y="198" on="0"/>
        <pt x="588" y="67" on="0"/>
      </contour>
    </TTGlyph>
    <TTGlyph name="Ohungarumlaut" xMin="125" yMin="-18" xMax="1363" yMax="1889">
      <component glyphName="O" x="0" y="0" flags="0x204"/>
      <component glyphName="uni030B.case" x="191" y="0" flags="0x4"/>
    </TTGlyph>
    <TTGlyph name="Omacron" xMin="125" yMin="-18" xMax="1363" yMax="1787">
      <component glyphName="O" x="0" y="0" flags="0x204"/>
      <component glyphName="uni0304.case" x="191" y="0" flags="0x4"/>
    </TTGlyph>
    <TTGlyph name="Oslash" xMin="114" yMin="-18" xMax="1368" yMax="1498">
      <component glyphName="O" x="0" y="0" flags="0x204"/>
      <component glyphName="slashcomb.case" x="-11" y="0" flags="0x4"/>
    </TTGlyph>
    <TTGlyph name="Oslashacute" xMin="114" yMin="-18" xMax="1368" yMax="1889">
      <component glyphName="Oslash" x="0" y="0" flags="0x204"/>
      <component glyphName="acutecomb.case" x="184" y="0" flags="0x4"/>
    </TTGlyph>
    <TTGlyph name="Otilde" xMin="125" yMin="-18" xMax="1363" yMax="1834">
      <component glyphName="O" x="0" y="0" flags="0x204"/>
      <component glyphName="tildecomb.case" x="191" y="0" flags="0x4"/>
    </TTGlyph>
    <TTGlyph name="P" xMin="198" yMin="0" xMax="1161" yMax="1494">
      <contour>
        <pt x="198" y="0" on="1"/>
        <pt x="198" y="1457" on="1"/>
        <pt x="294" y="1476" on="0"/>
        <pt x="472" y="1494" on="0"/>
        <pt x="574" y="1494" on="1"/>
        <pt x="860" y="1494" on="0"/>
        <pt x="1161" y="1259" on="0"/>
        <pt x="1161" y="1005" on="1"/>
        <pt x="1161" y="766" on="0"/>
        <pt x="861" y="510" on="0"/>
        <pt x="529" y="510" on="1"/>
        <pt x="411" y="510" on="0"/>
        <pt x="289" y="522" on="1"/>
        <pt x="289" y="0" on="1"/>
      </contour>
      <contour>
        <pt x="531" y="592" on="1"/>
        <pt x="818" y="592" on="0"/>
        <pt x="1066" y="798" on="0"/>
        <pt x="1066" y="1002" on="1"/>
        <pt x="1066" y="1217" on="0"/>
        <pt x="822" y="1413" on="0"/>
        <pt x="577" y="1413" on="1"/>
        <pt x="494" y="1413" on="0"/>
        <pt x="354" y="1400" on="0"/>
        <pt x="289" y="1389" on="1"/>
        <pt x="289" y="607" on="1"/>
        <pt x="402" y="592" on="0"/>
      </contour>
    </TTGlyph>
    <TTGlyph name="Q" xMin="125" yMin="-192" xMax="1363" yMax="1498">
      <contour>
        <pt x="1322" y="-192" on="1"/>
        <pt x="975" y="-159" on="0"/>
        <pt x="512" y="-26" on="0"/>
        <pt x="241" y="192" on="0"/>
        <pt x="125" y="515" on="0"/>
        <pt x="125" y="739" on="1"/>
        <pt x="125" y="1007" on="0"/>
        <pt x="283" y="1342" on="0"/>
        <pt x="562" y="1498" on="0"/>
        <pt x="744" y="1498" on="1"/>
        <pt x="926" y="1498" on="0"/>
        <pt x="1206" y="1346" on="0"/>
        <pt x="1363" y="1012" on="0"/>
        <pt x="1363" y="740" on="1"/>
        <pt x="1363" y="367" on="0"/>
        <pt x="1050" y="-15" on="0"/>
        <pt x="752" y="-12" on="1"/>
        <pt x="879" y="-52" on="0"/>
        <pt x="1189" y="-99" on="0"/>
        <pt x="1335" y="-110" on="1"/>
      </contour>
      <contour>
        <pt x="744" y="67" on="1"/>
        <pt x="900" y="67" on="0"/>
        <pt x="1135" y="198" on="0"/>
        <pt x="1267" y="492" on="0"/>
        <pt x="1267" y="736" on="1"/>
        <pt x="1267" y="984" on="0"/>
        <pt x="1135" y="1282" on="0"/>
        <pt x="900" y="1413" on="0"/>
        <pt x="744" y="1413" on="1"/>
        <pt x="589" y="1413" on="0"/>
        <pt x="353" y="1282" on="0"/>
        <pt x="221" y="989" on="0"/>
        <pt x="221" y="744" on="1"/>
        <pt x="221" y="496" on="0"/>
        <pt x="353" y="198" on="0"/>
        <pt x="588" y="67" on="0"/>
      </contour>
    </TTGlyph>
    <TTGlyph name="R" xMin="198" yMin="0" xMax="1271" yMax="1494">
      <contour>
        <pt x="198" y="0" on="1"/>
        <pt x="198" y="1456" on="1"/>
        <pt x="280" y="1472" on="0"/>
        <pt x="466" y="1494" on="0"/>
        <pt x="588" y="1494" on="1"/>
        <pt x="882" y="1494" on="0"/>
        <pt x="1164" y="1294" on="0"/>
        <pt x="1164" y="1072" on="1"/>
        <pt x="1165" y="716" on="0"/>
        <pt x="741" y="654" on="1"/>
        <pt x="1271" y="0" on="1"/>
        <pt x="1158" y="0" on="1"/>
        <pt x="639" y="644" on="1"/>
        <pt x="593" y="641" on="0"/>
        <pt x="543" y="641" on="1"/>
        <pt x="467" y="641" on="0"/>
        <pt x="352" y="648" on="0"/>
        <pt x="289" y="653" on="1"/>
        <pt x="289" y="0" on="1"/>
      </contour>
      <contour>
        <pt x="544" y="722" on="1"/>
        <pt x="827" y="722" on="0"/>
        <pt x="1074" y="895" on="0"/>
        <pt x="1074" y="1069" on="1"/>
        <pt x="1074" y="1258" on="0"/>
        <pt x="845" y="1413" on="0"/>
        <pt x="588" y="1413" on="1"/>
        <pt x="491" y="1413" on="0"/>
        <pt x="357" y="1399" on="0"/>
        <pt x="289" y="1387" on="1"/>
        <pt x="289" y="734" on="1"/>
        <pt x="360" y="728" on="0"/>
        <pt x="463" y="722" on="0"/>
      </contour>
    </TTGlyph>
    <TTGlyph name="Racute" xMin="198" yMin="0" xMax="1271" yMax="1889">
      <component glyphName="R" x="0" y="0" flags="0x204"/>
      <component glyphName="acutecomb.case" x="94" y="0" flags="0x4"/>
    </TTGlyph>
    <TTGlyph name="Rcaron" xMin="198" yMin="0" xMax="1271" yMax="1889">
      <component glyphName="R" x="0" y="0" flags="0x204"/>
      <component glyphName="uni030C.case" x="94" y="0" flags="0x4"/>
    </TTGlyph>
    <TTGlyph name="S" xMin="91" yMin="-18" xMax="1004" yMax="1498">
      <contour>
        <pt x="481" y="-18" on="1"/>
        <pt x="393" y="-18" on="0"/>
        <pt x="200" y="12" on="0"/>
        <pt x="110" y="43" on="1"/>
        <pt x="110" y="128" on="1"/>
        <pt x="210" y="95" on="0"/>
        <pt x="400" y="65" on="0"/>
        <pt x="484" y="65" on="1"/>
        <pt x="909" y="65" on="0"/>
        <pt x="909" y="383" on="1"/>
        <pt x="909" y="515" on="0"/>
        <pt x="745" y="651" on="0"/>
        <pt x="558" y="693" on="1"/>
        <pt x="486" y="709" on="1"/>
        <pt x="284" y="755" on="0"/>
        <pt x="91" y="945" on="0"/>
        <pt x="91" y="1103" on="1"/>
        <pt x="91" y="1285" on="0"/>
        <pt x="348" y="1498" on="0"/>
        <pt x="603" y="1498" on="1"/>
        <pt x="690" y="1498" on="0"/>
        <pt x="866" y="1473" on="0"/>
        <pt x="942" y="1449" on="1"/>
        <pt x="942" y="1363" on="1"/>
        <pt x="777" y="1415" on="0"/>
        <pt x="600" y="1415" on="1"/>
        <pt x="392" y="1415" on="0"/>
        <pt x="186" y="1255" on="0"/>
        <pt x="186" y="1108" on="1"/>
        <pt x="186" y="978" on="0"/>
        <pt x="334" y="838" on="0"/>
        <pt x="513" y="797" on="1"/>
        <pt x="585" y="781" on="1"/>
        <pt x="806" y="732" on="0"/>
        <pt x="1004" y="544" on="0"/>
        <pt x="1004" y="387" on="1"/>
        <pt x="1004" y="191" on="0"/>
        <pt x="732" y="-18" on="0"/>
      </contour>
    </TTGlyph>
    <TTGlyph name="Sacute" xMin="91" yMin="-18" xMax="1004" yMax="1889">
      <component glyphName="S" x="0" y="0" flags="0x204"/>
      <component glyphName="acutecomb.case" x="2" y="0" flags="0x4"/>
    </TTGlyph>
    <TTGlyph name="Scaron" xMin="91" yMin="-18" xMax="1004" yMax="1889">
      <component glyphName="S" x="0" y="0" flags="0x204"/>
      <component glyphName="uni030C.case" x="2" y="0" flags="0x4"/>
    </TTGlyph>
    <TTGlyph name="Scedilla" xMin="91" yMin="-404" xMax="1004" yMax="1498">
      <component glyphName="S" x="0" y="0" flags="0x204"/>
      <component glyphName="uni0327.case" x="2" y="0" flags="0x4"/>
    </TTGlyph>
    <TTGlyph name="Scircumflex" xMin="91" yMin="-18" xMax="1004" yMax="1889">
      <component glyphName="S" x="0" y="0" flags="0x204"/>
      <component glyphName="uni0302.case" x="2" y="0" flags="0x4"/>
    </TTGlyph>
    <TTGlyph name="T" xMin="17" yMin="0" xMax="1177" yMax="1480">
      <contour>
        <pt x="551" y="0" on="1"/>
        <pt x="551" y="1396" on="1"/>
        <pt x="17" y="1396" on="1"/>
        <pt x="17" y="1480" on="1"/>
        <pt x="1177" y="1480" on="1"/>
        <pt x="1177" y="1396" on="1"/>
        <pt x="643" y="1396" on="1"/>
        <pt x="643" y="0" on="1"/>
      </contour>
    </TTGlyph>
    <TTGlyph name="Tbar" xMin="17" yMin="0" xMax="1177" yMax="1480">
      <component glyphName="T" x="0" y="0" flags="0x204"/>
      <component glyphName="uni0335.case" x="109" y="-286" flags="0x4"/>
    </TTGlyph>
    <TTGlyph name="Tcaron" xMin="17" yMin="0" xMax="1177" yMax="1889">
      <component glyphName="T" x="0" y="0" flags="0x204"/>
      <component glyphName="uni030C.case" x="44" y="0" flags="0x4"/>
    </TTGlyph>
    <TTGlyph name="Thorn" xMin="198" yMin="0" xMax="1161" yMax="1481">
      <contour>
        <pt x="198" y="0" on="1"/>
        <pt x="198" y="1481" on="1"/>
        <pt x="289" y="1481" on="1"/>
        <pt x="289" y="1228" on="1"/>
        <pt x="346" y="1238" on="0"/>
        <pt x="484" y="1252" on="0"/>
        <pt x="575" y="1252" on="1"/>
        <pt x="860" y="1252" on="0"/>
        <pt x="1161" y="1017" on="0"/>
        <pt x="1161" y="762" on="1"/>
        <pt x="1161" y="524" on="0"/>
        <pt x="861" y="268" on="0"/>
        <pt x="530" y="268" on="1"/>
        <pt x="411" y="268" on="0"/>
        <pt x="289" y="280" on="1"/>
        <pt x="289" y="0" on="1"/>
      </contour>
      <contour>
        <pt x="531" y="350" on="1"/>
        <pt x="818" y="350" on="0"/>
        <pt x="1066" y="556" on="0"/>
        <pt x="1066" y="760" on="1"/>
        <pt x="1066" y="975" on="0"/>
        <pt x="822" y="1171" on="0"/>
        <pt x="577" y="1171" on="1"/>
        <pt x="494" y="1171" on="0"/>
        <pt x="354" y="1158" on="0"/>
        <pt x="289" y="1147" on="1"/>
        <pt x="289" y="365" on="1"/>
        <pt x="402" y="350" on="0"/>
      </contour>
    </TTGlyph>
    <TTGlyph name="U" xMin="190" yMin="-18" xMax="1281" yMax="1480">
      <contour>
        <pt x="737" y="-18" on="1"/>
        <pt x="457" y="-18" on="0"/>
        <pt x="190" y="256" on="0"/>
        <pt x="190" y="555" on="1"/>
        <pt x="190" y="1480" on="1"/>
        <pt x="282" y="1480" on="1"/>
        <pt x="282" y="543" on="1"/>
        <pt x="282" y="293" on="0"/>
        <pt x="501" y="66" on="0"/>
        <pt x="737" y="66" on="1"/>
        <pt x="972" y="66" on="0"/>
        <pt x="1192" y="293" on="0"/>
        <pt x="1192" y="543" on="1"/>
        <pt x="1192" y="1480" on="1"/>
        <pt x="1281" y="1480" on="1"/>
        <pt x="1281" y="555" on="1"/>
        <pt x="1281" y="256" on="0"/>
        <pt x="1016" y="-18" on="0"/>
      </contour>
    </TTGlyph>
    <TTGlyph name="Uacute" xMin="190" yMin="-18" xMax="1281" yMax="1889">
      <component glyphName="U" x="0" y="0" flags="0x204"/>
      <component glyphName="acutecomb.case" x="184" y="0" flags="0x4"/>
    </TTGlyph>
    <TTGlyph name="Ubreve" xMin="190" yMin="-18" xMax="1281" yMax="1863">
      <component glyphName="U" x="0" y="0" flags="0x204"/>
      <component glyphName="uni0306.case" x="184" y="0" flags="0x4"/>
    </TTGlyph>
    <TTGlyph name="Ucircumflex" xMin="190" yMin="-18" xMax="1281" yMax="1889">
      <component glyphName="U" x="0" y="0" flags="0x204"/>
      <component glyphName="uni0302.case" x="184" y="0" flags="0x4"/>
    </TTGlyph>
    <TTGlyph name="Udieresis" xMin="190" yMin="-18" xMax="1281" yMax="1823">
      <component glyphName="U" x="0" y="0" flags="0x204"/>
      <component glyphName="uni0308.case" x="184" y="0" flags="0x4"/>
    </TTGlyph>
    <TTGlyph name="Ugrave" xMin="190" yMin="-18" xMax="1281" yMax="1889">
      <component glyphName="U" x="0" y="0" flags="0x204"/>
      <component glyphName="gravecomb.case" x="184" y="0" flags="0x4"/>
    </TTGlyph>
    <TTGlyph name="Uhorn" xMin="190" yMin="-18" xMax="1520" yMax="1776">
      <contour>
        <pt x="737" y="-18" on="1"/>
        <pt x="457" y="-18" on="0"/>
        <pt x="190" y="256" on="0"/>
        <pt x="190" y="555" on="1"/>
        <pt x="190" y="1480" on="1"/>
        <pt x="282" y="1480" on="1"/>
        <pt x="282" y="543" on="1"/>
        <pt x="282" y="293" on="0"/>
        <pt x="501" y="66" on="0"/>
        <pt x="737" y="66" on="1"/>
        <pt x="972" y="66" on="0"/>
        <pt x="1192" y="293" on="0"/>
        <pt x="1192" y="543" on="1"/>
        <pt x="1192" y="1480" on="1"/>
        <pt x="1231" y="1480" on="1"/>
        <pt x="1330" y="1480" on="0"/>
        <pt x="1440" y="1552" on="0"/>
        <pt x="1440" y="1634" on="1"/>
        <pt x="1440" y="1675" on="0"/>
        <pt x="1427" y="1741" on="0"/>
        <pt x="1415" y="1776" on="1"/>
        <pt x="1495" y="1776" on="1"/>
        <pt x="1508" y="1741" on="0"/>
        <pt x="1520" y="1676" on="0"/>
        <pt x="1520" y="1631" on="1"/>
        <pt x="1520" y="1531" on="0"/>
        <pt x="1393" y="1417" on="0"/>
        <pt x="1281" y="1410" on="1"/>
        <pt x="1281" y="555" on="1"/>
        <pt x="1281" y="256" on="0"/>
        <pt x="1016" y="-18" on="0"/>
      </contour>
    </TTGlyph>
    <TTGlyph name="Uhungarumlaut" xMin="190" yMin="-18" xMax="1281" yMax="1889">
      <component glyphName="U" x="0" y="0" flags="0x204"/>
      <component glyphName="uni030B.case" x="184" y="0" flags="0x4"/>
    </TTGlyph>
    <TTGlyph name="Umacron" xMin="190" yMin="-18" xMax="1281" yMax="1787">
      <component glyphName="U" x="0" y="0" flags="0x204"/>
      <component glyphName="uni0304.case" x="184" y="0" flags="0x4"/>
    </TTGlyph>
    <TTGlyph name="Uogonek" xMin="190" yMin="-401" xMax="1281" yMax="1480">
      <contour>
        <pt x="833" y="-401" on="1"/>
        <pt x="724" y="-401" on="0"/>
        <pt x="612" y="-308" on="0"/>
        <pt x="612" y="-222" on="1"/>
        <pt x="612" y="-167" on="0"/>
        <pt x="673" y="-59" on="0"/>
        <pt x="747" y="-18" on="1"/>
        <pt x="737" y="-18" on="1"/>
        <pt x="457" y="-18" on="0"/>
        <pt x="190" y="256" on="0"/>
        <pt x="190" y="555" on="1"/>
        <pt x="190" y="1480" on="1"/>
        <pt x="282" y="1480" on="1"/>
        <pt x="282" y="543" on="1"/>
        <pt x="282" y="293" on="0"/>
        <pt x="501" y="66" on="0"/>
        <pt x="737" y="66" on="1"/>
        <pt x="972" y="66" on="0"/>
        <pt x="1192" y="293" on="0"/>
        <pt x="1192" y="543" on="1"/>
        <pt x="1192" y="1480" on="1"/>
        <pt x="1281" y="1480" on="1"/>
        <pt x="1281" y="555" on="1"/>
        <pt x="1281" y="324" on="0"/>
        <pt x="1120" y="53" on="0"/>
        <pt x="946" y="6" on="1"/>
        <pt x="799" y="-35" on="0"/>
        <pt x="680" y="-153" on="0"/>
        <pt x="680" y="-221" on="1"/>
        <pt x="680" y="-342" on="0"/>
        <pt x="834" y="-342" on="1"/>
        <pt x="876" y="-342" on="0"/>
        <pt x="958" y="-323" on="0"/>
        <pt x="1012" y="-302" on="1"/>
        <pt x="1012" y="-362" on="1"/>
        <pt x="922" y="-401" on="0"/>
      </contour>
    </TTGlyph>
    <TTGlyph name="Uring" xMin="190" yMin="-18" xMax="1281" yMax="1981">
      <component glyphName="U" x="0" y="0" flags="0x204"/>
      <component glyphName="uni030A.case" x="184" y="0" flags="0x4"/>
    </TTGlyph>
    <TTGlyph name="Utilde" xMin="190" yMin="-18" xMax="1281" yMax="1834">
      <component glyphName="U" x="0" y="0" flags="0x204"/>
      <component glyphName="tildecomb.case" x="184" y="0" flags="0x4"/>
    </TTGlyph>
    <TTGlyph name="V" xMin="19" yMin="0" xMax="1319" yMax="1480">
      <contour>
        <pt x="605" y="0" on="1"/>
        <pt x="19" y="1480" on="1"/>
        <pt x="119" y="1480" on="1"/>
        <pt x="672" y="76" on="1"/>
        <pt x="1225" y="1480" on="1"/>
        <pt x="1319" y="1480" on="1"/>
        <pt x="734" y="0" on="1"/>
      </contour>
    </TTGlyph>
    <TTGlyph name="W" xMin="72" yMin="0" xMax="2098" yMax="1480">
      <contour>
        <pt x="529" y="0" on="1"/>
        <pt x="72" y="1480" on="1"/>
        <pt x="169" y="1480" on="1"/>
        <pt x="594" y="85" on="1"/>
        <pt x="1027" y="1480" on="1"/>
        <pt x="1146" y="1480" on="1"/>
        <pt x="1580" y="84" on="1"/>
        <pt x="2006" y="1480" on="1"/>
        <pt x="2098" y="1480" on="1"/>
        <pt x="1642" y="0" on="1"/>
        <pt x="1518" y="0" on="1"/>
        <pt x="1086" y="1381" on="1"/>
        <pt x="653" y="0" on="1"/>
      </contour>
    </TTGlyph>
    <TTGlyph name="Wacute" xMin="72" yMin="0" xMax="2098" yMax="1889">
      <component glyphName="W" x="0" y="0" flags="0x204"/>
      <component glyphName="acutecomb.case" x="534" y="0" flags="0x4"/>
    </TTGlyph>
    <TTGlyph name="Wcircumflex" xMin="72" yMin="0" xMax="2098" yMax="1889">
      <component glyphName="W" x="0" y="0" flags="0x204"/>
      <component glyphName="uni0302.case" x="534" y="0" flags="0x4"/>
    </TTGlyph>
    <TTGlyph name="Wdieresis" xMin="72" yMin="0" xMax="2098" yMax="1823">
      <component glyphName="W" x="0" y="0" flags="0x204"/>
      <component glyphName="uni0308.case" x="534" y="0" flags="0x4"/>
    </TTGlyph>
    <TTGlyph name="Wgrave" xMin="72" yMin="0" xMax="2098" yMax="1889">
      <component glyphName="W" x="0" y="0" flags="0x204"/>
      <component glyphName="gravecomb.case" x="534" y="0" flags="0x4"/>
    </TTGlyph>
    <TTGlyph name="X" xMin="30" yMin="0" xMax="1277" yMax="1480">
      <contour>
        <pt x="30" y="0" on="1"/>
        <pt x="598" y="748" on="1"/>
        <pt x="43" y="1480" on="1"/>
        <pt x="155" y="1480" on="1"/>
        <pt x="654" y="821" on="1"/>
        <pt x="1155" y="1480" on="1"/>
        <pt x="1264" y="1480" on="1"/>
        <pt x="709" y="750" on="1"/>
        <pt x="1277" y="0" on="1"/>
        <pt x="1163" y="0" on="1"/>
        <pt x="652" y="677" on="1"/>
        <pt x="141" y="0" on="1"/>
      </contour>
    </TTGlyph>
    <TTGlyph name="Y" xMin="-20" yMin="0" xMax="1206" yMax="1480">
      <contour>
        <pt x="552" y="0" on="1"/>
        <pt x="552" y="673" on="1"/>
        <pt x="-20" y="1480" on="1"/>
        <pt x="89" y="1480" on="1"/>
        <pt x="599" y="757" on="1"/>
        <pt x="1102" y="1480" on="1"/>
        <pt x="1206" y="1480" on="1"/>
        <pt x="643" y="674" on="1"/>
        <pt x="643" y="0" on="1"/>
      </contour>
    </TTGlyph>
    <TTGlyph name="Yacute" xMin="-20" yMin="0" xMax="1206" yMax="1889">
      <component glyphName="Y" x="0" y="0" flags="0x204"/>
      <component glyphName="acutecomb.case" x="44" y="0" flags="0x4"/>
    </TTGlyph>
    <TTGlyph name="Ycircumflex" xMin="-20" yMin="0" xMax="1206" yMax="1889">
      <component glyphName="Y" x="0" y="0" flags="0x204"/>
      <component glyphName="uni0302.case" x="44" y="0" flags="0x4"/>
    </TTGlyph>
    <TTGlyph name="Ydieresis" xMin="-20" yMin="0" xMax="1206" yMax="1823">
      <component glyphName="Y" x="0" y="0" flags="0x204"/>
      <component glyphName="uni0308.case" x="44" y="0" flags="0x4"/>
    </TTGlyph>
    <TTGlyph name="Ygrave" xMin="-20" yMin="0" xMax="1206" yMax="1889">
      <component glyphName="Y" x="0" y="0" flags="0x204"/>
      <component glyphName="gravecomb.case" x="44" y="0" flags="0x4"/>
    </TTGlyph>
    <TTGlyph name="Z" xMin="67" yMin="0" xMax="1125" yMax="1480">
      <contour>
        <pt x="67" y="0" on="1"/>
        <pt x="67" y="52" on="1"/>
        <pt x="986" y="1398" on="1"/>
        <pt x="80" y="1398" on="1"/>
        <pt x="80" y="1480" on="1"/>
        <pt x="1113" y="1480" on="1"/>
        <pt x="1113" y="1428" on="1"/>
        <pt x="193" y="82" on="1"/>
        <pt x="1125" y="82" on="1"/>
        <pt x="1125" y="0" on="1"/>
      </contour>
    </TTGlyph>
    <TTGlyph name="Zacute" xMin="67" yMin="0" xMax="1125" yMax="1889">
      <component glyphName="Z" x="0" y="0" flags="0x204"/>
      <component glyphName="acutecomb.case" x="43" y="0" flags="0x4"/>
    </TTGlyph>
    <TTGlyph name="Zcaron" xMin="67" yMin="0" xMax="1125" yMax="1889">
      <component glyphName="Z" x="0" y="0" flags="0x204"/>
      <component glyphName="uni030C.case" x="43" y="0" flags="0x4"/>
    </TTGlyph>
    <TTGlyph name="Zdotaccent" xMin="67" yMin="0" xMax="1125" yMax="1823">
      <component glyphName="Z" x="0" y="0" flags="0x204"/>
      <component glyphName="uni0307.case" x="43" y="0" flags="0x4"/>
    </TTGlyph>
    <TTGlyph name="a" xMin="117" yMin="-16" xMax="893" yMax="1097">
      <contour>
        <pt x="450" y="-16" on="1"/>
        <pt x="293" y="-16" on="0"/>
        <pt x="117" y="135" on="0"/>
        <pt x="117" y="270" on="1"/>
        <pt x="117" y="405" on="0"/>
        <pt x="298" y="556" on="0"/>
        <pt x="500" y="579" on="1"/>
        <pt x="803" y="615" on="1"/>
        <pt x="803" y="734" on="1"/>
        <pt x="803" y="846" on="0"/>
        <pt x="730" y="968" on="0"/>
        <pt x="591" y="1016" on="0"/>
        <pt x="491" y="1016" on="1"/>
        <pt x="425" y="1016" on="0"/>
        <pt x="262" y="992" on="0"/>
        <pt x="180" y="963" on="1"/>
        <pt x="180" y="1046" on="1"/>
        <pt x="248" y="1071" on="0"/>
        <pt x="417" y="1097" on="0"/>
        <pt x="495" y="1097" on="1"/>
        <pt x="622" y="1097" on="0"/>
        <pt x="800" y="1031" on="0"/>
        <pt x="893" y="872" on="0"/>
        <pt x="893" y="733" on="1"/>
        <pt x="893" y="0" on="1"/>
        <pt x="814" y="0" on="1"/>
        <pt x="807" y="129" on="1"/>
        <pt x="798" y="129" on="1"/>
        <pt x="740" y="62" on="0"/>
        <pt x="555" y="-16" on="0"/>
      </contour>
      <contour>
        <pt x="213" y="277" on="1"/>
        <pt x="213" y="175" on="0"/>
        <pt x="335" y="63" on="0"/>
        <pt x="461" y="63" on="1"/>
        <pt x="554" y="63" on="0"/>
        <pt x="732" y="140" on="0"/>
        <pt x="803" y="224" on="1"/>
        <pt x="803" y="538" on="1"/>
        <pt x="501" y="503" on="1"/>
        <pt x="346" y="485" on="0"/>
        <pt x="213" y="375" on="0"/>
      </contour>
    </TTGlyph>
    <TTGlyph name="a.sc" xMin="43" yMin="0" xMax="1164" yMax="1190">
      <contour>
        <pt x="43" y="0" on="1"/>
        <pt x="541" y="1190" on="1"/>
        <pt x="664" y="1190" on="1"/>
        <pt x="1164" y="0" on="1"/>
        <pt x="1068" y="0" on="1"/>
        <pt x="899" y="405" on="1"/>
        <pt x="304" y="405" on="1"/>
        <pt x="136" y="0" on="1"/>
      </contour>
      <contour>
        <pt x="337" y="484" on="1"/>
        <pt x="866" y="484" on="1"/>
        <pt x="602" y="1121" on="1"/>
      </contour>
    </TTGlyph>
    <TTGlyph name="aacute" xMin="117" yMin="-16" xMax="893" yMax="1616">
      <component glyphName="a" x="0" y="0" flags="0x204"/>
      <component glyphName="acutecomb" x="-29" y="0" flags="0x4"/>
    </TTGlyph>
    <TTGlyph name="aacute.sc" xMin="43" yMin="0" xMax="1164" yMax="1599">
      <component glyphName="a.sc" x="0" y="0" flags="0x204"/>
      <component glyphName="acutecomb.sc" x="51" y="-290" flags="0x4"/>
    </TTGlyph>
    <TTGlyph name="abreve" xMin="117" yMin="-16" xMax="893" yMax="1588">
      <component glyphName="a" x="0" y="0" flags="0x204"/>
      <component glyphName="uni0306" x="-29" y="0" flags="0x4"/>
    </TTGlyph>
    <TTGlyph name="abreve.sc" xMin="43" yMin="0" xMax="1164" yMax="1573">
      <component glyphName="a.sc" x="0" y="0" flags="0x204"/>
      <component glyphName="uni0306.sc" x="51" y="-290" flags="0x4"/>
    </TTGlyph>
    <TTGlyph name="acircumflex" xMin="117" yMin="-16" xMax="893" yMax="1616">
      <component glyphName="a" x="0" y="0" flags="0x204"/>
      <component glyphName="uni0302" x="-29" y="0" flags="0x4"/>
    </TTGlyph>
    <TTGlyph name="acircumflex.sc" xMin="43" yMin="0" xMax="1164" yMax="1599">
      <component glyphName="a.sc" x="0" y="0" flags="0x204"/>
      <component glyphName="uni0302.sc" x="51" y="-290" flags="0x4"/>
    </TTGlyph>
    <TTGlyph name="acute" xMin="509" yMin="1261" xMax="852" yMax="1616">
      <component glyphName="acutecomb" x="0" y="0" flags="0x4"/>
    </TTGlyph>
    <TTGlyph name="acutecomb" xMin="509" yMin="1261" xMax="852" yMax="1616">
      <contour>
        <pt x="509" y="1261" on="1"/>
        <pt x="747" y="1616" on="1"/>
        <pt x="852" y="1616" on="1"/>
        <pt x="598" y="1261" on="1"/>
      </contour>
    </TTGlyph>
    <TTGlyph name="acutecomb.case" xMin="509" yMin="1614" xMax="813" yMax="1889">
      <contour>
        <pt x="509" y="1614" on="1"/>
        <pt x="707" y="1889" on="1"/>
        <pt x="813" y="1889" on="1"/>
        <pt x="597" y="1614" on="1"/>
      </contour>
    </TTGlyph>
    <TTGlyph name="acutecomb.sc" xMin="509" yMin="1614" xMax="813" yMax="1889">
      <component glyphName="acutecomb.case" x="0" y="0" flags="0x204"/>
    </TTGlyph>
    <TTGlyph name="adieresis" xMin="117" yMin="-16" xMax="893" yMax="1494">
      <component glyphName="a" x="0" y="0" flags="0x204"/>
      <component glyphName="uni0308" x="-29" y="0" flags="0x4"/>
    </TTGlyph>
    <TTGlyph name="adieresis.sc" xMin="43" yMin="0" xMax="1164" yMax="1533">
      <component glyphName="a.sc" x="0" y="0" flags="0x204"/>
      <component glyphName="uni0308.sc" x="51" y="-290" flags="0x4"/>
    </TTGlyph>
    <TTGlyph name="ae" xMin="117" yMin="-18" xMax="1644" yMax="1098">
      <contour>
        <pt x="454" y="-16" on="1"/>
        <pt x="298" y="-16" on="0"/>
        <pt x="117" y="135" on="0"/>
        <pt x="117" y="271" on="1"/>
        <pt x="117" y="361" on="0"/>
        <pt x="199" y="501" on="0"/>
        <pt x="381" y="581" on="0"/>
        <pt x="532" y="581" on="1"/>
        <pt x="803" y="581" on="1"/>
        <pt x="803" y="735" on="1"/>
        <pt x="803" y="847" on="0"/>
        <pt x="730" y="969" on="0"/>
        <pt x="591" y="1016" on="0"/>
        <pt x="491" y="1016" on="1"/>
        <pt x="425" y="1016" on="0"/>
        <pt x="262" y="992" on="0"/>
        <pt x="180" y="963" on="1"/>
        <pt x="180" y="1046" on="1"/>
        <pt x="248" y="1072" on="0"/>
        <pt x="416" y="1097" on="0"/>
        <pt x="494" y="1097" on="1"/>
        <pt x="644" y="1097" on="0"/>
        <pt x="836" y="998" on="0"/>
        <pt x="868" y="873" on="1"/>
        <pt x="918" y="987" on="0"/>
        <pt x="1102" y="1098" on="0"/>
        <pt x="1228" y="1098" on="1"/>
        <pt x="1424" y="1098" on="0"/>
        <pt x="1644" y="827" on="0"/>
        <pt x="1644" y="542" on="1"/>
        <pt x="1644" y="505" on="1"/>
        <pt x="893" y="505" on="1"/>
        <pt x="899" y="267" on="0"/>
        <pt x="1114" y="63" on="0"/>
        <pt x="1307" y="63" on="1"/>
        <pt x="1373" y="63" on="0"/>
        <pt x="1514" y="89" on="0"/>
        <pt x="1592" y="114" on="1"/>
        <pt x="1592" y="31" on="1"/>
        <pt x="1442" y="-18" on="0"/>
        <pt x="1299" y="-18" on="1"/>
        <pt x="1150" y="-18" on="0"/>
        <pt x="936" y="83" on="0"/>
        <pt x="876" y="192" on="1"/>
        <pt x="773" y="70" on="0"/>
        <pt x="560" y="-16" on="0"/>
      </contour>
      <contour>
        <pt x="1227" y="1020" on="1"/>
        <pt x="1075" y="1020" on="0"/>
        <pt x="898" y="816" on="0"/>
        <pt x="893" y="581" on="1"/>
        <pt x="1553" y="581" on="1"/>
        <pt x="1548" y="817" on="0"/>
        <pt x="1378" y="1020" on="0"/>
      </contour>
      <contour>
        <pt x="463" y="63" on="1"/>
        <pt x="558" y="63" on="0"/>
        <pt x="760" y="154" on="0"/>
        <pt x="841" y="271" on="1"/>
        <pt x="807" y="371" on="0"/>
        <pt x="803" y="506" on="1"/>
        <pt x="528" y="506" on="1"/>
        <pt x="352" y="506" on="0"/>
        <pt x="213" y="375" on="0"/>
        <pt x="213" y="278" on="1"/>
        <pt x="213" y="175" on="0"/>
        <pt x="338" y="63" on="0"/>
      </contour>
    </TTGlyph>
    <TTGlyph name="ae.sc" xMin="43" yMin="0" xMax="1553" yMax="1190">
      <contour>
        <pt x="43" y="0" on="1"/>
        <pt x="549" y="1190" on="1"/>
        <pt x="1545" y="1190" on="1"/>
        <pt x="1545" y="1111" on="1"/>
        <pt x="843" y="1111" on="1"/>
        <pt x="880" y="650" on="1"/>
        <pt x="1461" y="650" on="1"/>
        <pt x="1461" y="572" on="1"/>
        <pt x="886" y="572" on="1"/>
        <pt x="926" y="79" on="1"/>
        <pt x="1553" y="79" on="1"/>
        <pt x="1553" y="0" on="1"/>
        <pt x="842" y="0" on="1"/>
        <pt x="810" y="406" on="1"/>
        <pt x="308" y="406" on="1"/>
        <pt x="136" y="0" on="1"/>
      </contour>
      <contour>
        <pt x="607" y="1111" on="1"/>
        <pt x="342" y="485" on="1"/>
        <pt x="804" y="485" on="1"/>
        <pt x="754" y="1111" on="1"/>
      </contour>
    </TTGlyph>
    <TTGlyph name="aeacute" xMin="117" yMin="-18" xMax="1644" yMax="1616">
      <component glyphName="ae" x="0" y="0" flags="0x204"/>
      <component glyphName="acutecomb" x="295" y="0" flags="0x4"/>
    </TTGlyph>
    <TTGlyph name="aeacute.sc" xMin="43" yMin="0" xMax="1553" yMax="1599">
      <component glyphName="ae.sc" x="0" y="0" flags="0x204"/>
      <component glyphName="acutecomb.sc" x="242" y="-290" flags="0x4"/>
    </TTGlyph>
    <TTGlyph name="agrave" xMin="117" yMin="-16" xMax="893" yMax="1616">
      <component glyphName="a" x="0" y="0" flags="0x204"/>
      <component glyphName="gravecomb" x="-29" y="0" flags="0x4"/>
    </TTGlyph>
    <TTGlyph name="agrave.sc" xMin="43" yMin="0" xMax="1164" yMax="1599">
      <component glyphName="a.sc" x="0" y="0" flags="0x204"/>
      <component glyphName="gravecomb.sc" x="51" y="-290" flags="0x4"/>
    </TTGlyph>
    <TTGlyph name="amacron" xMin="117" yMin="-16" xMax="893" yMax="1459">
      <component glyphName="a" x="0" y="0" flags="0x204"/>
      <component glyphName="uni0304" x="-29" y="0" flags="0x4"/>
    </TTGlyph>
    <TTGlyph name="amacron.sc" xMin="43" yMin="0" xMax="1164" yMax="1497">
      <component glyphName="a.sc" x="0" y="0" flags="0x204"/>
      <component glyphName="uni0304.sc" x="51" y="-290" flags="0x4"/>
    </TTGlyph>
    <TTGlyph name="ampersand" xMin="161" yMin="-20" xMax="1541" yMax="1498">
      <contour>
        <pt x="716" y="-18" on="1"/>
        <pt x="432" y="-18" on="0"/>
        <pt x="161" y="218" on="0"/>
        <pt x="161" y="401" on="1"/>
        <pt x="161" y="540" on="0"/>
        <pt x="301" y="749" on="0"/>
        <pt x="434" y="811" on="1"/>
        <pt x="379" y="879" on="0"/>
        <pt x="335" y="1011" on="0"/>
        <pt x="335" y="1088" on="1"/>
        <pt x="335" y="1282" on="0"/>
        <pt x="586" y="1498" on="0"/>
        <pt x="843" y="1498" on="1"/>
        <pt x="919" y="1498" on="0"/>
        <pt x="1050" y="1481" on="0"/>
        <pt x="1103" y="1466" on="1"/>
        <pt x="1103" y="1381" on="1"/>
        <pt x="985" y="1415" on="0"/>
        <pt x="843" y="1415" on="1"/>
        <pt x="625" y="1415" on="0"/>
        <pt x="429" y="1244" on="0"/>
        <pt x="429" y="1087" on="1"/>
        <pt x="429" y="1013" on="0"/>
        <pt x="477" y="887" on="0"/>
        <pt x="607" y="750" on="0"/>
        <pt x="729" y="657" on="1"/>
        <pt x="1184" y="317" on="1"/>
        <pt x="1211" y="393" on="0"/>
        <pt x="1211" y="491" on="1"/>
        <pt x="1211" y="629" on="0"/>
        <pt x="1162" y="769" on="1"/>
        <pt x="1249" y="769" on="1"/>
        <pt x="1272" y="702" on="0"/>
        <pt x="1294" y="560" on="0"/>
        <pt x="1294" y="490" on="1"/>
        <pt x="1294" y="363" on="0"/>
        <pt x="1253" y="265" on="1"/>
        <pt x="1541" y="49" on="1"/>
        <pt x="1494" y="-20" on="1"/>
        <pt x="1212" y="191" on="1"/>
        <pt x="1071" y="-18" on="0"/>
      </contour>
      <contour>
        <pt x="256" y="410" on="1"/>
        <pt x="256" y="309" on="0"/>
        <pt x="350" y="152" on="0"/>
        <pt x="554" y="62" on="0"/>
        <pt x="721" y="62" on="1"/>
        <pt x="1031" y="62" on="0"/>
        <pt x="1146" y="240" on="1"/>
        <pt x="682" y="588" on="1"/>
        <pt x="560" y="678" on="0"/>
        <pt x="489" y="750" on="1"/>
        <pt x="370" y="695" on="0"/>
        <pt x="256" y="525" on="0"/>
      </contour>
    </TTGlyph>
    <TTGlyph name="ampersand.sc" xMin="108" yMin="-16" xMax="1298" yMax="1204">
      <contour>
        <pt x="585" y="-14" on="1"/>
        <pt x="341" y="-14" on="0"/>
        <pt x="108" y="174" on="0"/>
        <pt x="108" y="323" on="1"/>
        <pt x="108" y="433" on="0"/>
        <pt x="227" y="601" on="0"/>
        <pt x="338" y="650" on="1"/>
        <pt x="293" y="703" on="0"/>
        <pt x="254" y="809" on="0"/>
        <pt x="254" y="872" on="1"/>
        <pt x="254" y="1030" on="0"/>
        <pt x="473" y="1204" on="0"/>
        <pt x="697" y="1204" on="1"/>
        <pt x="825" y="1204" on="0"/>
        <pt x="920" y="1179" on="1"/>
        <pt x="920" y="1097" on="1"/>
        <pt x="870" y="1109" on="0"/>
        <pt x="759" y="1124" on="0"/>
        <pt x="698" y="1124" on="1"/>
        <pt x="512" y="1124" on="0"/>
        <pt x="349" y="991" on="0"/>
        <pt x="349" y="869" on="1"/>
        <pt x="349" y="813" on="0"/>
        <pt x="388" y="717" on="0"/>
        <pt x="487" y="617" on="0"/>
        <pt x="579" y="552" on="1"/>
        <pt x="986" y="269" on="1"/>
        <pt x="1006" y="328" on="0"/>
        <pt x="1006" y="404" on="1"/>
        <pt x="1006" y="456" on="0"/>
        <pt x="984" y="571" on="0"/>
        <pt x="965" y="625" on="1"/>
        <pt x="1047" y="625" on="1"/>
        <pt x="1067" y="571" on="0"/>
        <pt x="1085" y="458" on="0"/>
        <pt x="1085" y="403" on="1"/>
        <pt x="1085" y="302" on="0"/>
        <pt x="1052" y="223" on="1"/>
        <pt x="1298" y="52" on="1"/>
        <pt x="1251" y="-16" on="1"/>
        <pt x="1011" y="151" on="1"/>
        <pt x="887" y="-14" on="0"/>
      </contour>
      <contour>
        <pt x="200" y="332" on="1"/>
        <pt x="200" y="213" on="0"/>
        <pt x="381" y="61" on="0"/>
        <pt x="592" y="61" on="1"/>
        <pt x="848" y="61" on="0"/>
        <pt x="947" y="196" on="1"/>
        <pt x="533" y="484" on="1"/>
        <pt x="445" y="545" on="0"/>
        <pt x="390" y="595" on="1"/>
        <pt x="200" y="510" on="0"/>
      </contour>
    </TTGlyph>
    <TTGlyph name="aogonek" xMin="117" yMin="-404" xMax="1000" yMax="1097">
      <contour>
        <pt x="450" y="-16" on="1"/>
        <pt x="293" y="-16" on="0"/>
        <pt x="117" y="135" on="0"/>
        <pt x="117" y="270" on="1"/>
        <pt x="117" y="405" on="0"/>
        <pt x="298" y="556" on="0"/>
        <pt x="500" y="579" on="1"/>
        <pt x="803" y="615" on="1"/>
        <pt x="803" y="734" on="1"/>
        <pt x="803" y="846" on="0"/>
        <pt x="730" y="968" on="0"/>
        <pt x="591" y="1016" on="0"/>
        <pt x="491" y="1016" on="1"/>
        <pt x="425" y="1016" on="0"/>
        <pt x="262" y="992" on="0"/>
        <pt x="180" y="963" on="1"/>
        <pt x="180" y="1046" on="1"/>
        <pt x="248" y="1071" on="0"/>
        <pt x="417" y="1097" on="0"/>
        <pt x="495" y="1097" on="1"/>
        <pt x="622" y="1097" on="0"/>
        <pt x="800" y="1031" on="0"/>
        <pt x="893" y="872" on="0"/>
        <pt x="893" y="733" on="1"/>
        <pt x="893" y="0" on="1"/>
        <pt x="792" y="-56" on="0"/>
        <pt x="706" y="-162" on="0"/>
        <pt x="706" y="-227" on="1"/>
        <pt x="706" y="-282" on="0"/>
        <pt x="777" y="-345" on="0"/>
        <pt x="840" y="-345" on="1"/>
        <pt x="920" y="-345" on="0"/>
        <pt x="1000" y="-301" on="1"/>
        <pt x="1000" y="-363" on="1"/>
        <pt x="925" y="-404" on="0"/>
        <pt x="839" y="-404" on="1"/>
        <pt x="745" y="-404" on="0"/>
        <pt x="638" y="-311" on="0"/>
        <pt x="638" y="-231" on="1"/>
        <pt x="638" y="-158" on="0"/>
        <pt x="722" y="-35" on="0"/>
        <pt x="814" y="22" on="1"/>
        <pt x="807" y="129" on="1"/>
        <pt x="798" y="129" on="1"/>
        <pt x="740" y="62" on="0"/>
        <pt x="555" y="-16" on="0"/>
      </contour>
      <contour>
        <pt x="213" y="277" on="1"/>
        <pt x="213" y="175" on="0"/>
        <pt x="335" y="63" on="0"/>
        <pt x="461" y="63" on="1"/>
        <pt x="554" y="63" on="0"/>
        <pt x="732" y="140" on="0"/>
        <pt x="803" y="224" on="1"/>
        <pt x="803" y="538" on="1"/>
        <pt x="501" y="503" on="1"/>
        <pt x="346" y="485" on="0"/>
        <pt x="213" y="375" on="0"/>
      </contour>
    </TTGlyph>
    <TTGlyph name="aogonek.sc" xMin="43" yMin="-404" xMax="1289" yMax="1190">
      <component glyphName="a.sc" x="0" y="0" flags="0x204"/>
      <component glyphName="uni0328.sc" x="616" y="0" flags="0x4"/>
    </TTGlyph>
    <TTGlyph name="approxequal" xMin="174" yMin="478" xMax="915" yMax="1042">
      <contour>
        <pt x="719" y="848" on="1"/>
        <pt x="652" y="848" on="0"/>
        <pt x="534" y="906" on="0"/>
        <pt x="425" y="964" on="0"/>
        <pt x="372" y="964" on="1"/>
        <pt x="257" y="964" on="0"/>
        <pt x="174" y="856" on="1"/>
        <pt x="174" y="951" on="1"/>
        <pt x="244" y="1042" on="0"/>
        <pt x="370" y="1042" on="1"/>
        <pt x="437" y="1042" on="0"/>
        <pt x="556" y="984" on="0"/>
        <pt x="664" y="926" on="0"/>
        <pt x="717" y="926" on="1"/>
        <pt x="832" y="926" on="0"/>
        <pt x="915" y="1034" on="1"/>
        <pt x="915" y="938" on="1"/>
        <pt x="845" y="848" on="0"/>
      </contour>
      <contour>
        <pt x="719" y="478" on="1"/>
        <pt x="652" y="478" on="0"/>
        <pt x="534" y="536" on="0"/>
        <pt x="425" y="594" on="0"/>
        <pt x="372" y="594" on="1"/>
        <pt x="257" y="594" on="0"/>
        <pt x="174" y="486" on="1"/>
        <pt x="174" y="582" on="1"/>
        <pt x="244" y="672" on="0"/>
        <pt x="370" y="672" on="1"/>
        <pt x="437" y="672" on="0"/>
        <pt x="556" y="614" on="0"/>
        <pt x="664" y="556" on="0"/>
        <pt x="717" y="556" on="1"/>
        <pt x="832" y="556" on="0"/>
        <pt x="915" y="664" on="1"/>
        <pt x="915" y="569" on="1"/>
        <pt x="845" y="478" on="0"/>
      </contour>
    </TTGlyph>
    <TTGlyph name="approxequal.osf" xMin="174" yMin="278" xMax="915" yMax="842">
      <contour>
        <pt x="719" y="648" on="1"/>
        <pt x="652" y="648" on="0"/>
        <pt x="534" y="706" on="0"/>
        <pt x="425" y="764" on="0"/>
        <pt x="372" y="764" on="1"/>
        <pt x="257" y="764" on="0"/>
        <pt x="174" y="656" on="1"/>
        <pt x="174" y="751" on="1"/>
        <pt x="244" y="842" on="0"/>
        <pt x="370" y="842" on="1"/>
        <pt x="437" y="842" on="0"/>
        <pt x="556" y="784" on="0"/>
        <pt x="664" y="726" on="0"/>
        <pt x="717" y="726" on="1"/>
        <pt x="832" y="726" on="0"/>
        <pt x="915" y="834" on="1"/>
        <pt x="915" y="738" on="1"/>
        <pt x="845" y="648" on="0"/>
      </contour>
      <contour>
        <pt x="719" y="278" on="1"/>
        <pt x="652" y="278" on="0"/>
        <pt x="534" y="336" on="0"/>
        <pt x="425" y="394" on="0"/>
        <pt x="372" y="394" on="1"/>
        <pt x="257" y="394" on="0"/>
        <pt x="174" y="286" on="1"/>
        <pt x="174" y="382" on="1"/>
        <pt x="244" y="472" on="0"/>
        <pt x="370" y="472" on="1"/>
        <pt x="437" y="472" on="0"/>
        <pt x="556" y="414" on="0"/>
        <pt x="664" y="356" on="0"/>
        <pt x="717" y="356" on="1"/>
        <pt x="832" y="356" on="0"/>
        <pt x="915" y="464" on="1"/>
        <pt x="915" y="369" on="1"/>
        <pt x="845" y="278" on="0"/>
      </contour>
    </TTGlyph>
    <TTGlyph name="approxequal.tf" xMin="211" yMin="478" xMax="953" yMax="1042">
      <contour>
        <pt x="756" y="848" on="1"/>
        <pt x="689" y="848" on="0"/>
        <pt x="571" y="906" on="0"/>
        <pt x="462" y="964" on="0"/>
        <pt x="409" y="964" on="1"/>
        <pt x="295" y="964" on="0"/>
        <pt x="211" y="856" on="1"/>
        <pt x="211" y="951" on="1"/>
        <pt x="282" y="1042" on="0"/>
        <pt x="408" y="1042" on="1"/>
        <pt x="475" y="1042" on="0"/>
        <pt x="593" y="984" on="0"/>
        <pt x="702" y="926" on="0"/>
        <pt x="755" y="926" on="1"/>
        <pt x="869" y="926" on="0"/>
        <pt x="953" y="1034" on="1"/>
        <pt x="953" y="938" on="1"/>
        <pt x="882" y="848" on="0"/>
      </contour>
      <contour>
        <pt x="756" y="478" on="1"/>
        <pt x="689" y="478" on="0"/>
        <pt x="571" y="536" on="0"/>
        <pt x="462" y="594" on="0"/>
        <pt x="409" y="594" on="1"/>
        <pt x="295" y="594" on="0"/>
        <pt x="211" y="486" on="1"/>
        <pt x="211" y="582" on="1"/>
        <pt x="282" y="672" on="0"/>
        <pt x="408" y="672" on="1"/>
        <pt x="475" y="672" on="0"/>
        <pt x="593" y="614" on="0"/>
        <pt x="702" y="556" on="0"/>
        <pt x="755" y="556" on="1"/>
        <pt x="869" y="556" on="0"/>
        <pt x="953" y="664" on="1"/>
        <pt x="953" y="569" on="1"/>
        <pt x="882" y="478" on="0"/>
      </contour>
    </TTGlyph>
    <TTGlyph name="approxequal.tosf" xMin="211" yMin="278" xMax="953" yMax="842">
      <contour>
        <pt x="756" y="648" on="1"/>
        <pt x="689" y="648" on="0"/>
        <pt x="571" y="706" on="0"/>
        <pt x="462" y="764" on="0"/>
        <pt x="409" y="764" on="1"/>
        <pt x="295" y="764" on="0"/>
        <pt x="211" y="656" on="1"/>
        <pt x="211" y="751" on="1"/>
        <pt x="282" y="842" on="0"/>
        <pt x="408" y="842" on="1"/>
        <pt x="475" y="842" on="0"/>
        <pt x="593" y="784" on="0"/>
        <pt x="702" y="726" on="0"/>
        <pt x="755" y="726" on="1"/>
        <pt x="869" y="726" on="0"/>
        <pt x="953" y="834" on="1"/>
        <pt x="953" y="738" on="1"/>
        <pt x="882" y="648" on="0"/>
      </contour>
      <contour>
        <pt x="756" y="278" on="1"/>
        <pt x="689" y="278" on="0"/>
        <pt x="571" y="336" on="0"/>
        <pt x="462" y="394" on="0"/>
        <pt x="409" y="394" on="1"/>
        <pt x="295" y="394" on="0"/>
        <pt x="211" y="286" on="1"/>
        <pt x="211" y="382" on="1"/>
        <pt x="282" y="472" on="0"/>
        <pt x="408" y="472" on="1"/>
        <pt x="475" y="472" on="0"/>
        <pt x="593" y="414" on="0"/>
        <pt x="702" y="356" on="0"/>
        <pt x="755" y="356" on="1"/>
        <pt x="869" y="356" on="0"/>
        <pt x="953" y="464" on="1"/>
        <pt x="953" y="369" on="1"/>
        <pt x="882" y="278" on="0"/>
      </contour>
    </TTGlyph>
    <TTGlyph name="aring" xMin="117" yMin="-16" xMax="893" yMax="1630">
      <component glyphName="a" x="0" y="0" flags="0x204"/>
      <component glyphName="uni030A" x="-29" y="0" flags="0x4"/>
    </TTGlyph>
    <TTGlyph name="aring.sc" xMin="43" yMin="0" xMax="1164" yMax="1691">
      <component glyphName="a.sc" x="0" y="0" flags="0x204"/>
      <component glyphName="uni030A.sc" x="51" y="-290" flags="0x4"/>
    </TTGlyph>
    <TTGlyph name="aringacute" xMin="117" yMin="-16" xMax="893" yMax="1780">
      <component glyphName="a" x="0" y="0" flags="0x204"/>
      <component glyphName="uni030A0301" x="-29" y="0" flags="0x4"/>
    </TTGlyph>
    <TTGlyph name="aringacute.sc" xMin="43" yMin="0" xMax="1164" yMax="1801">
      <component glyphName="a.sc" x="0" y="0" flags="0x204"/>
      <component glyphName="uni030A0301.case.sc" x="51" y="-290" flags="0x4"/>
    </TTGlyph>
    <TTGlyph name="arrowdown" xMin="174" yMin="171" xMax="1229" yMax="1351">
      <contour>
        <pt x="701" y="171" on="1"/>
        <pt x="174" y="699" on="1"/>
        <pt x="228" y="752" on="1"/>
        <pt x="659" y="321" on="1"/>
        <pt x="659" y="1351" on="1"/>
        <pt x="743" y="1351" on="1"/>
        <pt x="743" y="321" on="1"/>
        <pt x="1175" y="752" on="1"/>
        <pt x="1229" y="699" on="1"/>
      </contour>
    </TTGlyph>
    <TTGlyph name="arrowleft" xMin="174" yMin="233" xMax="1353" yMax="1287">
      <contour>
        <pt x="701" y="233" on="1"/>
        <pt x="174" y="760" on="1"/>
        <pt x="701" y="1287" on="1"/>
        <pt x="755" y="1234" on="1"/>
        <pt x="323" y="802" on="1"/>
        <pt x="1353" y="802" on="1"/>
        <pt x="1353" y="718" on="1"/>
        <pt x="323" y="718" on="1"/>
        <pt x="755" y="286" on="1"/>
      </contour>
    </TTGlyph>
    <TTGlyph name="arrowright" xMin="174" yMin="233" xMax="1353" yMax="1287">
      <contour>
        <pt x="826" y="233" on="1"/>
        <pt x="772" y="286" on="1"/>
        <pt x="1204" y="718" on="1"/>
        <pt x="174" y="718" on="1"/>
        <pt x="174" y="802" on="1"/>
        <pt x="1204" y="802" on="1"/>
        <pt x="772" y="1234" on="1"/>
        <pt x="826" y="1287" on="1"/>
        <pt x="1353" y="760" on="1"/>
      </contour>
    </TTGlyph>
    <TTGlyph name="arrowup" xMin="174" yMin="171" xMax="1229" yMax="1351">
      <contour>
        <pt x="659" y="171" on="1"/>
        <pt x="659" y="1201" on="1"/>
        <pt x="228" y="770" on="1"/>
        <pt x="174" y="823" on="1"/>
        <pt x="701" y="1351" on="1"/>
        <pt x="1229" y="823" on="1"/>
        <pt x="1175" y="770" on="1"/>
        <pt x="743" y="1201" on="1"/>
        <pt x="743" y="171" on="1"/>
      </contour>
    </TTGlyph>
    <TTGlyph name="asciicircum" xMin="109" yMin="740" xMax="1054" yMax="1480">
      <contour>
        <pt x="109" y="740" on="1"/>
        <pt x="524" y="1480" on="1"/>
        <pt x="638" y="1480" on="1"/>
        <pt x="1054" y="740" on="1"/>
        <pt x="953" y="740" on="1"/>
        <pt x="582" y="1408" on="1"/>
        <pt x="211" y="740" on="1"/>
      </contour>
    </TTGlyph>
    <TTGlyph name="asciicircum.osf" xMin="109" yMin="341" xMax="1054" yMax="1081">
      <contour>
        <pt x="109" y="341" on="1"/>
        <pt x="524" y="1081" on="1"/>
        <pt x="638" y="1081" on="1"/>
        <pt x="1054" y="341" on="1"/>
        <pt x="953" y="341" on="1"/>
        <pt x="582" y="1009" on="1"/>
        <pt x="211" y="341" on="1"/>
      </contour>
    </TTGlyph>
    <TTGlyph name="asciicircum.tf" xMin="109" yMin="740" xMax="1054" yMax="1480">
      <contour>
        <pt x="109" y="740" on="1"/>
        <pt x="524" y="1480" on="1"/>
        <pt x="638" y="1480" on="1"/>
        <pt x="1054" y="740" on="1"/>
        <pt x="953" y="740" on="1"/>
        <pt x="582" y="1408" on="1"/>
        <pt x="211" y="740" on="1"/>
      </contour>
    </TTGlyph>
    <TTGlyph name="asciicircum.tosf" xMin="109" yMin="341" xMax="1054" yMax="1081">
      <contour>
        <pt x="109" y="341" on="1"/>
        <pt x="524" y="1081" on="1"/>
        <pt x="638" y="1081" on="1"/>
        <pt x="1054" y="341" on="1"/>
        <pt x="953" y="341" on="1"/>
        <pt x="582" y="1009" on="1"/>
        <pt x="211" y="341" on="1"/>
      </contour>
    </TTGlyph>
    <TTGlyph name="asciitilde" xMin="174" yMin="656" xMax="915" yMax="852">
      <contour>
        <pt x="719" y="656" on="1"/>
        <pt x="652" y="656" on="0"/>
        <pt x="534" y="714" on="0"/>
        <pt x="425" y="773" on="0"/>
        <pt x="372" y="773" on="1"/>
        <pt x="257" y="773" on="0"/>
        <pt x="174" y="664" on="1"/>
        <pt x="174" y="762" on="1"/>
        <pt x="244" y="852" on="0"/>
        <pt x="370" y="852" on="1"/>
        <pt x="437" y="852" on="0"/>
        <pt x="556" y="794" on="0"/>
        <pt x="664" y="736" on="0"/>
        <pt x="717" y="736" on="1"/>
        <pt x="832" y="736" on="0"/>
        <pt x="915" y="844" on="1"/>
        <pt x="915" y="747" on="1"/>
        <pt x="845" y="656" on="0"/>
      </contour>
    </TTGlyph>
    <TTGlyph name="asciitilde.osf" xMin="174" yMin="456" xMax="915" yMax="652">
      <contour>
        <pt x="719" y="456" on="1"/>
        <pt x="652" y="456" on="0"/>
        <pt x="534" y="514" on="0"/>
        <pt x="425" y="573" on="0"/>
        <pt x="372" y="573" on="1"/>
        <pt x="257" y="573" on="0"/>
        <pt x="174" y="464" on="1"/>
        <pt x="174" y="562" on="1"/>
        <pt x="244" y="652" on="0"/>
        <pt x="370" y="652" on="1"/>
        <pt x="437" y="652" on="0"/>
        <pt x="556" y="594" on="0"/>
        <pt x="664" y="536" on="0"/>
        <pt x="717" y="536" on="1"/>
        <pt x="832" y="536" on="0"/>
        <pt x="915" y="644" on="1"/>
        <pt x="915" y="547" on="1"/>
        <pt x="845" y="456" on="0"/>
      </contour>
    </TTGlyph>
    <TTGlyph name="asciitilde.tf" xMin="211" yMin="656" xMax="953" yMax="852">
      <contour>
        <pt x="756" y="656" on="1"/>
        <pt x="689" y="656" on="0"/>
        <pt x="571" y="714" on="0"/>
        <pt x="462" y="773" on="0"/>
        <pt x="409" y="773" on="1"/>
        <pt x="295" y="773" on="0"/>
        <pt x="211" y="664" on="1"/>
        <pt x="211" y="762" on="1"/>
        <pt x="282" y="852" on="0"/>
        <pt x="408" y="852" on="1"/>
        <pt x="475" y="852" on="0"/>
        <pt x="593" y="794" on="0"/>
        <pt x="702" y="736" on="0"/>
        <pt x="755" y="736" on="1"/>
        <pt x="869" y="736" on="0"/>
        <pt x="953" y="844" on="1"/>
        <pt x="953" y="747" on="1"/>
        <pt x="882" y="656" on="0"/>
      </contour>
    </TTGlyph>
    <TTGlyph name="asciitilde.tosf" xMin="211" yMin="456" xMax="953" yMax="652">
      <contour>
        <pt x="756" y="456" on="1"/>
        <pt x="689" y="456" on="0"/>
        <pt x="571" y="514" on="0"/>
        <pt x="462" y="573" on="0"/>
        <pt x="409" y="573" on="1"/>
        <pt x="295" y="573" on="0"/>
        <pt x="211" y="464" on="1"/>
        <pt x="211" y="562" on="1"/>
        <pt x="282" y="652" on="0"/>
        <pt x="408" y="652" on="1"/>
        <pt x="475" y="652" on="0"/>
        <pt x="593" y="594" on="0"/>
        <pt x="702" y="536" on="0"/>
        <pt x="755" y="536" on="1"/>
        <pt x="869" y="536" on="0"/>
        <pt x="953" y="644" on="1"/>
        <pt x="953" y="547" on="1"/>
        <pt x="882" y="456" on="0"/>
      </contour>
    </TTGlyph>
    <TTGlyph name="asterisk" xMin="30" yMin="852" xMax="870" yMax="1616">
      <contour>
        <pt x="485" y="1199" on="1"/>
        <pt x="617" y="1045" on="1"/>
        <pt x="726" y="898" on="1"/>
        <pt x="664" y="852" on="1"/>
        <pt x="554" y="1000" on="1"/>
        <pt x="450" y="1175" on="1"/>
        <pt x="346" y="1000" on="1"/>
        <pt x="237" y="852" on="1"/>
        <pt x="174" y="898" on="1"/>
        <pt x="283" y="1045" on="1"/>
        <pt x="416" y="1199" on="1"/>
        <pt x="219" y="1245" on="1"/>
        <pt x="30" y="1306" on="1"/>
        <pt x="54" y="1378" on="1"/>
        <pt x="241" y="1318" on="1"/>
        <pt x="429" y="1238" on="1"/>
        <pt x="412" y="1441" on="1"/>
        <pt x="412" y="1616" on="1"/>
        <pt x="489" y="1616" on="1"/>
        <pt x="489" y="1441" on="1"/>
        <pt x="471" y="1238" on="1"/>
        <pt x="659" y="1318" on="1"/>
        <pt x="846" y="1378" on="1"/>
        <pt x="870" y="1306" on="1"/>
        <pt x="681" y="1245" on="1"/>
      </contour>
    </TTGlyph>
    <TTGlyph name="at" xMin="125" yMin="-460" xMax="1848" yMax="1498">
      <contour>
        <pt x="1037" y="-460" on="1"/>
        <pt x="590" y="-459" on="0"/>
        <pt x="125" y="21" on="0"/>
        <pt x="125" y="520" on="1"/>
        <pt x="125" y="1015" on="0"/>
        <pt x="577" y="1498" on="0"/>
        <pt x="992" y="1498" on="1"/>
        <pt x="1407" y="1498" on="0"/>
        <pt x="1848" y="1026" on="0"/>
        <pt x="1847" y="562" on="1"/>
        <pt x="1846" y="355" on="0"/>
        <pt x="1756" y="100" on="0"/>
        <pt x="1605" y="-16" on="0"/>
        <pt x="1512" y="-16" on="1"/>
        <pt x="1422" y="-16" on="0"/>
        <pt x="1315" y="62" on="0"/>
        <pt x="1297" y="128" on="1"/>
        <pt x="1286" y="128" on="1"/>
        <pt x="1227" y="62" on="0"/>
        <pt x="1040" y="-16" on="0"/>
        <pt x="934" y="-16" on="1"/>
        <pt x="778" y="-16" on="0"/>
        <pt x="600" y="134" on="0"/>
        <pt x="600" y="270" on="1"/>
        <pt x="600" y="405" on="0"/>
        <pt x="778" y="555" on="0"/>
        <pt x="970" y="577" on="1"/>
        <pt x="1286" y="616" on="1"/>
        <pt x="1286" y="734" on="1"/>
        <pt x="1286" y="846" on="0"/>
        <pt x="1214" y="967" on="0"/>
        <pt x="1076" y="1015" on="0"/>
        <pt x="978" y="1015" on="1"/>
        <pt x="914" y="1015" on="0"/>
        <pt x="753" y="990" on="0"/>
        <pt x="671" y="961" on="1"/>
        <pt x="671" y="1044" on="1"/>
        <pt x="738" y="1070" on="0"/>
        <pt x="906" y="1096" on="0"/>
        <pt x="982" y="1096" on="1"/>
        <pt x="1107" y="1096" on="0"/>
        <pt x="1283" y="1030" on="0"/>
        <pt x="1376" y="872" on="0"/>
        <pt x="1376" y="734" on="1"/>
        <pt x="1376" y="243" on="1"/>
        <pt x="1376" y="142" on="0"/>
        <pt x="1450" y="60" on="0"/>
        <pt x="1522" y="60" on="1"/>
        <pt x="1587" y="60" on="0"/>
        <pt x="1698" y="157" on="0"/>
        <pt x="1766" y="375" on="0"/>
        <pt x="1765" y="556" on="1"/>
        <pt x="1765" y="997" on="0"/>
        <pt x="1370" y="1420" on="0"/>
        <pt x="992" y="1420" on="1"/>
        <pt x="612" y="1420" on="0"/>
        <pt x="212" y="984" on="0"/>
        <pt x="212" y="524" on="1"/>
        <pt x="212" y="52" on="0"/>
        <pt x="626" y="-382" on="0"/>
        <pt x="1037" y="-382" on="1"/>
        <pt x="1138" y="-382" on="0"/>
        <pt x="1330" y="-353" on="0"/>
        <pt x="1434" y="-324" on="1"/>
        <pt x="1434" y="-404" on="1"/>
        <pt x="1345" y="-430" on="0"/>
        <pt x="1141" y="-460" on="0"/>
      </contour>
      <contour>
        <pt x="696" y="277" on="1"/>
        <pt x="696" y="175" on="0"/>
        <pt x="819" y="64" on="0"/>
        <pt x="944" y="64" on="1"/>
        <pt x="1037" y="64" on="0"/>
        <pt x="1216" y="141" on="0"/>
        <pt x="1286" y="224" on="1"/>
        <pt x="1286" y="541" on="1"/>
        <pt x="972" y="502" on="1"/>
        <pt x="827" y="485" on="0"/>
        <pt x="696" y="376" on="0"/>
      </contour>
    </TTGlyph>
    <TTGlyph name="atilde" xMin="117" yMin="-16" xMax="893" yMax="1518">
      <component glyphName="a" x="0" y="0" flags="0x204"/>
      <component glyphName="tildecomb" x="-29" y="0" flags="0x4"/>
    </TTGlyph>
    <TTGlyph name="atilde.sc" xMin="43" yMin="0" xMax="1164" yMax="1544">
      <component glyphName="a.sc" x="0" y="0" flags="0x204"/>
      <component glyphName="tildecomb.sc" x="51" y="-290" flags="0x4"/>
    </TTGlyph>
    <TTGlyph name="b" xMin="178" yMin="-18" xMax="1050" yMax="1616">
      <contour>
        <pt x="503" y="-18" on="1"/>
        <pt x="334" y="-18" on="0"/>
        <pt x="178" y="28" on="1"/>
        <pt x="178" y="1616" on="1"/>
        <pt x="269" y="1616" on="1"/>
        <pt x="269" y="961" on="1"/>
        <pt x="276" y="961" on="1"/>
        <pt x="333" y="1022" on="0"/>
        <pt x="504" y="1097" on="0"/>
        <pt x="612" y="1097" on="1"/>
        <pt x="734" y="1097" on="0"/>
        <pt x="932" y="993" on="0"/>
        <pt x="1050" y="758" on="0"/>
        <pt x="1050" y="561" on="1"/>
        <pt x="1050" y="267" on="0"/>
        <pt x="771" y="-18" on="0"/>
      </contour>
      <contour>
        <pt x="511" y="64" on="1"/>
        <pt x="730" y="64" on="0"/>
        <pt x="955" y="297" on="0"/>
        <pt x="955" y="552" on="1"/>
        <pt x="955" y="728" on="0"/>
        <pt x="861" y="930" on="0"/>
        <pt x="699" y="1014" on="0"/>
        <pt x="598" y="1014" on="1"/>
        <pt x="505" y="1014" on="0"/>
        <pt x="331" y="940" on="0"/>
        <pt x="269" y="858" on="1"/>
        <pt x="269" y="96" on="1"/>
        <pt x="316" y="82" on="0"/>
        <pt x="440" y="64" on="0"/>
      </contour>
    </TTGlyph>
    <TTGlyph name="b.sc" xMin="200" yMin="-9" xMax="1069" yMax="1202">
      <contour>
        <pt x="519" y="-9" on="1"/>
        <pt x="438" y="-9" on="0"/>
        <pt x="288" y="-1" on="0"/>
        <pt x="200" y="10" on="1"/>
        <pt x="200" y="1169" on="1"/>
        <pt x="364" y="1202" on="0"/>
        <pt x="550" y="1202" on="1"/>
        <pt x="804" y="1202" on="0"/>
        <pt x="1032" y="1044" on="0"/>
        <pt x="1032" y="888" on="1"/>
        <pt x="1032" y="791" on="0"/>
        <pt x="924" y="642" on="0"/>
        <pt x="800" y="616" on="1"/>
        <pt x="934" y="593" on="0"/>
        <pt x="1069" y="441" on="0"/>
        <pt x="1069" y="322" on="1"/>
        <pt x="1069" y="161" on="0"/>
        <pt x="818" y="-9" on="0"/>
      </contour>
      <contour>
        <pt x="554" y="1127" on="1"/>
        <pt x="404" y="1127" on="0"/>
        <pt x="290" y="1107" on="1"/>
        <pt x="290" y="650" on="1"/>
        <pt x="593" y="650" on="1"/>
        <pt x="788" y="650" on="0"/>
        <pt x="944" y="774" on="0"/>
        <pt x="944" y="884" on="1"/>
        <pt x="944" y="1013" on="0"/>
        <pt x="763" y="1127" on="0"/>
      </contour>
      <contour>
        <pt x="529" y="65" on="1"/>
        <pt x="700" y="65" on="0"/>
        <pt x="897" y="124" on="0"/>
        <pt x="980" y="240" on="0"/>
        <pt x="980" y="326" on="1"/>
        <pt x="980" y="449" on="0"/>
        <pt x="807" y="574" on="0"/>
        <pt x="612" y="574" on="1"/>
        <pt x="290" y="574" on="1"/>
        <pt x="290" y="80" on="1"/>
        <pt x="345" y="73" on="0"/>
        <pt x="459" y="65" on="0"/>
      </contour>
    </TTGlyph>
    <TTGlyph name="backslash" xMin="0" yMin="-240" xMax="597" yMax="1616">
      <contour>
        <pt x="503" y="-240" on="1"/>
        <pt x="0" y="1616" on="1"/>
        <pt x="94" y="1616" on="1"/>
        <pt x="597" y="-240" on="1"/>
      </contour>
    </TTGlyph>
    <TTGlyph name="bar" xMin="198" yMin="-440" xMax="286" yMax="1616">
      <contour>
        <pt x="198" y="-440" on="1"/>
        <pt x="198" y="1616" on="1"/>
        <pt x="286" y="1616" on="1"/>
        <pt x="286" y="-440" on="1"/>
      </contour>
    </TTGlyph>
    <TTGlyph name="bar.tf" xMin="538" yMin="-440" xMax="626" yMax="1616">
      <contour>
        <pt x="538" y="-440" on="1"/>
        <pt x="538" y="1616" on="1"/>
        <pt x="626" y="1616" on="1"/>
        <pt x="626" y="-440" on="1"/>
      </contour>
    </TTGlyph>
    <TTGlyph name="braceleft" xMin="50" yMin="-460" xMax="753" yMax="1636">
      <contour>
        <pt x="628" y="-460" on="1"/>
        <pt x="258" y="-460" on="0"/>
        <pt x="258" y="-108" on="1"/>
        <pt x="258" y="396" on="1"/>
        <pt x="258" y="495" on="0"/>
        <pt x="166" y="582" on="0"/>
        <pt x="74" y="582" on="1"/>
        <pt x="50" y="582" on="1"/>
        <pt x="50" y="663" on="1"/>
        <pt x="74" y="663" on="1"/>
        <pt x="166" y="663" on="0"/>
        <pt x="258" y="750" on="0"/>
        <pt x="258" y="849" on="1"/>
        <pt x="258" y="1284" on="1"/>
        <pt x="258" y="1636" on="0"/>
        <pt x="628" y="1636" on="1"/>
        <pt x="700" y="1636" on="0"/>
        <pt x="753" y="1626" on="1"/>
        <pt x="753" y="1553" on="1"/>
        <pt x="629" y="1553" on="1"/>
        <pt x="489" y="1553" on="0"/>
        <pt x="349" y="1430" on="0"/>
        <pt x="349" y="1289" on="1"/>
        <pt x="349" y="863" on="1"/>
        <pt x="349" y="761" on="0"/>
        <pt x="283" y="645" on="0"/>
        <pt x="214" y="623" on="1"/>
        <pt x="283" y="600" on="0"/>
        <pt x="349" y="485" on="0"/>
        <pt x="349" y="382" on="1"/>
        <pt x="349" y="-113" on="1"/>
        <pt x="349" y="-254" on="0"/>
        <pt x="489" y="-377" on="0"/>
        <pt x="629" y="-377" on="1"/>
        <pt x="753" y="-377" on="1"/>
        <pt x="753" y="-450" on="1"/>
        <pt x="700" y="-460" on="0"/>
      </contour>
    </TTGlyph>
    <TTGlyph name="braceleft.sc" xMin="50" yMin="-260" xMax="720" yMax="1500">
      <contour>
        <pt x="595" y="-260" on="1"/>
        <pt x="436" y="-260" on="0"/>
        <pt x="258" y="-92" on="0"/>
        <pt x="258" y="66" on="1"/>
        <pt x="258" y="424" on="1"/>
        <pt x="258" y="524" on="0"/>
        <pt x="166" y="610" on="0"/>
        <pt x="74" y="610" on="1"/>
        <pt x="50" y="610" on="1"/>
        <pt x="50" y="691" on="1"/>
        <pt x="74" y="691" on="1"/>
        <pt x="166" y="691" on="0"/>
        <pt x="258" y="778" on="0"/>
        <pt x="258" y="878" on="1"/>
        <pt x="258" y="1174" on="1"/>
        <pt x="258" y="1332" on="0"/>
        <pt x="436" y="1500" on="0"/>
        <pt x="595" y="1500" on="1"/>
        <pt x="667" y="1500" on="0"/>
        <pt x="720" y="1490" on="1"/>
        <pt x="720" y="1417" on="1"/>
        <pt x="596" y="1417" on="1"/>
        <pt x="480" y="1417" on="0"/>
        <pt x="348" y="1301" on="0"/>
        <pt x="348" y="1179" on="1"/>
        <pt x="348" y="891" on="1"/>
        <pt x="348" y="789" on="0"/>
        <pt x="283" y="673" on="0"/>
        <pt x="213" y="651" on="1"/>
        <pt x="283" y="628" on="0"/>
        <pt x="348" y="513" on="0"/>
        <pt x="348" y="410" on="1"/>
        <pt x="348" y="61" on="1"/>
        <pt x="348" y="-61" on="0"/>
        <pt x="480" y="-177" on="0"/>
        <pt x="596" y="-177" on="1"/>
        <pt x="720" y="-177" on="1"/>
        <pt x="720" y="-250" on="1"/>
        <pt x="667" y="-260" on="0"/>
      </contour>
    </TTGlyph>
    <TTGlyph name="braceright" xMin="-39" yMin="-460" xMax="664" yMax="1636">
      <contour>
        <pt x="86" y="-460" on="1"/>
        <pt x="14" y="-460" on="0"/>
        <pt x="-39" y="-450" on="1"/>
        <pt x="-39" y="-377" on="1"/>
        <pt x="85" y="-377" on="1"/>
        <pt x="225" y="-377" on="0"/>
        <pt x="365" y="-254" on="0"/>
        <pt x="365" y="-113" on="1"/>
        <pt x="365" y="382" on="1"/>
        <pt x="365" y="485" on="0"/>
        <pt x="431" y="600" on="0"/>
        <pt x="500" y="623" on="1"/>
        <pt x="431" y="645" on="0"/>
        <pt x="365" y="761" on="0"/>
        <pt x="365" y="863" on="1"/>
        <pt x="365" y="1289" on="1"/>
        <pt x="365" y="1430" on="0"/>
        <pt x="225" y="1553" on="0"/>
        <pt x="85" y="1553" on="1"/>
        <pt x="-39" y="1553" on="1"/>
        <pt x="-39" y="1626" on="1"/>
        <pt x="14" y="1636" on="0"/>
        <pt x="86" y="1636" on="1"/>
        <pt x="456" y="1636" on="0"/>
        <pt x="456" y="1284" on="1"/>
        <pt x="456" y="849" on="1"/>
        <pt x="456" y="750" on="0"/>
        <pt x="548" y="663" on="0"/>
        <pt x="640" y="663" on="1"/>
        <pt x="664" y="663" on="1"/>
        <pt x="664" y="582" on="1"/>
        <pt x="640" y="582" on="1"/>
        <pt x="548" y="582" on="0"/>
        <pt x="456" y="495" on="0"/>
        <pt x="456" y="396" on="1"/>
        <pt x="456" y="-108" on="1"/>
        <pt x="456" y="-460" on="0"/>
      </contour>
    </TTGlyph>
    <TTGlyph name="braceright.sc" xMin="-39" yMin="-260" xMax="631" yMax="1500">
      <contour>
        <pt x="86" y="-260" on="1"/>
        <pt x="14" y="-260" on="0"/>
        <pt x="-39" y="-250" on="1"/>
        <pt x="-39" y="-177" on="1"/>
        <pt x="85" y="-177" on="1"/>
        <pt x="201" y="-177" on="0"/>
        <pt x="333" y="-61" on="0"/>
        <pt x="333" y="61" on="1"/>
        <pt x="333" y="410" on="1"/>
        <pt x="333" y="513" on="0"/>
        <pt x="398" y="628" on="0"/>
        <pt x="467" y="651" on="1"/>
        <pt x="398" y="673" on="0"/>
        <pt x="333" y="789" on="0"/>
        <pt x="333" y="891" on="1"/>
        <pt x="333" y="1179" on="1"/>
        <pt x="333" y="1301" on="0"/>
        <pt x="201" y="1417" on="0"/>
        <pt x="85" y="1417" on="1"/>
        <pt x="-39" y="1417" on="1"/>
        <pt x="-39" y="1490" on="1"/>
        <pt x="14" y="1500" on="0"/>
        <pt x="86" y="1500" on="1"/>
        <pt x="245" y="1500" on="0"/>
        <pt x="423" y="1332" on="0"/>
        <pt x="423" y="1174" on="1"/>
        <pt x="423" y="878" on="1"/>
        <pt x="423" y="778" on="0"/>
        <pt x="515" y="691" on="0"/>
        <pt x="607" y="691" on="1"/>
        <pt x="631" y="691" on="1"/>
        <pt x="631" y="610" on="1"/>
        <pt x="607" y="610" on="1"/>
        <pt x="515" y="610" on="0"/>
        <pt x="423" y="524" on="0"/>
        <pt x="423" y="424" on="1"/>
        <pt x="423" y="66" on="1"/>
        <pt x="423" y="-92" on="0"/>
        <pt x="245" y="-260" on="0"/>
      </contour>
    </TTGlyph>
    <TTGlyph name="bracketleft" xMin="218" yMin="-440" xMax="713" yMax="1616">
      <contour>
        <pt x="218" y="-440" on="1"/>
        <pt x="218" y="1616" on="1"/>
        <pt x="713" y="1616" on="1"/>
        <pt x="713" y="1535" on="1"/>
        <pt x="309" y="1535" on="1"/>
        <pt x="309" y="-359" on="1"/>
        <pt x="712" y="-359" on="1"/>
        <pt x="712" y="-440" on="1"/>
      </contour>
    </TTGlyph>
    <TTGlyph name="bracketleft.sc" xMin="218" yMin="-254" xMax="626" yMax="1494">
      <contour>
        <pt x="218" y="-254" on="1"/>
        <pt x="218" y="1494" on="1"/>
        <pt x="626" y="1494" on="1"/>
        <pt x="626" y="1413" on="1"/>
        <pt x="308" y="1413" on="1"/>
        <pt x="308" y="-173" on="1"/>
        <pt x="625" y="-173" on="1"/>
        <pt x="625" y="-254" on="1"/>
      </contour>
    </TTGlyph>
    <TTGlyph name="bracketright" xMin="-39" yMin="-440" xMax="456" yMax="1616">
      <contour>
        <pt x="-38" y="-440" on="1"/>
        <pt x="-38" y="-359" on="1"/>
        <pt x="365" y="-359" on="1"/>
        <pt x="365" y="1535" on="1"/>
        <pt x="-39" y="1535" on="1"/>
        <pt x="-39" y="1616" on="1"/>
        <pt x="456" y="1616" on="1"/>
        <pt x="456" y="-440" on="1"/>
      </contour>
    </TTGlyph>
    <TTGlyph name="bracketright.sc" xMin="-39" yMin="-240" xMax="369" yMax="1480">
      <contour>
        <pt x="-38" y="-240" on="1"/>
        <pt x="-38" y="-159" on="1"/>
        <pt x="279" y="-159" on="1"/>
        <pt x="279" y="1399" on="1"/>
        <pt x="-39" y="1399" on="1"/>
        <pt x="-39" y="1480" on="1"/>
        <pt x="369" y="1480" on="1"/>
        <pt x="369" y="-240" on="1"/>
      </contour>
    </TTGlyph>
    <TTGlyph name="breve" xMin="262" yMin="1273" xMax="844" yMax="1588">
      <component glyphName="uni0306" x="0" y="0" flags="0x4"/>
    </TTGlyph>
    <TTGlyph name="brokenbar" xMin="198" yMin="-440" xMax="286" yMax="1616">
      <contour>
        <pt x="198" y="836" on="1"/>
        <pt x="198" y="1616" on="1"/>
        <pt x="286" y="1616" on="1"/>
        <pt x="286" y="836" on="1"/>
      </contour>
      <contour>
        <pt x="198" y="-440" on="1"/>
        <pt x="198" y="340" on="1"/>
        <pt x="286" y="340" on="1"/>
        <pt x="286" y="-440" on="1"/>
      </contour>
    </TTGlyph>
    <TTGlyph name="brokenbar.tf" xMin="538" yMin="-440" xMax="626" yMax="1616">
      <contour>
        <pt x="538" y="836" on="1"/>
        <pt x="538" y="1616" on="1"/>
        <pt x="626" y="1616" on="1"/>
        <pt x="626" y="836" on="1"/>
      </contour>
      <contour>
        <pt x="538" y="-440" on="1"/>
        <pt x="538" y="340" on="1"/>
        <pt x="626" y="340" on="1"/>
        <pt x="626" y="-440" on="1"/>
      </contour>
    </TTGlyph>
    <TTGlyph name="bullet" xMin="146" yMin="350" xMax="565" yMax="770">
      <contour>
        <pt x="356" y="350" on="1"/>
        <pt x="268" y="350" on="0"/>
        <pt x="146" y="469" on="0"/>
        <pt x="146" y="560" on="1"/>
        <pt x="146" y="651" on="0"/>
        <pt x="268" y="770" on="0"/>
        <pt x="356" y="770" on="1"/>
        <pt x="444" y="770" on="0"/>
        <pt x="565" y="651" on="0"/>
        <pt x="565" y="560" on="1"/>
        <pt x="565" y="469" on="0"/>
        <pt x="444" y="350" on="0"/>
      </contour>
    </TTGlyph>
    <TTGlyph name="c" xMin="114" yMin="-18" xMax="859" yMax="1097">
      <contour>
        <pt x="583" y="-18" on="1"/>
        <pt x="359" y="-18" on="0"/>
        <pt x="114" y="248" on="0"/>
        <pt x="114" y="540" on="1"/>
        <pt x="114" y="832" on="0"/>
        <pt x="378" y="1097" on="0"/>
        <pt x="626" y="1097" on="1"/>
        <pt x="685" y="1097" on="0"/>
        <pt x="805" y="1081" on="0"/>
        <pt x="859" y="1065" on="1"/>
        <pt x="859" y="981" on="1"/>
        <pt x="802" y="997" on="0"/>
        <pt x="689" y="1014" on="0"/>
        <pt x="630" y="1014" on="1"/>
        <pt x="421" y="1014" on="0"/>
        <pt x="210" y="799" on="0"/>
        <pt x="210" y="544" on="1"/>
        <pt x="210" y="284" on="0"/>
        <pt x="406" y="65" on="0"/>
        <pt x="592" y="65" on="1"/>
        <pt x="650" y="65" on="0"/>
        <pt x="780" y="89" on="0"/>
        <pt x="859" y="116" on="1"/>
        <pt x="859" y="32" on="1"/>
        <pt x="723" y="-18" on="0"/>
      </contour>
    </TTGlyph>
    <TTGlyph name="c.sc" xMin="109" yMin="-14" xMax="995" yMax="1204">
      <contour>
        <pt x="684" y="-14" on="1"/>
        <pt x="514" y="-14" on="0"/>
        <pt x="255" y="103" on="0"/>
        <pt x="109" y="369" on="0"/>
        <pt x="109" y="594" on="1"/>
        <pt x="109" y="808" on="0"/>
        <pt x="252" y="1077" on="0"/>
        <pt x="517" y="1204" on="0"/>
        <pt x="699" y="1204" on="1"/>
        <pt x="856" y="1204" on="0"/>
        <pt x="995" y="1166" on="1"/>
        <pt x="995" y="1082" on="1"/>
        <pt x="850" y="1121" on="0"/>
        <pt x="700" y="1121" on="1"/>
        <pt x="463" y="1121" on="0"/>
        <pt x="205" y="880" on="0"/>
        <pt x="205" y="596" on="1"/>
        <pt x="205" y="396" on="0"/>
        <pt x="324" y="166" on="0"/>
        <pt x="541" y="69" on="0"/>
        <pt x="688" y="69" on="1"/>
        <pt x="766" y="69" on="0"/>
        <pt x="909" y="91" on="0"/>
        <pt x="995" y="118" on="1"/>
        <pt x="995" y="34" on="1"/>
        <pt x="853" y="-14" on="0"/>
      </contour>
    </TTGlyph>
    <TTGlyph name="cacute" xMin="114" yMin="-18" xMax="859" yMax="1616">
      <component glyphName="c" x="0" y="0" flags="0x204"/>
      <component glyphName="acutecomb" x="-12" y="0" flags="0x4"/>
    </TTGlyph>
    <TTGlyph name="cacute.sc" xMin="109" yMin="-14" xMax="995" yMax="1599">
      <component glyphName="c.sc" x="0" y="0" flags="0x204"/>
      <component glyphName="acutecomb.sc" x="73" y="-290" flags="0x4"/>
    </TTGlyph>
    <TTGlyph name="caron" xMin="261" yMin="1261" xMax="845" yMax="1616">
      <component glyphName="uni030C" x="0" y="0" flags="0x4"/>
    </TTGlyph>
    <TTGlyph name="caron.alt" xMin="534" yMin="1180" xMax="630" yMax="1616">
      <component glyphName="uni030C.alt" x="0" y="0" flags="0x4"/>
    </TTGlyph>
    <TTGlyph name="ccaron" xMin="114" yMin="-18" xMax="859" yMax="1616">
      <component glyphName="c" x="0" y="0" flags="0x204"/>
      <component glyphName="uni030C" x="-12" y="0" flags="0x4"/>
    </TTGlyph>
    <TTGlyph name="ccaron.sc" xMin="109" yMin="-14" xMax="995" yMax="1599">
      <component glyphName="c.sc" x="0" y="0" flags="0x204"/>
      <component glyphName="uni030C.sc" x="73" y="-290" flags="0x4"/>
    </TTGlyph>
    <TTGlyph name="ccedilla" xMin="114" yMin="-404" xMax="859" yMax="1097">
      <component glyphName="c" x="0" y="0" flags="0x204"/>
      <component glyphName="uni0327" x="-15" y="0" flags="0x4"/>
    </TTGlyph>
    <TTGlyph name="ccedilla.sc" xMin="109" yMin="-404" xMax="995" yMax="1204">
      <component glyphName="c.sc" x="0" y="0" flags="0x204"/>
      <component glyphName="uni0327.sc" x="87" y="0" flags="0x4"/>
    </TTGlyph>
    <TTGlyph name="ccircumflex" xMin="114" yMin="-18" xMax="859" yMax="1616">
      <component glyphName="c" x="0" y="0" flags="0x204"/>
      <component glyphName="uni0302" x="-12" y="0" flags="0x4"/>
    </TTGlyph>
    <TTGlyph name="ccircumflex.sc" xMin="109" yMin="-14" xMax="995" yMax="1599">
      <component glyphName="c.sc" x="0" y="0" flags="0x204"/>
      <component glyphName="uni0302.sc" x="73" y="-290" flags="0x4"/>
    </TTGlyph>
    <TTGlyph name="cdotaccent" xMin="114" yMin="-18" xMax="859" yMax="1495">
      <component glyphName="c" x="0" y="0" flags="0x204"/>
      <component glyphName="uni0307" x="-12" y="0" flags="0x4"/>
    </TTGlyph>
    <TTGlyph name="cdotaccent.sc" xMin="109" yMin="-14" xMax="995" yMax="1533">
      <component glyphName="c.sc" x="0" y="0" flags="0x204"/>
      <component glyphName="uni0307.sc" x="73" y="-290" flags="0x4"/>
    </TTGlyph>
    <TTGlyph name="cedilla" xMin="387" yMin="-404" xMax="749" yMax="20">
      <component glyphName="uni0327" x="0" y="0" flags="0x4"/>
    </TTGlyph>
    <TTGlyph name="cent" xMin="114" yMin="-240" xMax="859" yMax="1321">
      <contour>
        <pt x="538" y="-240" on="1"/>
        <pt x="538" y="-17" on="1"/>
        <pt x="335" y="-5" on="0"/>
        <pt x="114" y="263" on="0"/>
        <pt x="114" y="540" on="1"/>
        <pt x="114" y="805" on="0"/>
        <pt x="331" y="1072" on="0"/>
        <pt x="538" y="1093" on="1"/>
        <pt x="538" y="1321" on="1"/>
        <pt x="621" y="1321" on="1"/>
        <pt x="621" y="1097" on="1"/>
        <pt x="627" y="1097" on="1"/>
        <pt x="745" y="1097" on="0"/>
        <pt x="859" y="1065" on="1"/>
        <pt x="859" y="981" on="1"/>
        <pt x="800" y="997" on="0"/>
        <pt x="688" y="1014" on="0"/>
        <pt x="628" y="1014" on="1"/>
        <pt x="416" y="1014" on="0"/>
        <pt x="210" y="799" on="0"/>
        <pt x="210" y="544" on="1"/>
        <pt x="210" y="284" on="0"/>
        <pt x="406" y="65" on="0"/>
        <pt x="592" y="65" on="1"/>
        <pt x="650" y="65" on="0"/>
        <pt x="780" y="89" on="0"/>
        <pt x="859" y="116" on="1"/>
        <pt x="859" y="32" on="1"/>
        <pt x="742" y="-11" on="0"/>
        <pt x="621" y="-17" on="1"/>
        <pt x="621" y="-240" on="1"/>
      </contour>
    </TTGlyph>
    <TTGlyph name="cent.tf" xMin="147" yMin="-240" xMax="1081" yMax="1302">
      <contour>
        <pt x="669" y="-240" on="1"/>
        <pt x="669" y="-17" on="1"/>
        <pt x="419" y="-3" on="0"/>
        <pt x="147" y="268" on="0"/>
        <pt x="147" y="540" on="1"/>
        <pt x="147" y="803" on="0"/>
        <pt x="417" y="1073" on="0"/>
        <pt x="669" y="1093" on="1"/>
        <pt x="669" y="1302" on="1"/>
        <pt x="752" y="1302" on="1"/>
        <pt x="752" y="1097" on="1"/>
        <pt x="760" y="1097" on="0"/>
        <pt x="769" y="1097" on="1"/>
        <pt x="859" y="1097" on="0"/>
        <pt x="1008" y="1079" on="0"/>
        <pt x="1081" y="1061" on="1"/>
        <pt x="1081" y="977" on="1"/>
        <pt x="1006" y="995" on="0"/>
        <pt x="861" y="1014" on="0"/>
        <pt x="777" y="1014" on="1"/>
        <pt x="511" y="1014" on="0"/>
        <pt x="242" y="793" on="0"/>
        <pt x="242" y="544" on="1"/>
        <pt x="242" y="290" on="0"/>
        <pt x="501" y="65" on="0"/>
        <pt x="735" y="65" on="1"/>
        <pt x="810" y="65" on="0"/>
        <pt x="979" y="90" on="0"/>
        <pt x="1081" y="120" on="1"/>
        <pt x="1081" y="35" on="1"/>
        <pt x="923" y="-15" on="0"/>
        <pt x="752" y="-18" on="1"/>
        <pt x="752" y="-240" on="1"/>
      </contour>
    </TTGlyph>
    <TTGlyph name="circumflex" xMin="266" yMin="1261" xMax="840" yMax="1616">
      <component glyphName="uni0302" x="0" y="0" flags="0x4"/>
    </TTGlyph>
    <TTGlyph name="colon" xMin="146" yMin="-11" xMax="297" yMax="1091">
      <component glyphName="period" x="0" y="0" flags="0x204"/>
      <component glyphName="period" x="0" y="953" flags="0x4"/>
    </TTGlyph>
    <TTGlyph name="colon.tf" xMin="216" yMin="-11" xMax="366" yMax="1092">
      <contour>
        <pt x="291" y="943" on="1"/>
        <pt x="258" y="943" on="0"/>
        <pt x="216" y="983" on="0"/>
        <pt x="216" y="1016" on="1"/>
        <pt x="216" y="1050" on="0"/>
        <pt x="258" y="1092" on="0"/>
        <pt x="291" y="1092" on="1"/>
        <pt x="324" y="1092" on="0"/>
        <pt x="366" y="1050" on="0"/>
        <pt x="366" y="1016" on="1"/>
        <pt x="366" y="983" on="0"/>
        <pt x="324" y="943" on="0"/>
      </contour>
      <contour>
        <pt x="291" y="-11" on="1"/>
        <pt x="258" y="-11" on="0"/>
        <pt x="216" y="29" on="0"/>
        <pt x="216" y="63" on="1"/>
        <pt x="216" y="97" on="0"/>
        <pt x="258" y="138" on="0"/>
        <pt x="291" y="138" on="1"/>
        <pt x="324" y="138" on="0"/>
        <pt x="366" y="97" on="0"/>
        <pt x="366" y="63" on="1"/>
        <pt x="366" y="29" on="0"/>
        <pt x="324" y="-11" on="0"/>
      </contour>
    </TTGlyph>
    <TTGlyph name="colonmonetary" xMin="125" yMin="-240" xMax="1153" yMax="1720">
      <contour>
        <pt x="789" y="-18" on="1"/>
        <pt x="671" y="-18" on="0"/>
        <pt x="575" y="5" on="1"/>
        <pt x="492" y="-240" on="1"/>
        <pt x="415" y="-240" on="1"/>
        <pt x="505" y="26" on="1"/>
        <pt x="405" y="62" on="0"/>
        <pt x="331" y="128" on="1"/>
        <pt x="207" y="-240" on="1"/>
        <pt x="130" y="-240" on="1"/>
        <pt x="274" y="189" on="1"/>
        <pt x="201" y="281" on="0"/>
        <pt x="125" y="552" on="0"/>
        <pt x="125" y="738" on="1"/>
        <pt x="125" y="1112" on="0"/>
        <pt x="438" y="1472" on="0"/>
        <pt x="714" y="1495" on="1"/>
        <pt x="790" y="1720" on="1"/>
        <pt x="867" y="1720" on="1"/>
        <pt x="792" y="1498" on="1"/>
        <pt x="797" y="1498" on="0"/>
        <pt x="803" y="1498" on="1"/>
        <pt x="904" y="1498" on="0"/>
        <pt x="996" y="1484" on="1"/>
        <pt x="1076" y="1720" on="1"/>
        <pt x="1153" y="1720" on="1"/>
        <pt x="1068" y="1470" on="1"/>
        <pt x="1110" y="1461" on="0"/>
        <pt x="1153" y="1449" on="1"/>
        <pt x="1153" y="1363" on="1"/>
        <pt x="1065" y="1389" on="0"/>
        <pt x="891" y="1414" on="0"/>
        <pt x="805" y="1414" on="1"/>
        <pt x="621" y="1414" on="0"/>
        <pt x="360" y="1282" on="0"/>
        <pt x="221" y="987" on="0"/>
        <pt x="221" y="742" on="1"/>
        <pt x="221" y="495" on="0"/>
        <pt x="356" y="198" on="0"/>
        <pt x="611" y="66" on="0"/>
        <pt x="792" y="66" on="1"/>
        <pt x="878" y="66" on="0"/>
        <pt x="1048" y="92" on="0"/>
        <pt x="1153" y="127" on="1"/>
        <pt x="1153" y="41" on="1"/>
        <pt x="1065" y="10" on="0"/>
        <pt x="885" y="-18" on="0"/>
      </contour>
    </TTGlyph>
    <TTGlyph name="colonmonetary.tf" xMin="119" yMin="-240" xMax="1120" yMax="1720">
      <contour>
        <pt x="124" y="-240" on="1"/>
        <pt x="265" y="192" on="1"/>
        <pt x="195" y="284" on="0"/>
        <pt x="119" y="554" on="0"/>
        <pt x="119" y="738" on="1"/>
        <pt x="119" y="987" on="0"/>
        <pt x="259" y="1310" on="0"/>
        <pt x="516" y="1479" on="0"/>
        <pt x="691" y="1494" on="1"/>
        <pt x="764" y="1720" on="1"/>
        <pt x="842" y="1720" on="1"/>
        <pt x="768" y="1498" on="1"/>
        <pt x="774" y="1498" on="0"/>
        <pt x="779" y="1498" on="1"/>
        <pt x="877" y="1498" on="0"/>
        <pt x="966" y="1484" on="1"/>
        <pt x="1043" y="1720" on="1"/>
        <pt x="1120" y="1720" on="1"/>
        <pt x="1038" y="1470" on="1"/>
        <pt x="1077" y="1461" on="0"/>
        <pt x="1120" y="1449" on="1"/>
        <pt x="1120" y="1363" on="1"/>
        <pt x="949" y="1414" on="0"/>
        <pt x="781" y="1414" on="1"/>
        <pt x="608" y="1414" on="0"/>
        <pt x="354" y="1282" on="0"/>
        <pt x="216" y="987" on="0"/>
        <pt x="216" y="742" on="1"/>
        <pt x="216" y="495" on="0"/>
        <pt x="350" y="198" on="0"/>
        <pt x="598" y="66" on="0"/>
        <pt x="768" y="66" on="1"/>
        <pt x="852" y="66" on="0"/>
        <pt x="1016" y="92" on="0"/>
        <pt x="1120" y="127" on="1"/>
        <pt x="1120" y="41" on="1"/>
        <pt x="1033" y="10" on="0"/>
        <pt x="859" y="-18" on="0"/>
        <pt x="765" y="-18" on="1"/>
        <pt x="653" y="-18" on="0"/>
        <pt x="560" y="5" on="1"/>
        <pt x="480" y="-240" on="1"/>
        <pt x="403" y="-240" on="1"/>
        <pt x="490" y="27" on="1"/>
        <pt x="394" y="64" on="0"/>
        <pt x="322" y="130" on="1"/>
        <pt x="201" y="-240" on="1"/>
      </contour>
    </TTGlyph>
    <TTGlyph name="comma" xMin="146" yMin="-304" xMax="296" yMax="138">
      <contour>
        <pt x="164" y="-304" on="1"/>
        <pt x="191" y="-223" on="0"/>
        <pt x="223" y="-82" on="0"/>
        <pt x="226" y="-11" on="1"/>
        <pt x="221" y="-11" on="1"/>
        <pt x="188" y="-11" on="0"/>
        <pt x="146" y="31" on="0"/>
        <pt x="146" y="65" on="1"/>
        <pt x="146" y="97" on="0"/>
        <pt x="186" y="138" on="0"/>
        <pt x="219" y="138" on="1"/>
        <pt x="254" y="138" on="0"/>
        <pt x="296" y="92" on="0"/>
        <pt x="296" y="40" on="1"/>
        <pt x="296" y="-56" on="0"/>
        <pt x="253" y="-231" on="0"/>
        <pt x="220" y="-304" on="1"/>
      </contour>
    </TTGlyph>
    <TTGlyph name="comma.tf" xMin="216" yMin="-275" xMax="366" yMax="138">
      <contour>
        <pt x="235" y="-275" on="1"/>
        <pt x="260" y="-206" on="0"/>
        <pt x="292" y="-73" on="0"/>
        <pt x="295" y="-11" on="1"/>
        <pt x="291" y="-11" on="1"/>
        <pt x="258" y="-11" on="0"/>
        <pt x="216" y="31" on="0"/>
        <pt x="216" y="65" on="1"/>
        <pt x="216" y="97" on="0"/>
        <pt x="256" y="138" on="0"/>
        <pt x="289" y="138" on="1"/>
        <pt x="324" y="138" on="0"/>
        <pt x="366" y="92" on="0"/>
        <pt x="366" y="40" on="1"/>
        <pt x="366" y="-45" on="0"/>
        <pt x="323" y="-213" on="0"/>
        <pt x="291" y="-275" on="1"/>
      </contour>
    </TTGlyph>
    <TTGlyph name="copyright" xMin="125" yMin="-22" xMax="1614" yMax="1502">
      <contour>
        <pt x="869" y="-22" on="1"/>
        <pt x="646" y="-22" on="0"/>
        <pt x="311" y="168" on="0"/>
        <pt x="125" y="511" on="0"/>
        <pt x="125" y="740" on="1"/>
        <pt x="125" y="969" on="0"/>
        <pt x="311" y="1312" on="0"/>
        <pt x="646" y="1502" on="0"/>
        <pt x="869" y="1502" on="1"/>
        <pt x="1092" y="1502" on="0"/>
        <pt x="1427" y="1312" on="0"/>
        <pt x="1614" y="969" on="0"/>
        <pt x="1614" y="740" on="1"/>
        <pt x="1614" y="511" on="0"/>
        <pt x="1427" y="168" on="0"/>
        <pt x="1092" y="-22" on="0"/>
      </contour>
      <contour>
        <pt x="869" y="55" on="1"/>
        <pt x="1070" y="55" on="0"/>
        <pt x="1370" y="225" on="0"/>
        <pt x="1536" y="533" on="0"/>
        <pt x="1536" y="740" on="1"/>
        <pt x="1536" y="947" on="0"/>
        <pt x="1370" y="1255" on="0"/>
        <pt x="1070" y="1425" on="0"/>
        <pt x="869" y="1425" on="1"/>
        <pt x="668" y="1425" on="0"/>
        <pt x="368" y="1255" on="0"/>
        <pt x="202" y="947" on="0"/>
        <pt x="202" y="740" on="1"/>
        <pt x="202" y="533" on="0"/>
        <pt x="368" y="225" on="0"/>
        <pt x="668" y="55" on="0"/>
      </contour>
      <contour>
        <pt x="905" y="324" on="1"/>
        <pt x="731" y="324" on="0"/>
        <pt x="518" y="531" on="0"/>
        <pt x="518" y="734" on="1"/>
        <pt x="518" y="930" on="0"/>
        <pt x="732" y="1144" on="0"/>
        <pt x="931" y="1144" on="1"/>
        <pt x="1033" y="1144" on="0"/>
        <pt x="1123" y="1116" on="1"/>
        <pt x="1123" y="1039" on="1"/>
        <pt x="1076" y="1052" on="0"/>
        <pt x="986" y="1066" on="0"/>
        <pt x="934" y="1066" on="1"/>
        <pt x="775" y="1066" on="0"/>
        <pt x="603" y="906" on="0"/>
        <pt x="603" y="738" on="1"/>
        <pt x="603" y="566" on="0"/>
        <pt x="770" y="402" on="0"/>
        <pt x="913" y="402" on="1"/>
        <pt x="956" y="402" on="0"/>
        <pt x="1061" y="419" on="0"/>
        <pt x="1123" y="442" on="1"/>
        <pt x="1123" y="365" on="1"/>
        <pt x="1072" y="343" on="0"/>
        <pt x="964" y="324" on="0"/>
      </contour>
    </TTGlyph>
    <TTGlyph name="currency" xMin="126" yMin="286" xMax="1038" yMax="1194">
      <contour>
        <pt x="193" y="286" on="1"/>
        <pt x="128" y="351" on="1"/>
        <pt x="230" y="449" on="1"/>
        <pt x="329" y="524" on="1"/>
        <pt x="265" y="612" on="0"/>
        <pt x="265" y="740" on="1"/>
        <pt x="265" y="867" on="0"/>
        <pt x="329" y="954" on="1"/>
        <pt x="230" y="1031" on="1"/>
        <pt x="126" y="1129" on="1"/>
        <pt x="191" y="1194" on="1"/>
        <pt x="289" y="1092" on="1"/>
        <pt x="366" y="994" on="1"/>
        <pt x="451" y="1072" on="0"/>
        <pt x="582" y="1072" on="1"/>
        <pt x="712" y="1072" on="0"/>
        <pt x="798" y="994" on="1"/>
        <pt x="875" y="1092" on="1"/>
        <pt x="973" y="1194" on="1"/>
        <pt x="1038" y="1129" on="1"/>
        <pt x="934" y="1031" on="1"/>
        <pt x="834" y="954" on="1"/>
        <pt x="899" y="867" on="0"/>
        <pt x="899" y="740" on="1"/>
        <pt x="899" y="612" on="0"/>
        <pt x="834" y="525" on="1"/>
        <pt x="934" y="449" on="1"/>
        <pt x="1036" y="351" on="1"/>
        <pt x="971" y="286" on="1"/>
        <pt x="873" y="388" on="1"/>
        <pt x="798" y="485" on="1"/>
        <pt x="713" y="406" on="0"/>
        <pt x="582" y="406" on="1"/>
        <pt x="451" y="406" on="0"/>
        <pt x="365" y="484" on="1"/>
        <pt x="291" y="388" on="1"/>
      </contour>
      <contour>
        <pt x="582" y="478" on="1"/>
        <pt x="691" y="478" on="0"/>
        <pt x="826" y="615" on="0"/>
        <pt x="826" y="740" on="1"/>
        <pt x="826" y="855" on="0"/>
        <pt x="701" y="1002" on="0"/>
        <pt x="584" y="1002" on="1"/>
        <pt x="474" y="1002" on="0"/>
        <pt x="338" y="864" on="0"/>
        <pt x="338" y="740" on="1"/>
        <pt x="338" y="616" on="0"/>
        <pt x="473" y="478" on="0"/>
      </contour>
    </TTGlyph>
    <TTGlyph name="currency.tf" xMin="126" yMin="286" xMax="1038" yMax="1194">
      <contour>
        <pt x="193" y="286" on="1"/>
        <pt x="128" y="351" on="1"/>
        <pt x="230" y="449" on="1"/>
        <pt x="329" y="524" on="1"/>
        <pt x="265" y="612" on="0"/>
        <pt x="265" y="740" on="1"/>
        <pt x="265" y="867" on="0"/>
        <pt x="329" y="954" on="1"/>
        <pt x="230" y="1031" on="1"/>
        <pt x="126" y="1129" on="1"/>
        <pt x="191" y="1194" on="1"/>
        <pt x="289" y="1092" on="1"/>
        <pt x="366" y="994" on="1"/>
        <pt x="451" y="1072" on="0"/>
        <pt x="582" y="1072" on="1"/>
        <pt x="712" y="1072" on="0"/>
        <pt x="798" y="994" on="1"/>
        <pt x="875" y="1092" on="1"/>
        <pt x="973" y="1194" on="1"/>
        <pt x="1038" y="1129" on="1"/>
        <pt x="934" y="1031" on="1"/>
        <pt x="834" y="954" on="1"/>
        <pt x="899" y="867" on="0"/>
        <pt x="899" y="740" on="1"/>
        <pt x="899" y="612" on="0"/>
        <pt x="834" y="525" on="1"/>
        <pt x="934" y="449" on="1"/>
        <pt x="1036" y="351" on="1"/>
        <pt x="971" y="286" on="1"/>
        <pt x="873" y="388" on="1"/>
        <pt x="798" y="485" on="1"/>
        <pt x="713" y="406" on="0"/>
        <pt x="582" y="406" on="1"/>
        <pt x="451" y="406" on="0"/>
        <pt x="365" y="484" on="1"/>
        <pt x="291" y="388" on="1"/>
      </contour>
      <contour>
        <pt x="582" y="478" on="1"/>
        <pt x="691" y="478" on="0"/>
        <pt x="826" y="615" on="0"/>
        <pt x="826" y="740" on="1"/>
        <pt x="826" y="855" on="0"/>
        <pt x="701" y="1002" on="0"/>
        <pt x="584" y="1002" on="1"/>
        <pt x="474" y="1002" on="0"/>
        <pt x="338" y="864" on="0"/>
        <pt x="338" y="740" on="1"/>
        <pt x="338" y="616" on="0"/>
        <pt x="473" y="478" on="0"/>
      </contour>
    </TTGlyph>
    <TTGlyph name="d" xMin="114" yMin="-18" xMax="986" yMax="1616">
      <contour>
        <pt x="561" y="-18" on="1"/>
        <pt x="433" y="-18" on="0"/>
        <pt x="231" y="90" on="0"/>
        <pt x="114" y="326" on="0"/>
        <pt x="114" y="519" on="1"/>
        <pt x="114" y="812" on="0"/>
        <pt x="396" y="1097" on="0"/>
        <pt x="669" y="1097" on="1"/>
        <pt x="729" y="1097" on="0"/>
        <pt x="847" y="1085" on="0"/>
        <pt x="895" y="1076" on="1"/>
        <pt x="895" y="1616" on="1"/>
        <pt x="986" y="1616" on="1"/>
        <pt x="986" y="0" on="1"/>
        <pt x="907" y="0" on="1"/>
        <pt x="900" y="125" on="1"/>
        <pt x="891" y="125" on="1"/>
        <pt x="835" y="60" on="0"/>
        <pt x="665" y="-18" on="0"/>
      </contour>
      <contour>
        <pt x="573" y="65" on="1"/>
        <pt x="662" y="65" on="0"/>
        <pt x="833" y="142" on="0"/>
        <pt x="895" y="231" on="1"/>
        <pt x="895" y="989" on="1"/>
        <pt x="794" y="1016" on="0"/>
        <pt x="667" y="1016" on="1"/>
        <pt x="438" y="1016" on="0"/>
        <pt x="209" y="783" on="0"/>
        <pt x="209" y="528" on="1"/>
        <pt x="209" y="354" on="0"/>
        <pt x="301" y="152" on="0"/>
        <pt x="464" y="65" on="0"/>
      </contour>
    </TTGlyph>
    <TTGlyph name="d.sc" xMin="200" yMin="-8" xMax="1176" yMax="1202">
      <contour>
        <pt x="507" y="-8" on="1"/>
        <pt x="432" y="-8" on="0"/>
        <pt x="280" y="0" on="0"/>
        <pt x="200" y="10" on="1"/>
        <pt x="200" y="1170" on="1"/>
        <pt x="279" y="1186" on="0"/>
        <pt x="453" y="1202" on="0"/>
        <pt x="531" y="1202" on="1"/>
        <pt x="848" y="1202" on="0"/>
        <pt x="1176" y="901" on="0"/>
        <pt x="1176" y="594" on="1"/>
        <pt x="1176" y="285" on="0"/>
        <pt x="837" y="-8" on="0"/>
      </contour>
      <contour>
        <pt x="523" y="72" on="1"/>
        <pt x="802" y="72" on="0"/>
        <pt x="1081" y="323" on="0"/>
        <pt x="1081" y="596" on="1"/>
        <pt x="1081" y="866" on="0"/>
        <pt x="807" y="1122" on="0"/>
        <pt x="531" y="1122" on="1"/>
        <pt x="469" y="1122" on="0"/>
        <pt x="340" y="1110" on="0"/>
        <pt x="291" y="1101" on="1"/>
        <pt x="291" y="85" on="1"/>
        <pt x="388" y="72" on="0"/>
      </contour>
    </TTGlyph>
    <TTGlyph name="dagger" xMin="89" yMin="160" xMax="916" yMax="1616">
      <contour>
        <pt x="475" y="160" on="1"/>
        <pt x="462" y="380" on="1"/>
        <pt x="462" y="995" on="1"/>
        <pt x="475" y="1212" on="1"/>
        <pt x="255" y="1199" on="1"/>
        <pt x="89" y="1199" on="1"/>
        <pt x="89" y="1276" on="1"/>
        <pt x="255" y="1276" on="1"/>
        <pt x="475" y="1263" on="1"/>
        <pt x="462" y="1480" on="1"/>
        <pt x="462" y="1616" on="1"/>
        <pt x="543" y="1616" on="1"/>
        <pt x="543" y="1480" on="1"/>
        <pt x="530" y="1263" on="1"/>
        <pt x="750" y="1276" on="1"/>
        <pt x="916" y="1276" on="1"/>
        <pt x="916" y="1199" on="1"/>
        <pt x="750" y="1199" on="1"/>
        <pt x="530" y="1212" on="1"/>
        <pt x="543" y="995" on="1"/>
        <pt x="543" y="380" on="1"/>
        <pt x="530" y="160" on="1"/>
      </contour>
    </TTGlyph>
    <TTGlyph name="daggerdbl" xMin="89" yMin="160" xMax="916" yMax="1616">
      <contour>
        <pt x="460" y="160" on="1"/>
        <pt x="460" y="296" on="1"/>
        <pt x="474" y="511" on="1"/>
        <pt x="199" y="500" on="1"/>
        <pt x="89" y="500" on="1"/>
        <pt x="89" y="577" on="1"/>
        <pt x="199" y="577" on="1"/>
        <pt x="474" y="566" on="1"/>
        <pt x="460" y="800" on="1"/>
        <pt x="460" y="995" on="1"/>
        <pt x="474" y="1210" on="1"/>
        <pt x="199" y="1199" on="1"/>
        <pt x="89" y="1199" on="1"/>
        <pt x="89" y="1276" on="1"/>
        <pt x="199" y="1276" on="1"/>
        <pt x="474" y="1265" on="1"/>
        <pt x="460" y="1480" on="1"/>
        <pt x="460" y="1616" on="1"/>
        <pt x="541" y="1616" on="1"/>
        <pt x="541" y="1480" on="1"/>
        <pt x="528" y="1265" on="1"/>
        <pt x="806" y="1276" on="1"/>
        <pt x="916" y="1276" on="1"/>
        <pt x="916" y="1199" on="1"/>
        <pt x="806" y="1199" on="1"/>
        <pt x="528" y="1210" on="1"/>
        <pt x="541" y="995" on="1"/>
        <pt x="541" y="800" on="1"/>
        <pt x="528" y="566" on="1"/>
        <pt x="806" y="577" on="1"/>
        <pt x="916" y="577" on="1"/>
        <pt x="916" y="500" on="1"/>
        <pt x="806" y="500" on="1"/>
        <pt x="528" y="511" on="1"/>
        <pt x="541" y="296" on="1"/>
        <pt x="541" y="160" on="1"/>
      </contour>
    </TTGlyph>
    <TTGlyph name="dcaron" xMin="114" yMin="-18" xMax="1191" yMax="1616">
      <component glyphName="d" x="0" y="0" flags="0x204"/>
      <component glyphName="uni030C.alt" x="561" y="0" flags="0x4"/>
    </TTGlyph>
    <TTGlyph name="dcaron.sc" xMin="200" yMin="-8" xMax="1176" yMax="1599">
      <component glyphName="d.sc" x="0" y="0" flags="0x204"/>
      <component glyphName="uni030C.sc" x="50" y="-290" flags="0x4"/>
    </TTGlyph>
    <TTGlyph name="dcroat" xMin="114" yMin="-18" xMax="1151" yMax="1616">
      <component glyphName="d" x="0" y="0" flags="0x204"/>
      <component glyphName="uni0335.d" x="361" y="275" flags="0x4"/>
    </TTGlyph>
    <TTGlyph name="dcroat.sc" xMin="7" yMin="-8" xMax="1176" yMax="1202">
      <component glyphName="eth.sc" x="0" y="0" flags="0x204"/>
    </TTGlyph>
    <TTGlyph name="degree" xMin="168" yMin="815" xMax="850" yMax="1496">
      <contour>
        <pt x="509" y="815" on="1"/>
        <pt x="410" y="815" on="0"/>
        <pt x="256" y="903" on="0"/>
        <pt x="168" y="1057" on="0"/>
        <pt x="168" y="1156" on="1"/>
        <pt x="168" y="1254" on="0"/>
        <pt x="256" y="1408" on="0"/>
        <pt x="410" y="1496" on="0"/>
        <pt x="509" y="1496" on="1"/>
        <pt x="609" y="1496" on="0"/>
        <pt x="763" y="1408" on="0"/>
        <pt x="850" y="1254" on="0"/>
        <pt x="850" y="1156" on="1"/>
        <pt x="850" y="1057" on="0"/>
        <pt x="763" y="903" on="0"/>
        <pt x="609" y="815" on="0"/>
      </contour>
      <contour>
        <pt x="509" y="890" on="1"/>
        <pt x="625" y="890" on="0"/>
        <pt x="772" y="1034" on="0"/>
        <pt x="772" y="1156" on="1"/>
        <pt x="772" y="1278" on="0"/>
        <pt x="624" y="1421" on="0"/>
        <pt x="509" y="1421" on="1"/>
        <pt x="394" y="1421" on="0"/>
        <pt x="247" y="1278" on="0"/>
        <pt x="247" y="1156" on="1"/>
        <pt x="247" y="1034" on="0"/>
        <pt x="394" y="890" on="0"/>
      </contour>
    </TTGlyph>
    <TTGlyph name="degree.tf" xMin="241" yMin="815" xMax="923" yMax="1496">
      <contour>
        <pt x="582" y="815" on="1"/>
        <pt x="482" y="815" on="0"/>
        <pt x="329" y="903" on="0"/>
        <pt x="241" y="1057" on="0"/>
        <pt x="241" y="1156" on="1"/>
        <pt x="241" y="1254" on="0"/>
        <pt x="329" y="1408" on="0"/>
        <pt x="482" y="1496" on="0"/>
        <pt x="582" y="1496" on="1"/>
        <pt x="682" y="1496" on="0"/>
        <pt x="835" y="1408" on="0"/>
        <pt x="923" y="1254" on="0"/>
        <pt x="923" y="1156" on="1"/>
        <pt x="923" y="1057" on="0"/>
        <pt x="835" y="903" on="0"/>
        <pt x="682" y="815" on="0"/>
      </contour>
      <contour>
        <pt x="582" y="890" on="1"/>
        <pt x="697" y="890" on="0"/>
        <pt x="845" y="1034" on="0"/>
        <pt x="845" y="1156" on="1"/>
        <pt x="845" y="1278" on="0"/>
        <pt x="697" y="1421" on="0"/>
        <pt x="582" y="1421" on="1"/>
        <pt x="467" y="1421" on="0"/>
        <pt x="319" y="1278" on="0"/>
        <pt x="319" y="1156" on="1"/>
        <pt x="319" y="1034" on="0"/>
        <pt x="467" y="890" on="0"/>
      </contour>
    </TTGlyph>
    <TTGlyph name="dieresis" xMin="258" yMin="1351" xMax="848" yMax="1494">
      <component glyphName="uni0308" x="0" y="0" flags="0x4"/>
    </TTGlyph>
    <TTGlyph name="divide" xMin="174" yMin="350" xMax="915" yMax="1170">
      <contour>
        <pt x="545" y="1023" on="1"/>
        <pt x="512" y="1023" on="0"/>
        <pt x="471" y="1062" on="0"/>
        <pt x="471" y="1096" on="1"/>
        <pt x="471" y="1129" on="0"/>
        <pt x="512" y="1170" on="0"/>
        <pt x="545" y="1170" on="1"/>
        <pt x="577" y="1170" on="0"/>
        <pt x="618" y="1129" on="0"/>
        <pt x="618" y="1096" on="1"/>
        <pt x="618" y="1063" on="0"/>
        <pt x="577" y="1023" on="0"/>
      </contour>
      <contour>
        <pt x="174" y="720" on="1"/>
        <pt x="174" y="800" on="1"/>
        <pt x="915" y="800" on="1"/>
        <pt x="915" y="720" on="1"/>
      </contour>
      <contour>
        <pt x="545" y="350" on="1"/>
        <pt x="512" y="350" on="0"/>
        <pt x="471" y="389" on="0"/>
        <pt x="471" y="423" on="1"/>
        <pt x="471" y="456" on="0"/>
        <pt x="512" y="497" on="0"/>
        <pt x="545" y="497" on="1"/>
        <pt x="577" y="497" on="0"/>
        <pt x="618" y="456" on="0"/>
        <pt x="618" y="423" on="1"/>
        <pt x="618" y="389" on="0"/>
        <pt x="577" y="350" on="0"/>
      </contour>
    </TTGlyph>
    <TTGlyph name="divide.osf" xMin="174" yMin="157" xMax="915" yMax="962">
      <contour>
        <pt x="545" y="820" on="1"/>
        <pt x="512" y="820" on="0"/>
        <pt x="472" y="858" on="0"/>
        <pt x="472" y="890" on="1"/>
        <pt x="472" y="922" on="0"/>
        <pt x="512" y="962" on="0"/>
        <pt x="545" y="962" on="1"/>
        <pt x="577" y="962" on="0"/>
        <pt x="618" y="922" on="0"/>
        <pt x="618" y="890" on="1"/>
        <pt x="618" y="858" on="0"/>
        <pt x="577" y="820" on="0"/>
      </contour>
      <contour>
        <pt x="174" y="520" on="1"/>
        <pt x="174" y="598" on="1"/>
        <pt x="915" y="598" on="1"/>
        <pt x="915" y="520" on="1"/>
      </contour>
      <contour>
        <pt x="545" y="157" on="1"/>
        <pt x="512" y="157" on="0"/>
        <pt x="472" y="195" on="0"/>
        <pt x="472" y="227" on="1"/>
        <pt x="472" y="259" on="0"/>
        <pt x="512" y="299" on="0"/>
        <pt x="545" y="299" on="1"/>
        <pt x="577" y="299" on="0"/>
        <pt x="618" y="258" on="0"/>
        <pt x="618" y="227" on="1"/>
        <pt x="618" y="195" on="0"/>
        <pt x="577" y="157" on="0"/>
      </contour>
    </TTGlyph>
    <TTGlyph name="divide.tf" xMin="211" yMin="350" xMax="953" yMax="1170">
      <contour>
        <pt x="582" y="1023" on="1"/>
        <pt x="549" y="1023" on="0"/>
        <pt x="508" y="1062" on="0"/>
        <pt x="508" y="1096" on="1"/>
        <pt x="508" y="1129" on="0"/>
        <pt x="549" y="1170" on="0"/>
        <pt x="582" y="1170" on="1"/>
        <pt x="615" y="1170" on="0"/>
        <pt x="656" y="1129" on="0"/>
        <pt x="656" y="1096" on="1"/>
        <pt x="656" y="1063" on="0"/>
        <pt x="614" y="1023" on="0"/>
      </contour>
      <contour>
        <pt x="211" y="720" on="1"/>
        <pt x="211" y="800" on="1"/>
        <pt x="953" y="800" on="1"/>
        <pt x="953" y="720" on="1"/>
      </contour>
      <contour>
        <pt x="582" y="350" on="1"/>
        <pt x="549" y="350" on="0"/>
        <pt x="508" y="389" on="0"/>
        <pt x="508" y="423" on="1"/>
        <pt x="508" y="456" on="0"/>
        <pt x="549" y="497" on="0"/>
        <pt x="582" y="497" on="1"/>
        <pt x="615" y="497" on="0"/>
        <pt x="656" y="456" on="0"/>
        <pt x="656" y="423" on="1"/>
        <pt x="656" y="389" on="0"/>
        <pt x="614" y="350" on="0"/>
      </contour>
    </TTGlyph>
    <TTGlyph name="divide.tosf" xMin="211" yMin="157" xMax="953" yMax="962">
      <contour>
        <pt x="582" y="820" on="1"/>
        <pt x="550" y="820" on="0"/>
        <pt x="509" y="858" on="0"/>
        <pt x="509" y="890" on="1"/>
        <pt x="509" y="922" on="0"/>
        <pt x="549" y="962" on="0"/>
        <pt x="582" y="962" on="1"/>
        <pt x="615" y="962" on="0"/>
        <pt x="655" y="922" on="0"/>
        <pt x="655" y="890" on="1"/>
        <pt x="655" y="858" on="0"/>
        <pt x="614" y="820" on="0"/>
      </contour>
      <contour>
        <pt x="211" y="520" on="1"/>
        <pt x="211" y="598" on="1"/>
        <pt x="953" y="598" on="1"/>
        <pt x="953" y="520" on="1"/>
      </contour>
      <contour>
        <pt x="582" y="157" on="1"/>
        <pt x="550" y="157" on="0"/>
        <pt x="509" y="195" on="0"/>
        <pt x="509" y="227" on="1"/>
        <pt x="509" y="259" on="0"/>
        <pt x="549" y="299" on="0"/>
        <pt x="582" y="299" on="1"/>
        <pt x="615" y="299" on="0"/>
        <pt x="655" y="258" on="0"/>
        <pt x="655" y="227" on="1"/>
        <pt x="655" y="195" on="0"/>
        <pt x="614" y="157" on="0"/>
      </contour>
    </TTGlyph>
    <TTGlyph name="dollar" xMin="91" yMin="-240" xMax="1004" yMax="1720">
      <contour>
        <pt x="480" y="-18" on="1"/>
        <pt x="393" y="-18" on="0"/>
        <pt x="200" y="12" on="0"/>
        <pt x="110" y="43" on="1"/>
        <pt x="110" y="128" on="1"/>
        <pt x="210" y="94" on="0"/>
        <pt x="400" y="65" on="0"/>
        <pt x="483" y="65" on="1"/>
        <pt x="909" y="65" on="0"/>
        <pt x="909" y="383" on="1"/>
        <pt x="909" y="515" on="0"/>
        <pt x="745" y="651" on="0"/>
        <pt x="558" y="693" on="1"/>
        <pt x="486" y="709" on="1"/>
        <pt x="284" y="755" on="0"/>
        <pt x="91" y="945" on="0"/>
        <pt x="91" y="1103" on="1"/>
        <pt x="91" y="1267" on="0"/>
        <pt x="299" y="1473" on="0"/>
        <pt x="506" y="1494" on="1"/>
        <pt x="506" y="1720" on="1"/>
        <pt x="591" y="1720" on="1"/>
        <pt x="591" y="1498" on="1"/>
        <pt x="597" y="1498" on="0"/>
        <pt x="604" y="1498" on="1"/>
        <pt x="691" y="1498" on="0"/>
        <pt x="866" y="1473" on="0"/>
        <pt x="942" y="1449" on="1"/>
        <pt x="942" y="1364" on="1"/>
        <pt x="857" y="1390" on="0"/>
        <pt x="687" y="1415" on="0"/>
        <pt x="602" y="1415" on="1"/>
        <pt x="392" y="1415" on="0"/>
        <pt x="186" y="1255" on="0"/>
        <pt x="186" y="1108" on="1"/>
        <pt x="186" y="978" on="0"/>
        <pt x="334" y="838" on="0"/>
        <pt x="513" y="797" on="1"/>
        <pt x="585" y="781" on="1"/>
        <pt x="806" y="732" on="0"/>
        <pt x="1004" y="544" on="0"/>
        <pt x="1004" y="387" on="1"/>
        <pt x="1004" y="214" on="0"/>
        <pt x="790" y="10" on="0"/>
        <pt x="591" y="-12" on="1"/>
        <pt x="591" y="-240" on="1"/>
        <pt x="506" y="-240" on="1"/>
        <pt x="506" y="-18" on="1"/>
        <pt x="493" y="-18" on="0"/>
      </contour>
    </TTGlyph>
    <TTGlyph name="dollar.tf" xMin="93" yMin="-240" xMax="1071" yMax="1720">
      <contour>
        <pt x="510" y="-18" on="1"/>
        <pt x="417" y="-18" on="0"/>
        <pt x="211" y="12" on="0"/>
        <pt x="114" y="43" on="1"/>
        <pt x="114" y="128" on="1"/>
        <pt x="221" y="94" on="0"/>
        <pt x="424" y="65" on="0"/>
        <pt x="513" y="65" on="1"/>
        <pt x="977" y="65" on="0"/>
        <pt x="977" y="383" on="1"/>
        <pt x="977" y="515" on="0"/>
        <pt x="797" y="650" on="0"/>
        <pt x="593" y="693" on="1"/>
        <pt x="517" y="709" on="1"/>
        <pt x="300" y="754" on="0"/>
        <pt x="93" y="943" on="0"/>
        <pt x="93" y="1103" on="1"/>
        <pt x="93" y="1268" on="0"/>
        <pt x="317" y="1474" on="0"/>
        <pt x="541" y="1494" on="1"/>
        <pt x="541" y="1720" on="1"/>
        <pt x="626" y="1720" on="1"/>
        <pt x="626" y="1498" on="1"/>
        <pt x="634" y="1498" on="0"/>
        <pt x="642" y="1498" on="1"/>
        <pt x="735" y="1498" on="0"/>
        <pt x="923" y="1473" on="0"/>
        <pt x="1005" y="1449" on="1"/>
        <pt x="1005" y="1364" on="1"/>
        <pt x="914" y="1390" on="0"/>
        <pt x="732" y="1415" on="0"/>
        <pt x="639" y="1415" on="1"/>
        <pt x="413" y="1415" on="0"/>
        <pt x="188" y="1255" on="0"/>
        <pt x="188" y="1108" on="1"/>
        <pt x="188" y="978" on="0"/>
        <pt x="350" y="836" on="0"/>
        <pt x="546" y="795" on="1"/>
        <pt x="622" y="779" on="1"/>
        <pt x="859" y="730" on="0"/>
        <pt x="1071" y="546" on="0"/>
        <pt x="1071" y="387" on="1"/>
        <pt x="1071" y="213" on="0"/>
        <pt x="841" y="9" on="0"/>
        <pt x="626" y="-13" on="1"/>
        <pt x="626" y="-240" on="1"/>
        <pt x="541" y="-240" on="1"/>
        <pt x="541" y="-18" on="1"/>
        <pt x="526" y="-18" on="0"/>
      </contour>
    </TTGlyph>
    <TTGlyph name="dong" xMin="114" yMin="-252" xMax="1152" yMax="1616">
      <contour>
        <pt x="561" y="-18" on="1"/>
        <pt x="436" y="-18" on="0"/>
        <pt x="234" y="86" on="0"/>
        <pt x="114" y="321" on="0"/>
        <pt x="114" y="519" on="1"/>
        <pt x="114" y="812" on="0"/>
        <pt x="395" y="1097" on="0"/>
        <pt x="669" y="1097" on="1"/>
        <pt x="729" y="1097" on="0"/>
        <pt x="847" y="1085" on="0"/>
        <pt x="895" y="1078" on="1"/>
        <pt x="895" y="1320" on="1"/>
        <pt x="500" y="1320" on="1"/>
        <pt x="500" y="1392" on="1"/>
        <pt x="895" y="1392" on="1"/>
        <pt x="895" y="1616" on="1"/>
        <pt x="986" y="1616" on="1"/>
        <pt x="986" y="1392" on="1"/>
        <pt x="1152" y="1392" on="1"/>
        <pt x="1152" y="1320" on="1"/>
        <pt x="986" y="1320" on="1"/>
        <pt x="986" y="0" on="1"/>
        <pt x="907" y="0" on="1"/>
        <pt x="900" y="125" on="1"/>
        <pt x="891" y="125" on="1"/>
        <pt x="835" y="60" on="0"/>
        <pt x="665" y="-18" on="0"/>
      </contour>
      <contour>
        <pt x="573" y="65" on="1"/>
        <pt x="662" y="65" on="0"/>
        <pt x="833" y="142" on="0"/>
        <pt x="895" y="231" on="1"/>
        <pt x="895" y="989" on="1"/>
        <pt x="794" y="1016" on="0"/>
        <pt x="667" y="1016" on="1"/>
        <pt x="438" y="1016" on="0"/>
        <pt x="209" y="783" on="0"/>
        <pt x="209" y="528" on="1"/>
        <pt x="209" y="352" on="0"/>
        <pt x="303" y="150" on="0"/>
        <pt x="468" y="65" on="0"/>
      </contour>
      <contour>
        <pt x="164" y="-252" on="1"/>
        <pt x="164" y="-178" on="1"/>
        <pt x="986" y="-178" on="1"/>
        <pt x="986" y="-252" on="1"/>
      </contour>
    </TTGlyph>
    <TTGlyph name="dong.tf" xMin="158" yMin="-252" xMax="1141" yMax="1616">
      <contour>
        <pt x="574" y="-18" on="1"/>
        <pt x="458" y="-18" on="0"/>
        <pt x="269" y="86" on="0"/>
        <pt x="158" y="321" on="0"/>
        <pt x="158" y="519" on="1"/>
        <pt x="158" y="812" on="0"/>
        <pt x="420" y="1097" on="0"/>
        <pt x="675" y="1097" on="1"/>
        <pt x="730" y="1097" on="0"/>
        <pt x="839" y="1085" on="0"/>
        <pt x="884" y="1078" on="1"/>
        <pt x="884" y="1320" on="1"/>
        <pt x="542" y="1320" on="1"/>
        <pt x="542" y="1392" on="1"/>
        <pt x="884" y="1392" on="1"/>
        <pt x="884" y="1616" on="1"/>
        <pt x="975" y="1616" on="1"/>
        <pt x="975" y="1392" on="1"/>
        <pt x="1141" y="1392" on="1"/>
        <pt x="1141" y="1320" on="1"/>
        <pt x="975" y="1320" on="1"/>
        <pt x="975" y="0" on="1"/>
        <pt x="896" y="0" on="1"/>
        <pt x="889" y="125" on="1"/>
        <pt x="880" y="125" on="1"/>
        <pt x="829" y="60" on="0"/>
        <pt x="671" y="-18" on="0"/>
      </contour>
      <contour>
        <pt x="586" y="65" on="1"/>
        <pt x="667" y="65" on="0"/>
        <pt x="824" y="142" on="0"/>
        <pt x="880" y="231" on="1"/>
        <pt x="880" y="989" on="1"/>
        <pt x="789" y="1016" on="0"/>
        <pt x="673" y="1016" on="1"/>
        <pt x="462" y="1016" on="0"/>
        <pt x="253" y="783" on="0"/>
        <pt x="253" y="528" on="1"/>
        <pt x="253" y="352" on="0"/>
        <pt x="339" y="150" on="0"/>
        <pt x="490" y="65" on="0"/>
      </contour>
      <contour>
        <pt x="208" y="-252" on="1"/>
        <pt x="208" y="-178" on="1"/>
        <pt x="975" y="-178" on="1"/>
        <pt x="975" y="-252" on="1"/>
      </contour>
    </TTGlyph>
    <TTGlyph name="dotaccent" xMin="479" yMin="1351" xMax="627" yMax="1495">
      <component glyphName="uni0307" x="0" y="0" flags="0x4"/>
    </TTGlyph>
    <TTGlyph name="dotbelowcomb" xMin="481" yMin="-322" xMax="625" yMax="-179">
      <contour>
        <pt x="553" y="-322" on="1"/>
        <pt x="521" y="-322" on="0"/>
        <pt x="481" y="-284" on="0"/>
        <pt x="481" y="-251" on="1"/>
        <pt x="481" y="-219" on="0"/>
        <pt x="521" y="-179" on="0"/>
        <pt x="553" y="-179" on="1"/>
        <pt x="585" y="-179" on="0"/>
        <pt x="625" y="-219" on="0"/>
        <pt x="625" y="-251" on="1"/>
        <pt x="625" y="-284" on="0"/>
        <pt x="585" y="-322" on="0"/>
      </contour>
    </TTGlyph>
    <TTGlyph name="dotbelowcomb.case" xMin="479" yMin="-319" xMax="627" yMax="-179">
      <contour>
        <pt x="553" y="-319" on="1"/>
        <pt x="519" y="-319" on="0"/>
        <pt x="479" y="-282" on="0"/>
        <pt x="479" y="-250" on="1"/>
        <pt x="479" y="-218" on="0"/>
        <pt x="519" y="-179" on="0"/>
        <pt x="553" y="-179" on="1"/>
        <pt x="587" y="-179" on="0"/>
        <pt x="627" y="-218" on="0"/>
        <pt x="627" y="-250" on="1"/>
        <pt x="627" y="-282" on="0"/>
        <pt x="587" y="-319" on="0"/>
      </contour>
    </TTGlyph>
    <TTGlyph name="dotbelowcomb.sc" xMin="479" yMin="-319" xMax="627" yMax="-179">
      <component glyphName="dotbelowcomb.case" x="0" y="0" flags="0x204"/>
    </TTGlyph>
    <TTGlyph name="dotlessi" xMin="178" yMin="0" xMax="269" yMax="1081">
      <contour>
        <pt x="178" y="0" on="1"/>
        <pt x="178" y="1081" on="1"/>
        <pt x="269" y="1081" on="1"/>
        <pt x="269" y="0" on="1"/>
      </contour>
    </TTGlyph>
    <TTGlyph name="e" xMin="114" yMin="-18" xMax="968" yMax="1097">
      <contour>
        <pt x="619" y="-18" on="1"/>
        <pt x="378" y="-18" on="0"/>
        <pt x="114" y="247" on="0"/>
        <pt x="114" y="541" on="1"/>
        <pt x="114" y="826" on="0"/>
        <pt x="349" y="1097" on="0"/>
        <pt x="548" y="1097" on="1"/>
        <pt x="747" y="1097" on="0"/>
        <pt x="968" y="825" on="0"/>
        <pt x="968" y="540" on="1"/>
        <pt x="968" y="505" on="1"/>
        <pt x="209" y="505" on="1"/>
        <pt x="215" y="267" on="0"/>
        <pt x="431" y="63" on="0"/>
        <pt x="627" y="63" on="1"/>
        <pt x="694" y="63" on="0"/>
        <pt x="836" y="89" on="0"/>
        <pt x="916" y="114" on="1"/>
        <pt x="916" y="31" on="1"/>
        <pt x="762" y="-18" on="0"/>
      </contour>
      <contour>
        <pt x="548" y="1019" on="1"/>
        <pt x="393" y="1019" on="0"/>
        <pt x="214" y="816" on="0"/>
        <pt x="209" y="581" on="1"/>
        <pt x="877" y="581" on="1"/>
        <pt x="872" y="815" on="0"/>
        <pt x="702" y="1019" on="0"/>
      </contour>
    </TTGlyph>
    <TTGlyph name="e.sc" xMin="200" yMin="0" xMax="1000" yMax="1190">
      <contour>
        <pt x="200" y="0" on="1"/>
        <pt x="200" y="1190" on="1"/>
        <pt x="991" y="1190" on="1"/>
        <pt x="991" y="1111" on="1"/>
        <pt x="290" y="1111" on="1"/>
        <pt x="290" y="650" on="1"/>
        <pt x="908" y="650" on="1"/>
        <pt x="908" y="572" on="1"/>
        <pt x="290" y="572" on="1"/>
        <pt x="290" y="79" on="1"/>
        <pt x="1000" y="79" on="1"/>
        <pt x="1000" y="0" on="1"/>
      </contour>
    </TTGlyph>
    <TTGlyph name="eacute" xMin="114" yMin="-18" xMax="968" yMax="1616">
      <component glyphName="e" x="0" y="0" flags="0x204"/>
      <component glyphName="acutecomb" x="-2" y="0" flags="0x4"/>
    </TTGlyph>
    <TTGlyph name="eacute.sc" xMin="200" yMin="0" xMax="1000" yMax="1599">
      <component glyphName="e.sc" x="0" y="0" flags="0x204"/>
      <component glyphName="acutecomb.sc" x="60" y="-290" flags="0x4"/>
    </TTGlyph>
    <TTGlyph name="ebreve" xMin="114" yMin="-18" xMax="968" yMax="1588">
      <component glyphName="e" x="0" y="0" flags="0x204"/>
      <component glyphName="uni0306" x="-2" y="0" flags="0x4"/>
    </TTGlyph>
    <TTGlyph name="ebreve.sc" xMin="200" yMin="0" xMax="1000" yMax="1573">
      <component glyphName="e.sc" x="0" y="0" flags="0x204"/>
      <component glyphName="uni0306.sc" x="60" y="-290" flags="0x4"/>
    </TTGlyph>
    <TTGlyph name="ecaron" xMin="114" yMin="-18" xMax="968" yMax="1616">
      <component glyphName="e" x="0" y="0" flags="0x204"/>
      <component glyphName="uni030C" x="-2" y="0" flags="0x4"/>
    </TTGlyph>
    <TTGlyph name="ecaron.sc" xMin="200" yMin="0" xMax="1000" yMax="1599">
      <component glyphName="e.sc" x="0" y="0" flags="0x204"/>
      <component glyphName="uni030C.sc" x="60" y="-290" flags="0x4"/>
    </TTGlyph>
    <TTGlyph name="ecircumflex" xMin="114" yMin="-18" xMax="968" yMax="1616">
      <component glyphName="e" x="0" y="0" flags="0x204"/>
      <component glyphName="uni0302" x="-2" y="0" flags="0x4"/>
    </TTGlyph>
    <TTGlyph name="ecircumflex.sc" xMin="200" yMin="0" xMax="1000" yMax="1599">
      <component glyphName="e.sc" x="0" y="0" flags="0x204"/>
      <component glyphName="uni0302.sc" x="60" y="-290" flags="0x4"/>
    </TTGlyph>
    <TTGlyph name="edieresis" xMin="114" yMin="-18" xMax="968" yMax="1494">
      <component glyphName="e" x="0" y="0" flags="0x204"/>
      <component glyphName="uni0308" x="-2" y="0" flags="0x4"/>
    </TTGlyph>
    <TTGlyph name="edieresis.sc" xMin="200" yMin="0" xMax="1000" yMax="1533">
      <component glyphName="e.sc" x="0" y="0" flags="0x204"/>
      <component glyphName="uni0308.sc" x="60" y="-290" flags="0x4"/>
    </TTGlyph>
    <TTGlyph name="edotaccent" xMin="114" yMin="-18" xMax="968" yMax="1495">
      <component glyphName="e" x="0" y="0" flags="0x204"/>
      <component glyphName="uni0307" x="-2" y="0" flags="0x4"/>
    </TTGlyph>
    <TTGlyph name="edotaccent.sc" xMin="200" yMin="0" xMax="1000" yMax="1533">
      <component glyphName="e.sc" x="0" y="0" flags="0x204"/>
      <component glyphName="uni0307.sc" x="60" y="-290" flags="0x4"/>
    </TTGlyph>
    <TTGlyph name="egrave" xMin="114" yMin="-18" xMax="968" yMax="1616">
      <component glyphName="e" x="0" y="0" flags="0x204"/>
      <component glyphName="gravecomb" x="-2" y="0" flags="0x4"/>
    </TTGlyph>
    <TTGlyph name="egrave.sc" xMin="200" yMin="0" xMax="1000" yMax="1599">
      <component glyphName="e.sc" x="0" y="0" flags="0x204"/>
      <component glyphName="gravecomb.sc" x="60" y="-290" flags="0x4"/>
    </TTGlyph>
    <TTGlyph name="eight" xMin="117" yMin="-18" xMax="1174" yMax="1498">
      <contour>
        <pt x="656" y="-18" on="1"/>
        <pt x="394" y="-18" on="0"/>
        <pt x="117" y="184" on="0"/>
        <pt x="117" y="374" on="1"/>
        <pt x="117" y="517" on="0"/>
        <pt x="275" y="720" on="0"/>
        <pt x="414" y="773" on="1"/>
        <pt x="285" y="831" on="0"/>
        <pt x="171" y="1003" on="0"/>
        <pt x="171" y="1121" on="1"/>
        <pt x="171" y="1296" on="0"/>
        <pt x="420" y="1498" on="0"/>
        <pt x="643" y="1498" on="1"/>
        <pt x="867" y="1498" on="0"/>
        <pt x="1119" y="1299" on="0"/>
        <pt x="1119" y="1125" on="1"/>
        <pt x="1119" y="991" on="0"/>
        <pt x="978" y="797" on="0"/>
        <pt x="844" y="740" on="1"/>
        <pt x="1021" y="684" on="0"/>
        <pt x="1174" y="506" on="0"/>
        <pt x="1174" y="375" on="1"/>
        <pt x="1174" y="195" on="0"/>
        <pt x="906" y="-18" on="0"/>
      </contour>
      <contour>
        <pt x="688" y="779" on="1"/>
        <pt x="716" y="774" on="0"/>
        <pt x="743" y="767" on="1"/>
        <pt x="895" y="827" on="0"/>
        <pt x="1032" y="994" on="0"/>
        <pt x="1032" y="1121" on="1"/>
        <pt x="1032" y="1267" on="0"/>
        <pt x="825" y="1418" on="0"/>
        <pt x="641" y="1418" on="1"/>
        <pt x="454" y="1418" on="0"/>
        <pt x="264" y="1261" on="0"/>
        <pt x="264" y="1124" on="1"/>
        <pt x="264" y="1032" on="0"/>
        <pt x="343" y="902" on="0"/>
        <pt x="529" y="811" on="0"/>
      </contour>
      <contour>
        <pt x="209" y="381" on="1"/>
        <pt x="209" y="225" on="0"/>
        <pt x="437" y="62" on="0"/>
        <pt x="657" y="62" on="1"/>
        <pt x="862" y="62" on="0"/>
        <pt x="1081" y="221" on="0"/>
        <pt x="1081" y="369" on="1"/>
        <pt x="1081" y="504" on="0"/>
        <pt x="893" y="652" on="0"/>
        <pt x="663" y="699" on="1"/>
        <pt x="575" y="716" on="0"/>
        <pt x="505" y="739" on="1"/>
        <pt x="359" y="693" on="0"/>
        <pt x="209" y="504" on="0"/>
      </contour>
    </TTGlyph>
    <TTGlyph name="eight.dnom" xMin="58" yMin="-148" xMax="736" yMax="876">
      <contour>
        <pt x="403" y="-148" on="1"/>
        <pt x="234" y="-148" on="0"/>
        <pt x="58" y="-10" on="0"/>
        <pt x="58" y="116" on="1"/>
        <pt x="58" y="211" on="0"/>
        <pt x="155" y="346" on="0"/>
        <pt x="242" y="382" on="1"/>
        <pt x="161" y="422" on="0"/>
        <pt x="91" y="539" on="0"/>
        <pt x="91" y="619" on="1"/>
        <pt x="91" y="738" on="0"/>
        <pt x="252" y="876" on="0"/>
        <pt x="397" y="876" on="1"/>
        <pt x="541" y="876" on="0"/>
        <pt x="703" y="742" on="0"/>
        <pt x="703" y="625" on="1"/>
        <pt x="703" y="448" on="0"/>
        <pt x="534" y="369" on="1"/>
        <pt x="643" y="330" on="0"/>
        <pt x="736" y="209" on="0"/>
        <pt x="736" y="121" on="1"/>
        <pt x="736" y="-1" on="0"/>
        <pt x="565" y="-148" on="0"/>
      </contour>
      <contour>
        <pt x="429" y="398" on="1"/>
        <pt x="445" y="395" on="0"/>
        <pt x="460" y="391" on="1"/>
        <pt x="547" y="431" on="0"/>
        <pt x="627" y="539" on="0"/>
        <pt x="627" y="619" on="1"/>
        <pt x="627" y="712" on="0"/>
        <pt x="505" y="809" on="0"/>
        <pt x="396" y="809" on="1"/>
        <pt x="284" y="809" on="0"/>
        <pt x="171" y="708" on="0"/>
        <pt x="171" y="622" on="1"/>
        <pt x="171" y="534" on="0"/>
        <pt x="281" y="431" on="0"/>
      </contour>
      <contour>
        <pt x="138" y="123" on="1"/>
        <pt x="138" y="-80" on="0"/>
        <pt x="405" y="-80" on="1"/>
        <pt x="527" y="-80" on="0"/>
        <pt x="657" y="22" on="0"/>
        <pt x="657" y="116" on="1"/>
        <pt x="657" y="202" on="0"/>
        <pt x="542" y="299" on="0"/>
        <pt x="402" y="330" on="1"/>
        <pt x="352" y="341" on="0"/>
        <pt x="311" y="354" on="1"/>
        <pt x="225" y="324" on="0"/>
        <pt x="138" y="202" on="0"/>
      </contour>
    </TTGlyph>
    <TTGlyph name="eight.numr" xMin="58" yMin="604" xMax="736" yMax="1628">
      <contour>
        <pt x="403" y="604" on="1"/>
        <pt x="234" y="604" on="0"/>
        <pt x="58" y="742" on="0"/>
        <pt x="58" y="868" on="1"/>
        <pt x="58" y="963" on="0"/>
        <pt x="155" y="1098" on="0"/>
        <pt x="242" y="1134" on="1"/>
        <pt x="161" y="1174" on="0"/>
        <pt x="91" y="1291" on="0"/>
        <pt x="91" y="1371" on="1"/>
        <pt x="91" y="1490" on="0"/>
        <pt x="252" y="1628" on="0"/>
        <pt x="397" y="1628" on="1"/>
        <pt x="541" y="1628" on="0"/>
        <pt x="703" y="1494" on="0"/>
        <pt x="703" y="1377" on="1"/>
        <pt x="703" y="1200" on="0"/>
        <pt x="534" y="1121" on="1"/>
        <pt x="643" y="1082" on="0"/>
        <pt x="736" y="961" on="0"/>
        <pt x="736" y="873" on="1"/>
        <pt x="736" y="751" on="0"/>
        <pt x="565" y="604" on="0"/>
      </contour>
      <contour>
        <pt x="429" y="1150" on="1"/>
        <pt x="445" y="1147" on="0"/>
        <pt x="460" y="1143" on="1"/>
        <pt x="547" y="1183" on="0"/>
        <pt x="627" y="1291" on="0"/>
        <pt x="627" y="1371" on="1"/>
        <pt x="627" y="1464" on="0"/>
        <pt x="505" y="1561" on="0"/>
        <pt x="396" y="1561" on="1"/>
        <pt x="284" y="1561" on="0"/>
        <pt x="171" y="1460" on="0"/>
        <pt x="171" y="1374" on="1"/>
        <pt x="171" y="1286" on="0"/>
        <pt x="281" y="1183" on="0"/>
      </contour>
      <contour>
        <pt x="138" y="875" on="1"/>
        <pt x="138" y="672" on="0"/>
        <pt x="405" y="672" on="1"/>
        <pt x="527" y="672" on="0"/>
        <pt x="657" y="774" on="0"/>
        <pt x="657" y="868" on="1"/>
        <pt x="657" y="954" on="0"/>
        <pt x="542" y="1051" on="0"/>
        <pt x="402" y="1082" on="1"/>
        <pt x="352" y="1093" on="0"/>
        <pt x="311" y="1106" on="1"/>
        <pt x="225" y="1076" on="0"/>
        <pt x="138" y="954" on="0"/>
      </contour>
    </TTGlyph>
    <TTGlyph name="eight.osf" xMin="119" yMin="-18" xMax="1175" yMax="1498">
      <contour>
        <pt x="657" y="-18" on="1"/>
        <pt x="395" y="-18" on="0"/>
        <pt x="119" y="184" on="0"/>
        <pt x="119" y="374" on="1"/>
        <pt x="119" y="517" on="0"/>
        <pt x="276" y="720" on="0"/>
        <pt x="416" y="773" on="1"/>
        <pt x="286" y="831" on="0"/>
        <pt x="172" y="1003" on="0"/>
        <pt x="172" y="1121" on="1"/>
        <pt x="172" y="1296" on="0"/>
        <pt x="422" y="1498" on="0"/>
        <pt x="644" y="1498" on="1"/>
        <pt x="868" y="1498" on="0"/>
        <pt x="1120" y="1299" on="0"/>
        <pt x="1120" y="1125" on="1"/>
        <pt x="1120" y="991" on="0"/>
        <pt x="979" y="797" on="0"/>
        <pt x="845" y="740" on="1"/>
        <pt x="1022" y="684" on="0"/>
        <pt x="1175" y="506" on="0"/>
        <pt x="1175" y="375" on="1"/>
        <pt x="1175" y="195" on="0"/>
        <pt x="907" y="-18" on="0"/>
      </contour>
      <contour>
        <pt x="689" y="779" on="1"/>
        <pt x="718" y="774" on="0"/>
        <pt x="744" y="767" on="1"/>
        <pt x="896" y="827" on="0"/>
        <pt x="1033" y="994" on="0"/>
        <pt x="1033" y="1121" on="1"/>
        <pt x="1033" y="1267" on="0"/>
        <pt x="826" y="1418" on="0"/>
        <pt x="642" y="1418" on="1"/>
        <pt x="456" y="1418" on="0"/>
        <pt x="265" y="1261" on="0"/>
        <pt x="265" y="1124" on="1"/>
        <pt x="265" y="1032" on="0"/>
        <pt x="345" y="902" on="0"/>
        <pt x="530" y="811" on="0"/>
      </contour>
      <contour>
        <pt x="210" y="381" on="1"/>
        <pt x="210" y="225" on="0"/>
        <pt x="439" y="62" on="0"/>
        <pt x="658" y="62" on="1"/>
        <pt x="864" y="62" on="0"/>
        <pt x="1082" y="221" on="0"/>
        <pt x="1082" y="369" on="1"/>
        <pt x="1082" y="504" on="0"/>
        <pt x="894" y="652" on="0"/>
        <pt x="664" y="699" on="1"/>
        <pt x="576" y="716" on="0"/>
        <pt x="506" y="739" on="1"/>
        <pt x="361" y="693" on="0"/>
        <pt x="210" y="504" on="0"/>
      </contour>
    </TTGlyph>
    <TTGlyph name="eight.tf" xMin="88" yMin="-18" xMax="1075" yMax="1498">
      <contour>
        <pt x="592" y="-18" on="1"/>
        <pt x="348" y="-18" on="0"/>
        <pt x="88" y="184" on="0"/>
        <pt x="88" y="374" on="1"/>
        <pt x="88" y="517" on="0"/>
        <pt x="235" y="720" on="0"/>
        <pt x="366" y="773" on="1"/>
        <pt x="245" y="831" on="0"/>
        <pt x="139" y="1003" on="0"/>
        <pt x="139" y="1121" on="1"/>
        <pt x="139" y="1296" on="0"/>
        <pt x="371" y="1498" on="0"/>
        <pt x="579" y="1498" on="1"/>
        <pt x="789" y="1498" on="0"/>
        <pt x="1024" y="1299" on="0"/>
        <pt x="1024" y="1125" on="1"/>
        <pt x="1024" y="991" on="0"/>
        <pt x="892" y="797" on="0"/>
        <pt x="767" y="740" on="1"/>
        <pt x="932" y="684" on="0"/>
        <pt x="1075" y="506" on="0"/>
        <pt x="1075" y="375" on="1"/>
        <pt x="1075" y="195" on="0"/>
        <pt x="825" y="-18" on="0"/>
      </contour>
      <contour>
        <pt x="622" y="779" on="1"/>
        <pt x="648" y="774" on="0"/>
        <pt x="672" y="768" on="1"/>
        <pt x="811" y="828" on="0"/>
        <pt x="937" y="994" on="0"/>
        <pt x="937" y="1121" on="1"/>
        <pt x="937" y="1267" on="0"/>
        <pt x="746" y="1418" on="0"/>
        <pt x="577" y="1418" on="1"/>
        <pt x="406" y="1418" on="0"/>
        <pt x="232" y="1261" on="0"/>
        <pt x="232" y="1124" on="1"/>
        <pt x="232" y="1032" on="0"/>
        <pt x="304" y="902" on="0"/>
        <pt x="475" y="811" on="0"/>
      </contour>
      <contour>
        <pt x="180" y="381" on="1"/>
        <pt x="180" y="225" on="0"/>
        <pt x="391" y="62" on="0"/>
        <pt x="594" y="62" on="1"/>
        <pt x="782" y="62" on="0"/>
        <pt x="983" y="221" on="0"/>
        <pt x="983" y="369" on="1"/>
        <pt x="983" y="504" on="0"/>
        <pt x="809" y="653" on="0"/>
        <pt x="598" y="699" on="1"/>
        <pt x="516" y="716" on="0"/>
        <pt x="451" y="739" on="1"/>
        <pt x="318" y="692" on="0"/>
        <pt x="180" y="504" on="0"/>
      </contour>
    </TTGlyph>
    <TTGlyph name="eight.tosf" xMin="88" yMin="-18" xMax="1075" yMax="1498">
      <contour>
        <pt x="592" y="-18" on="1"/>
        <pt x="348" y="-18" on="0"/>
        <pt x="88" y="184" on="0"/>
        <pt x="88" y="374" on="1"/>
        <pt x="88" y="517" on="0"/>
        <pt x="235" y="720" on="0"/>
        <pt x="366" y="773" on="1"/>
        <pt x="245" y="831" on="0"/>
        <pt x="139" y="1003" on="0"/>
        <pt x="139" y="1121" on="1"/>
        <pt x="139" y="1296" on="0"/>
        <pt x="371" y="1498" on="0"/>
        <pt x="579" y="1498" on="1"/>
        <pt x="789" y="1498" on="0"/>
        <pt x="1024" y="1299" on="0"/>
        <pt x="1024" y="1125" on="1"/>
        <pt x="1024" y="991" on="0"/>
        <pt x="892" y="797" on="0"/>
        <pt x="767" y="740" on="1"/>
        <pt x="932" y="684" on="0"/>
        <pt x="1075" y="506" on="0"/>
        <pt x="1075" y="375" on="1"/>
        <pt x="1075" y="195" on="0"/>
        <pt x="825" y="-18" on="0"/>
      </contour>
      <contour>
        <pt x="622" y="779" on="1"/>
        <pt x="648" y="774" on="0"/>
        <pt x="672" y="768" on="1"/>
        <pt x="811" y="828" on="0"/>
        <pt x="937" y="994" on="0"/>
        <pt x="937" y="1121" on="1"/>
        <pt x="937" y="1267" on="0"/>
        <pt x="746" y="1418" on="0"/>
        <pt x="577" y="1418" on="1"/>
        <pt x="406" y="1418" on="0"/>
        <pt x="232" y="1261" on="0"/>
        <pt x="232" y="1124" on="1"/>
        <pt x="232" y="1032" on="0"/>
        <pt x="304" y="902" on="0"/>
        <pt x="475" y="811" on="0"/>
      </contour>
      <contour>
        <pt x="180" y="381" on="1"/>
        <pt x="180" y="225" on="0"/>
        <pt x="391" y="62" on="0"/>
        <pt x="594" y="62" on="1"/>
        <pt x="782" y="62" on="0"/>
        <pt x="983" y="221" on="0"/>
        <pt x="983" y="369" on="1"/>
        <pt x="983" y="504" on="0"/>
        <pt x="809" y="653" on="0"/>
        <pt x="598" y="699" on="1"/>
        <pt x="516" y="716" on="0"/>
        <pt x="451" y="739" on="1"/>
        <pt x="318" y="692" on="0"/>
        <pt x="180" y="504" on="0"/>
      </contour>
    </TTGlyph>
    <TTGlyph name="ellipsis" xMin="146" yMin="-11" xMax="1143" yMax="138">
      <component glyphName="period" x="0" y="0" flags="0x4"/>
      <component glyphName="period" x="423" y="0" flags="0x4"/>
      <component glyphName="period" x="846" y="0" flags="0x4"/>
    </TTGlyph>
    <TTGlyph name="emacron" xMin="114" yMin="-18" xMax="968" yMax="1459">
      <component glyphName="e" x="0" y="0" flags="0x204"/>
      <component glyphName="uni0304" x="-2" y="0" flags="0x4"/>
    </TTGlyph>
    <TTGlyph name="emacron.sc" xMin="200" yMin="0" xMax="1000" yMax="1497">
      <component glyphName="e.sc" x="0" y="0" flags="0x204"/>
      <component glyphName="uni0304.sc" x="60" y="-290" flags="0x4"/>
    </TTGlyph>
    <TTGlyph name="emdash" xMin="0" yMin="521" xMax="1900" yMax="600">
      <contour>
        <pt x="0" y="521" on="1"/>
        <pt x="0" y="600" on="1"/>
        <pt x="1900" y="600" on="1"/>
        <pt x="1900" y="521" on="1"/>
      </contour>
    </TTGlyph>
    <TTGlyph name="endash" xMin="0" yMin="521" xMax="950" yMax="600">
      <contour>
        <pt x="0" y="521" on="1"/>
        <pt x="0" y="600" on="1"/>
        <pt x="950" y="600" on="1"/>
        <pt x="950" y="521" on="1"/>
      </contour>
    </TTGlyph>
    <TTGlyph name="eng" xMin="178" yMin="-461" xMax="1015" yMax="1097">
      <contour>
        <pt x="789" y="-461" on="1"/>
        <pt x="726" y="-416" on="1"/>
        <pt x="829" y="-284" on="0"/>
        <pt x="924" y="-8" on="0"/>
        <pt x="924" y="167" on="1"/>
        <pt x="924" y="716" on="1"/>
        <pt x="924" y="882" on="0"/>
        <pt x="768" y="1013" on="0"/>
        <pt x="640" y="1013" on="1"/>
        <pt x="545" y="1013" on="0"/>
        <pt x="344" y="933" on="0"/>
        <pt x="269" y="843" on="1"/>
        <pt x="269" y="0" on="1"/>
        <pt x="178" y="0" on="1"/>
        <pt x="178" y="1081" on="1"/>
        <pt x="257" y="1081" on="1"/>
        <pt x="264" y="952" on="1"/>
        <pt x="273" y="952" on="1"/>
        <pt x="349" y="1025" on="0"/>
        <pt x="543" y="1097" on="0"/>
        <pt x="651" y="1097" on="1"/>
        <pt x="813" y="1097" on="0"/>
        <pt x="1015" y="926" on="0"/>
        <pt x="1015" y="718" on="1"/>
        <pt x="1015" y="135" on="1"/>
        <pt x="1006" y="-38" on="0"/>
        <pt x="907" y="-314" on="0"/>
      </contour>
    </TTGlyph>
    <TTGlyph name="eng.sc" xMin="200" yMin="-461" xMax="1178" yMax="1190">
      <contour>
        <pt x="200" y="0" on="1"/>
        <pt x="200" y="1190" on="1"/>
        <pt x="295" y="1190" on="1"/>
        <pt x="1091" y="131" on="1"/>
        <pt x="1091" y="1190" on="1"/>
        <pt x="1178" y="1190" on="1"/>
        <pt x="1178" y="23" on="1"/>
        <pt x="1171" y="-117" on="0"/>
        <pt x="1088" y="-342" on="0"/>
        <pt x="985" y="-461" on="1"/>
        <pt x="924" y="-417" on="1"/>
        <pt x="1002" y="-323" on="0"/>
        <pt x="1082" y="-129" on="0"/>
        <pt x="1090" y="-10" on="1"/>
        <pt x="287" y="1057" on="1"/>
        <pt x="287" y="0" on="1"/>
      </contour>
    </TTGlyph>
    <TTGlyph name="eogonek" xMin="114" yMin="-404" xMax="968" yMax="1097">
      <contour>
        <pt x="755" y="-404" on="1"/>
        <pt x="661" y="-404" on="0"/>
        <pt x="554" y="-311" on="0"/>
        <pt x="554" y="-231" on="1"/>
        <pt x="554" y="-99" on="0"/>
        <pt x="683" y="-16" on="1"/>
        <pt x="652" y="-18" on="0"/>
        <pt x="619" y="-18" on="1"/>
        <pt x="378" y="-18" on="0"/>
        <pt x="114" y="247" on="0"/>
        <pt x="114" y="541" on="1"/>
        <pt x="114" y="826" on="0"/>
        <pt x="349" y="1097" on="0"/>
        <pt x="548" y="1097" on="1"/>
        <pt x="747" y="1097" on="0"/>
        <pt x="968" y="825" on="0"/>
        <pt x="968" y="540" on="1"/>
        <pt x="968" y="505" on="1"/>
        <pt x="209" y="505" on="1"/>
        <pt x="215" y="267" on="0"/>
        <pt x="431" y="63" on="0"/>
        <pt x="627" y="63" on="1"/>
        <pt x="694" y="63" on="0"/>
        <pt x="836" y="89" on="0"/>
        <pt x="916" y="114" on="1"/>
        <pt x="916" y="31" on="1"/>
        <pt x="797" y="-6" on="0"/>
        <pt x="670" y="-93" on="0"/>
        <pt x="622" y="-183" on="0"/>
        <pt x="622" y="-225" on="1"/>
        <pt x="622" y="-282" on="0"/>
        <pt x="694" y="-345" on="0"/>
        <pt x="756" y="-345" on="1"/>
        <pt x="836" y="-345" on="0"/>
        <pt x="916" y="-301" on="1"/>
        <pt x="916" y="-363" on="1"/>
        <pt x="841" y="-404" on="0"/>
      </contour>
      <contour>
        <pt x="548" y="1019" on="1"/>
        <pt x="393" y="1019" on="0"/>
        <pt x="214" y="816" on="0"/>
        <pt x="209" y="581" on="1"/>
        <pt x="877" y="581" on="1"/>
        <pt x="872" y="815" on="0"/>
        <pt x="702" y="1019" on="0"/>
      </contour>
    </TTGlyph>
    <TTGlyph name="eogonek.sc" xMin="200" yMin="-404" xMax="1125" yMax="1190">
      <component glyphName="e.sc" x="0" y="0" flags="0x204"/>
      <component glyphName="uni0328.sc" x="452" y="0" flags="0x4"/>
    </TTGlyph>
    <TTGlyph name="equal" xMin="174" yMin="534" xMax="915" yMax="986">
      <contour>
        <pt x="174" y="906" on="1"/>
        <pt x="174" y="986" on="1"/>
        <pt x="915" y="986" on="1"/>
        <pt x="915" y="906" on="1"/>
      </contour>
      <contour>
        <pt x="174" y="534" on="1"/>
        <pt x="174" y="614" on="1"/>
        <pt x="915" y="614" on="1"/>
        <pt x="915" y="534" on="1"/>
      </contour>
    </TTGlyph>
    <TTGlyph name="equal.osf" xMin="174" yMin="334" xMax="915" yMax="786">
      <contour>
        <pt x="174" y="706" on="1"/>
        <pt x="174" y="786" on="1"/>
        <pt x="915" y="786" on="1"/>
        <pt x="915" y="706" on="1"/>
      </contour>
      <contour>
        <pt x="174" y="334" on="1"/>
        <pt x="174" y="414" on="1"/>
        <pt x="915" y="414" on="1"/>
        <pt x="915" y="334" on="1"/>
      </contour>
    </TTGlyph>
    <TTGlyph name="equal.tf" xMin="211" yMin="534" xMax="953" yMax="986">
      <contour>
        <pt x="211" y="906" on="1"/>
        <pt x="211" y="986" on="1"/>
        <pt x="953" y="986" on="1"/>
        <pt x="953" y="906" on="1"/>
      </contour>
      <contour>
        <pt x="211" y="534" on="1"/>
        <pt x="211" y="614" on="1"/>
        <pt x="953" y="614" on="1"/>
        <pt x="953" y="534" on="1"/>
      </contour>
    </TTGlyph>
    <TTGlyph name="equal.tosf" xMin="211" yMin="334" xMax="953" yMax="786">
      <contour>
        <pt x="211" y="706" on="1"/>
        <pt x="211" y="786" on="1"/>
        <pt x="953" y="786" on="1"/>
        <pt x="953" y="706" on="1"/>
      </contour>
      <contour>
        <pt x="211" y="334" on="1"/>
        <pt x="211" y="414" on="1"/>
        <pt x="953" y="414" on="1"/>
        <pt x="953" y="334" on="1"/>
      </contour>
    </TTGlyph>
    <TTGlyph name="estimated" xMin="125" yMin="-18" xMax="1519" yMax="1498">
      <contour>
        <pt x="821" y="-18" on="1"/>
        <pt x="672" y="-18" on="0"/>
        <pt x="418" y="96" on="0"/>
        <pt x="229" y="300" on="0"/>
        <pt x="125" y="576" on="0"/>
        <pt x="125" y="738" on="1"/>
        <pt x="125" y="962" on="0"/>
        <pt x="302" y="1305" on="0"/>
        <pt x="616" y="1498" on="0"/>
        <pt x="821" y="1498" on="1"/>
        <pt x="1023" y="1498" on="0"/>
        <pt x="1329" y="1311" on="0"/>
        <pt x="1508" y="970" on="0"/>
        <pt x="1519" y="738" on="1"/>
        <pt x="379" y="738" on="1"/>
        <pt x="379" y="259" on="1"/>
        <pt x="449" y="162" on="0"/>
        <pt x="690" y="46" on="0"/>
        <pt x="821" y="46" on="1"/>
        <pt x="998" y="46" on="0"/>
        <pt x="1266" y="208" on="0"/>
        <pt x="1389" y="390" on="1"/>
        <pt x="1445" y="352" on="1"/>
        <pt x="1311" y="157" on="0"/>
        <pt x="1017" y="-18" on="0"/>
      </contour>
      <contour>
        <pt x="379" y="802" on="1"/>
        <pt x="1246" y="802" on="1"/>
        <pt x="1246" y="1227" on="1"/>
        <pt x="1180" y="1328" on="0"/>
        <pt x="957" y="1434" on="0"/>
        <pt x="819" y="1434" on="1"/>
        <pt x="731" y="1434" on="0"/>
        <pt x="556" y="1380" on="0"/>
        <pt x="416" y="1287" on="0"/>
        <pt x="379" y="1227" on="1"/>
      </contour>
    </TTGlyph>
    <TTGlyph name="eth" xMin="114" yMin="-18" xMax="1029" yMax="1616">
      <contour>
        <pt x="574" y="-18" on="1"/>
        <pt x="436" y="-18" on="0"/>
        <pt x="229" y="96" on="0"/>
        <pt x="114" y="343" on="0"/>
        <pt x="114" y="540" on="1"/>
        <pt x="114" y="735" on="0"/>
        <pt x="229" y="981" on="0"/>
        <pt x="434" y="1097" on="0"/>
        <pt x="570" y="1097" on="1"/>
        <pt x="653" y="1097" on="0"/>
        <pt x="801" y="1047" on="0"/>
        <pt x="861" y="984" on="1"/>
        <pt x="830" y="1068" on="0"/>
        <pt x="743" y="1231" on="0"/>
        <pt x="684" y="1309" on="1"/>
        <pt x="226" y="1236" on="1"/>
        <pt x="216" y="1305" on="1"/>
        <pt x="634" y="1372" on="1"/>
        <pt x="579" y="1436" on="0"/>
        <pt x="444" y="1558" on="0"/>
        <pt x="363" y="1616" on="1"/>
        <pt x="488" y="1616" on="1"/>
        <pt x="618" y="1525" on="0"/>
        <pt x="729" y="1387" on="1"/>
        <pt x="996" y="1429" on="1"/>
        <pt x="1007" y="1361" on="1"/>
        <pt x="777" y="1324" on="1"/>
        <pt x="891" y="1162" on="0"/>
        <pt x="1029" y="771" on="0"/>
        <pt x="1029" y="573" on="1"/>
        <pt x="1029" y="265" on="0"/>
        <pt x="778" y="-18" on="0"/>
      </contour>
      <contour>
        <pt x="574" y="64" on="1"/>
        <pt x="739" y="64" on="0"/>
        <pt x="936" y="286" on="0"/>
        <pt x="936" y="538" on="1"/>
        <pt x="936" y="715" on="0"/>
        <pt x="847" y="924" on="0"/>
        <pt x="683" y="1015" on="0"/>
        <pt x="573" y="1015" on="1"/>
        <pt x="462" y="1015" on="0"/>
        <pt x="298" y="924" on="0"/>
        <pt x="209" y="717" on="0"/>
        <pt x="209" y="543" on="1"/>
        <pt x="209" y="366" on="0"/>
        <pt x="299" y="156" on="0"/>
        <pt x="463" y="64" on="0"/>
      </contour>
    </TTGlyph>
    <TTGlyph name="eth.sc" xMin="7" yMin="-8" xMax="1176" yMax="1202">
      <component glyphName="d.sc" x="0" y="0" flags="0x204"/>
      <component glyphName="uni0335.dsc" x="4" y="-4" flags="0x4"/>
    </TTGlyph>
    <TTGlyph name="exclam" xMin="166" yMin="-11" xMax="317" yMax="1480">
      <contour>
        <pt x="211" y="329" on="1"/>
        <pt x="193" y="896" on="1"/>
        <pt x="193" y="1480" on="1"/>
        <pt x="290" y="1480" on="1"/>
        <pt x="290" y="896" on="1"/>
        <pt x="272" y="329" on="1"/>
      </contour>
      <contour>
        <pt x="241" y="-11" on="1"/>
        <pt x="208" y="-11" on="0"/>
        <pt x="166" y="29" on="0"/>
        <pt x="166" y="62" on="1"/>
        <pt x="166" y="95" on="0"/>
        <pt x="208" y="136" on="0"/>
        <pt x="241" y="136" on="1"/>
        <pt x="275" y="136" on="0"/>
        <pt x="317" y="95" on="0"/>
        <pt x="317" y="62" on="1"/>
        <pt x="317" y="29" on="0"/>
        <pt x="275" y="-11" on="0"/>
      </contour>
    </TTGlyph>
    <TTGlyph name="exclamdown" xMin="166" yMin="-380" xMax="317" yMax="1092">
      <contour>
        <pt x="241" y="1092" on="1"/>
        <pt x="275" y="1092" on="0"/>
        <pt x="317" y="1052" on="0"/>
        <pt x="317" y="1018" on="1"/>
        <pt x="317" y="985" on="0"/>
        <pt x="275" y="943" on="0"/>
        <pt x="241" y="943" on="1"/>
        <pt x="208" y="943" on="0"/>
        <pt x="166" y="984" on="0"/>
        <pt x="166" y="1018" on="1"/>
        <pt x="166" y="1052" on="0"/>
        <pt x="208" y="1092" on="0"/>
      </contour>
      <contour>
        <pt x="211" y="750" on="1"/>
        <pt x="272" y="750" on="1"/>
        <pt x="290" y="184" on="1"/>
        <pt x="290" y="-380" on="1"/>
        <pt x="193" y="-380" on="1"/>
        <pt x="193" y="184" on="1"/>
      </contour>
    </TTGlyph>
    <TTGlyph name="f" xMin="20" yMin="0" xMax="777" yMax="1636">
      <contour>
        <pt x="246" y="0" on="1"/>
        <pt x="246" y="1000" on="1"/>
        <pt x="20" y="1000" on="1"/>
        <pt x="20" y="1081" on="1"/>
        <pt x="246" y="1081" on="1"/>
        <pt x="246" y="1254" on="1"/>
        <pt x="246" y="1636" on="0"/>
        <pt x="625" y="1636" on="1"/>
        <pt x="699" y="1636" on="0"/>
        <pt x="777" y="1623" on="1"/>
        <pt x="777" y="1539" on="1"/>
        <pt x="698" y="1553" on="0"/>
        <pt x="626" y="1553" on="1"/>
        <pt x="480" y="1553" on="0"/>
        <pt x="337" y="1421" on="0"/>
        <pt x="337" y="1260" on="1"/>
        <pt x="337" y="1081" on="1"/>
        <pt x="735" y="1081" on="1"/>
        <pt x="735" y="1000" on="1"/>
        <pt x="337" y="1000" on="1"/>
        <pt x="337" y="0" on="1"/>
      </contour>
    </TTGlyph>
    <TTGlyph name="f.sc" xMin="200" yMin="0" xMax="983" yMax="1190">
      <contour>
        <pt x="200" y="0" on="1"/>
        <pt x="200" y="1190" on="1"/>
        <pt x="983" y="1190" on="1"/>
        <pt x="983" y="1110" on="1"/>
        <pt x="291" y="1110" on="1"/>
        <pt x="291" y="646" on="1"/>
        <pt x="899" y="646" on="1"/>
        <pt x="899" y="566" on="1"/>
        <pt x="291" y="566" on="1"/>
        <pt x="291" y="0" on="1"/>
      </contour>
    </TTGlyph>
    <TTGlyph name="f.short" xMin="20" yMin="0" xMax="774" yMax="1636">
      <contour>
        <pt x="246" y="0" on="1"/>
        <pt x="246" y="1000" on="1"/>
        <pt x="20" y="1000" on="1"/>
        <pt x="20" y="1081" on="1"/>
        <pt x="246" y="1081" on="1"/>
        <pt x="246" y="1255" on="1"/>
        <pt x="246" y="1636" on="0"/>
        <pt x="623" y="1636" on="1"/>
        <pt x="698" y="1636" on="0"/>
        <pt x="774" y="1623" on="1"/>
        <pt x="774" y="1538" on="1"/>
        <pt x="697" y="1553" on="0"/>
        <pt x="624" y="1553" on="1"/>
        <pt x="479" y="1553" on="0"/>
        <pt x="337" y="1421" on="0"/>
        <pt x="337" y="1261" on="1"/>
        <pt x="337" y="1081" on="1"/>
        <pt x="735" y="1081" on="1"/>
        <pt x="735" y="1000" on="1"/>
        <pt x="337" y="1000" on="1"/>
        <pt x="337" y="0" on="1"/>
      </contour>
    </TTGlyph>
    <TTGlyph name="f_i" xMin="20" yMin="0" xMax="1030" yMax="1636">
      <component glyphName="f.short" x="0" y="0" flags="0x4"/>
      <component glyphName="i" x="732" y="0" flags="0x4"/>
    </TTGlyph>
    <TTGlyph name="f_j" xMin="20" yMin="-461" xMax="1029" yMax="1636">
      <component glyphName="f.short" x="0" y="0" flags="0x4"/>
      <component glyphName="j" x="732" y="0" flags="0x4"/>
    </TTGlyph>
    <TTGlyph name="f_l" xMin="20" yMin="0" xMax="1001" yMax="1636">
      <component glyphName="f.short" x="0" y="0" flags="0x4"/>
      <component glyphName="l" x="732" y="0" flags="0x4"/>
    </TTGlyph>
    <TTGlyph name="fi" xMin="20" yMin="0" xMax="1030" yMax="1636">
      <component glyphName="f.short" x="0" y="0" flags="0x4"/>
      <component glyphName="i" x="732" y="0" flags="0x4"/>
    </TTGlyph>
    <TTGlyph name="figuredash" xMin="139" yMin="521" xMax="1025" yMax="600">
      <contour>
        <pt x="139" y="521" on="1"/>
        <pt x="139" y="600" on="1"/>
        <pt x="1025" y="600" on="1"/>
        <pt x="1025" y="521" on="1"/>
      </contour>
    </TTGlyph>
    <TTGlyph name="five" xMin="87" yMin="-18" xMax="985" yMax="1480">
      <contour>
        <pt x="453" y="-18" on="1"/>
        <pt x="360" y="-18" on="0"/>
        <pt x="169" y="14" on="0"/>
        <pt x="87" y="43" on="1"/>
        <pt x="87" y="127" on="1"/>
        <pt x="269" y="64" on="0"/>
        <pt x="455" y="64" on="1"/>
        <pt x="894" y="64" on="0"/>
        <pt x="894" y="411" on="1"/>
        <pt x="894" y="519" on="0"/>
        <pt x="789" y="662" on="0"/>
        <pt x="550" y="742" on="0"/>
        <pt x="347" y="753" on="1"/>
        <pt x="150" y="765" on="1"/>
        <pt x="201" y="1480" on="1"/>
        <pt x="923" y="1480" on="1"/>
        <pt x="923" y="1400" on="1"/>
        <pt x="284" y="1400" on="1"/>
        <pt x="245" y="842" on="1"/>
        <pt x="372" y="835" on="1"/>
        <pt x="702" y="815" on="0"/>
        <pt x="985" y="609" on="0"/>
        <pt x="985" y="411" on="1"/>
        <pt x="985" y="202" on="0"/>
        <pt x="715" y="-18" on="0"/>
      </contour>
    </TTGlyph>
    <TTGlyph name="five.dnom" xMin="83" yMin="-148" xMax="724" yMax="864">
      <contour>
        <pt x="343" y="-148" on="1"/>
        <pt x="205" y="-148" on="0"/>
        <pt x="83" y="-108" on="1"/>
        <pt x="83" y="-33" on="1"/>
        <pt x="211" y="-76" on="0"/>
        <pt x="344" y="-76" on="1"/>
        <pt x="644" y="-76" on="0"/>
        <pt x="644" y="143" on="1"/>
        <pt x="644" y="247" on="0"/>
        <pt x="477" y="353" on="0"/>
        <pt x="268" y="364" on="1"/>
        <pt x="127" y="372" on="1"/>
        <pt x="163" y="864" on="1"/>
        <pt x="682" y="864" on="1"/>
        <pt x="682" y="793" on="1"/>
        <pt x="235" y="793" on="1"/>
        <pt x="209" y="439" on="1"/>
        <pt x="290" y="435" on="1"/>
        <pt x="525" y="422" on="0"/>
        <pt x="724" y="280" on="0"/>
        <pt x="724" y="146" on="1"/>
        <pt x="724" y="2" on="0"/>
        <pt x="530" y="-148" on="0"/>
      </contour>
    </TTGlyph>
    <TTGlyph name="five.numr" xMin="83" yMin="604" xMax="724" yMax="1616">
      <contour>
        <pt x="343" y="604" on="1"/>
        <pt x="205" y="604" on="0"/>
        <pt x="83" y="644" on="1"/>
        <pt x="83" y="719" on="1"/>
        <pt x="211" y="676" on="0"/>
        <pt x="344" y="676" on="1"/>
        <pt x="644" y="676" on="0"/>
        <pt x="644" y="895" on="1"/>
        <pt x="644" y="999" on="0"/>
        <pt x="477" y="1105" on="0"/>
        <pt x="268" y="1116" on="1"/>
        <pt x="127" y="1124" on="1"/>
        <pt x="163" y="1616" on="1"/>
        <pt x="682" y="1616" on="1"/>
        <pt x="682" y="1545" on="1"/>
        <pt x="235" y="1545" on="1"/>
        <pt x="209" y="1191" on="1"/>
        <pt x="290" y="1187" on="1"/>
        <pt x="525" y="1174" on="0"/>
        <pt x="724" y="1032" on="0"/>
        <pt x="724" y="898" on="1"/>
        <pt x="724" y="754" on="0"/>
        <pt x="530" y="604" on="0"/>
      </contour>
    </TTGlyph>
    <TTGlyph name="five.osf" xMin="70" yMin="-418" xMax="968" yMax="1081">
      <contour>
        <pt x="437" y="-418" on="1"/>
        <pt x="344" y="-418" on="0"/>
        <pt x="153" y="-386" on="0"/>
        <pt x="70" y="-357" on="1"/>
        <pt x="70" y="-273" on="1"/>
        <pt x="253" y="-336" on="0"/>
        <pt x="438" y="-336" on="1"/>
        <pt x="877" y="-336" on="0"/>
        <pt x="877" y="11" on="1"/>
        <pt x="877" y="119" on="0"/>
        <pt x="773" y="263" on="0"/>
        <pt x="533" y="342" on="0"/>
        <pt x="330" y="354" on="1"/>
        <pt x="134" y="366" on="1"/>
        <pt x="185" y="1081" on="1"/>
        <pt x="907" y="1081" on="1"/>
        <pt x="907" y="1001" on="1"/>
        <pt x="268" y="1001" on="1"/>
        <pt x="229" y="443" on="1"/>
        <pt x="356" y="436" on="1"/>
        <pt x="686" y="416" on="0"/>
        <pt x="968" y="209" on="0"/>
        <pt x="968" y="12" on="1"/>
        <pt x="968" y="-198" on="0"/>
        <pt x="698" y="-418" on="0"/>
      </contour>
    </TTGlyph>
    <TTGlyph name="five.tf" xMin="124" yMin="-18" xMax="1060" yMax="1480">
      <contour>
        <pt x="506" y="-18" on="1"/>
        <pt x="408" y="-18" on="0"/>
        <pt x="209" y="14" on="0"/>
        <pt x="124" y="43" on="1"/>
        <pt x="124" y="127" on="1"/>
        <pt x="315" y="64" on="0"/>
        <pt x="507" y="64" on="1"/>
        <pt x="969" y="64" on="0"/>
        <pt x="969" y="411" on="1"/>
        <pt x="969" y="519" on="0"/>
        <pt x="858" y="662" on="0"/>
        <pt x="607" y="742" on="0"/>
        <pt x="395" y="753" on="1"/>
        <pt x="190" y="765" on="1"/>
        <pt x="244" y="1480" on="1"/>
        <pt x="996" y="1480" on="1"/>
        <pt x="996" y="1400" on="1"/>
        <pt x="325" y="1400" on="1"/>
        <pt x="284" y="842" on="1"/>
        <pt x="421" y="835" on="1"/>
        <pt x="765" y="815" on="0"/>
        <pt x="1060" y="609" on="0"/>
        <pt x="1060" y="411" on="1"/>
        <pt x="1060" y="202" on="0"/>
        <pt x="779" y="-18" on="0"/>
      </contour>
    </TTGlyph>
    <TTGlyph name="five.tosf" xMin="118" yMin="-418" xMax="1055" yMax="1081">
      <contour>
        <pt x="500" y="-418" on="1"/>
        <pt x="402" y="-418" on="0"/>
        <pt x="203" y="-386" on="0"/>
        <pt x="118" y="-357" on="1"/>
        <pt x="118" y="-273" on="1"/>
        <pt x="310" y="-336" on="0"/>
        <pt x="501" y="-336" on="1"/>
        <pt x="964" y="-336" on="0"/>
        <pt x="964" y="11" on="1"/>
        <pt x="964" y="119" on="0"/>
        <pt x="853" y="263" on="0"/>
        <pt x="601" y="342" on="0"/>
        <pt x="390" y="354" on="1"/>
        <pt x="183" y="366" on="1"/>
        <pt x="238" y="1081" on="1"/>
        <pt x="992" y="1081" on="1"/>
        <pt x="992" y="1001" on="1"/>
        <pt x="320" y="1001" on="1"/>
        <pt x="278" y="443" on="1"/>
        <pt x="415" y="436" on="1"/>
        <pt x="760" y="416" on="0"/>
        <pt x="1055" y="209" on="0"/>
        <pt x="1055" y="12" on="1"/>
        <pt x="1055" y="-198" on="0"/>
        <pt x="774" y="-418" on="0"/>
      </contour>
    </TTGlyph>
    <TTGlyph name="fiveeighths" xMin="83" yMin="-148" xMax="1785" yMax="1616">
      <component glyphName="five.numr" x="0" y="0" flags="0x4"/>
      <component glyphName="fraction" x="793" y="0" flags="0x4"/>
      <component glyphName="eight.dnom" x="1049" y="0" flags="0x4"/>
    </TTGlyph>
    <TTGlyph name="fl" xMin="20" yMin="0" xMax="1001" yMax="1636">
      <component glyphName="f.short" x="0" y="0" flags="0x4"/>
      <component glyphName="l" x="732" y="0" flags="0x4"/>
    </TTGlyph>
    <TTGlyph name="florin" xMin="-194" yMin="-460" xMax="777" yMax="1636">
      <contour>
        <pt x="-39" y="-460" on="1"/>
        <pt x="-75" y="-460" on="0"/>
        <pt x="-153" y="-454" on="0"/>
        <pt x="-194" y="-447" on="1"/>
        <pt x="-194" y="-363" on="1"/>
        <pt x="-146" y="-370" on="0"/>
        <pt x="-77" y="-377" on="0"/>
        <pt x="-40" y="-377" on="1"/>
        <pt x="103" y="-377" on="0"/>
        <pt x="246" y="-253" on="0"/>
        <pt x="246" y="-109" on="1"/>
        <pt x="246" y="998" on="1"/>
        <pt x="20" y="998" on="1"/>
        <pt x="20" y="1081" on="1"/>
        <pt x="246" y="1081" on="1"/>
        <pt x="246" y="1278" on="1"/>
        <pt x="246" y="1636" on="0"/>
        <pt x="622" y="1636" on="1"/>
        <pt x="658" y="1636" on="0"/>
        <pt x="736" y="1630" on="0"/>
        <pt x="777" y="1623" on="1"/>
        <pt x="777" y="1539" on="1"/>
        <pt x="729" y="1546" on="0"/>
        <pt x="660" y="1553" on="0"/>
        <pt x="623" y="1553" on="1"/>
        <pt x="480" y="1553" on="0"/>
        <pt x="337" y="1429" on="0"/>
        <pt x="337" y="1285" on="1"/>
        <pt x="337" y="1081" on="1"/>
        <pt x="735" y="1081" on="1"/>
        <pt x="735" y="998" on="1"/>
        <pt x="337" y="998" on="1"/>
        <pt x="337" y="-102" on="1"/>
        <pt x="337" y="-460" on="0"/>
      </contour>
    </TTGlyph>
    <TTGlyph name="florin.tf" xMin="43" yMin="-460" xMax="1014" yMax="1636">
      <contour>
        <pt x="198" y="-460" on="1"/>
        <pt x="162" y="-460" on="0"/>
        <pt x="84" y="-454" on="0"/>
        <pt x="43" y="-447" on="1"/>
        <pt x="43" y="-363" on="1"/>
        <pt x="91" y="-370" on="0"/>
        <pt x="160" y="-377" on="0"/>
        <pt x="197" y="-377" on="1"/>
        <pt x="340" y="-377" on="0"/>
        <pt x="483" y="-253" on="0"/>
        <pt x="483" y="-109" on="1"/>
        <pt x="483" y="998" on="1"/>
        <pt x="257" y="998" on="1"/>
        <pt x="257" y="1081" on="1"/>
        <pt x="483" y="1081" on="1"/>
        <pt x="483" y="1278" on="1"/>
        <pt x="483" y="1636" on="0"/>
        <pt x="859" y="1636" on="1"/>
        <pt x="895" y="1636" on="0"/>
        <pt x="974" y="1630" on="0"/>
        <pt x="1014" y="1623" on="1"/>
        <pt x="1014" y="1539" on="1"/>
        <pt x="966" y="1546" on="0"/>
        <pt x="897" y="1553" on="0"/>
        <pt x="860" y="1553" on="1"/>
        <pt x="717" y="1553" on="0"/>
        <pt x="574" y="1429" on="0"/>
        <pt x="574" y="1285" on="1"/>
        <pt x="574" y="1081" on="1"/>
        <pt x="972" y="1081" on="1"/>
        <pt x="972" y="998" on="1"/>
        <pt x="574" y="998" on="1"/>
        <pt x="574" y="-102" on="1"/>
        <pt x="574" y="-460" on="0"/>
      </contour>
    </TTGlyph>
    <TTGlyph name="four" xMin="55" yMin="0" xMax="1161" yMax="1480">
      <contour>
        <pt x="55" y="377" on="1"/>
        <pt x="55" y="429" on="1"/>
        <pt x="695" y="1480" on="1"/>
        <pt x="794" y="1480" on="1"/>
        <pt x="170" y="458" on="1"/>
        <pt x="845" y="458" on="1"/>
        <pt x="861" y="980" on="1"/>
        <pt x="934" y="980" on="1"/>
        <pt x="934" y="458" on="1"/>
        <pt x="1161" y="458" on="1"/>
        <pt x="1161" y="377" on="1"/>
        <pt x="934" y="377" on="1"/>
        <pt x="934" y="0" on="1"/>
        <pt x="845" y="0" on="1"/>
        <pt x="845" y="377" on="1"/>
      </contour>
    </TTGlyph>
    <TTGlyph name="four.dnom" xMin="32" yMin="-136" xMax="768" yMax="864">
      <contour>
        <pt x="32" y="111" on="1"/>
        <pt x="32" y="159" on="1"/>
        <pt x="434" y="864" on="1"/>
        <pt x="517" y="864" on="1"/>
        <pt x="129" y="183" on="1"/>
        <pt x="540" y="183" on="1"/>
        <pt x="555" y="526" on="1"/>
        <pt x="617" y="526" on="1"/>
        <pt x="617" y="183" on="1"/>
        <pt x="768" y="183" on="1"/>
        <pt x="768" y="111" on="1"/>
        <pt x="617" y="111" on="1"/>
        <pt x="617" y="-136" on="1"/>
        <pt x="540" y="-136" on="1"/>
        <pt x="540" y="111" on="1"/>
      </contour>
    </TTGlyph>
    <TTGlyph name="four.numr" xMin="32" yMin="616" xMax="768" yMax="1616">
      <contour>
        <pt x="540" y="616" on="1"/>
        <pt x="540" y="863" on="1"/>
        <pt x="32" y="863" on="1"/>
        <pt x="32" y="911" on="1"/>
        <pt x="434" y="1616" on="1"/>
        <pt x="517" y="1616" on="1"/>
        <pt x="129" y="935" on="1"/>
        <pt x="540" y="935" on="1"/>
        <pt x="555" y="1278" on="1"/>
        <pt x="617" y="1278" on="1"/>
        <pt x="617" y="935" on="1"/>
        <pt x="768" y="935" on="1"/>
        <pt x="768" y="863" on="1"/>
        <pt x="617" y="863" on="1"/>
        <pt x="617" y="616" on="1"/>
      </contour>
    </TTGlyph>
    <TTGlyph name="four.osf" xMin="40" yMin="-400" xMax="1126" yMax="1081">
      <contour>
        <pt x="40" y="0" on="1"/>
        <pt x="40" y="52" on="1"/>
        <pt x="678" y="1081" on="1"/>
        <pt x="776" y="1081" on="1"/>
        <pt x="156" y="81" on="1"/>
        <pt x="830" y="81" on="1"/>
        <pt x="841" y="603" on="1"/>
        <pt x="918" y="603" on="1"/>
        <pt x="918" y="81" on="1"/>
        <pt x="1126" y="81" on="1"/>
        <pt x="1126" y="0" on="1"/>
        <pt x="918" y="0" on="1"/>
        <pt x="918" y="-400" on="1"/>
        <pt x="830" y="-400" on="1"/>
        <pt x="830" y="0" on="1"/>
      </contour>
    </TTGlyph>
    <TTGlyph name="four.tf" xMin="48" yMin="0" xMax="1124" yMax="1480">
      <contour>
        <pt x="48" y="377" on="1"/>
        <pt x="48" y="429" on="1"/>
        <pt x="659" y="1480" on="1"/>
        <pt x="756" y="1480" on="1"/>
        <pt x="162" y="458" on="1"/>
        <pt x="809" y="458" on="1"/>
        <pt x="824" y="980" on="1"/>
        <pt x="897" y="980" on="1"/>
        <pt x="897" y="458" on="1"/>
        <pt x="1124" y="458" on="1"/>
        <pt x="1124" y="377" on="1"/>
        <pt x="897" y="377" on="1"/>
        <pt x="897" y="0" on="1"/>
        <pt x="809" y="0" on="1"/>
        <pt x="809" y="377" on="1"/>
      </contour>
    </TTGlyph>
    <TTGlyph name="four.tosf" xMin="53" yMin="-400" xMax="1109" yMax="1081">
      <contour>
        <pt x="53" y="0" on="1"/>
        <pt x="53" y="52" on="1"/>
        <pt x="676" y="1081" on="1"/>
        <pt x="774" y="1081" on="1"/>
        <pt x="169" y="81" on="1"/>
        <pt x="812" y="81" on="1"/>
        <pt x="824" y="603" on="1"/>
        <pt x="901" y="603" on="1"/>
        <pt x="901" y="81" on="1"/>
        <pt x="1109" y="81" on="1"/>
        <pt x="1109" y="0" on="1"/>
        <pt x="901" y="0" on="1"/>
        <pt x="901" y="-400" on="1"/>
        <pt x="812" y="-400" on="1"/>
        <pt x="812" y="0" on="1"/>
      </contour>
    </TTGlyph>
    <TTGlyph name="fraction" xMin="-326" yMin="-136" xMax="582" yMax="1616">
      <contour>
        <pt x="-326" y="-136" on="1"/>
        <pt x="498" y="1616" on="1"/>
        <pt x="582" y="1616" on="1"/>
        <pt x="-241" y="-136" on="1"/>
      </contour>
    </TTGlyph>
    <TTGlyph name="franc" xMin="79" yMin="0" xMax="1229" yMax="1480">
      <contour>
        <pt x="323" y="0" on="1"/>
        <pt x="323" y="349" on="1"/>
        <pt x="79" y="349" on="1"/>
        <pt x="79" y="429" on="1"/>
        <pt x="323" y="429" on="1"/>
        <pt x="323" y="1480" on="1"/>
        <pt x="1229" y="1480" on="1"/>
        <pt x="1229" y="1397" on="1"/>
        <pt x="414" y="1397" on="1"/>
        <pt x="414" y="842" on="1"/>
        <pt x="1131" y="842" on="1"/>
        <pt x="1131" y="758" on="1"/>
        <pt x="414" y="758" on="1"/>
        <pt x="414" y="429" on="1"/>
        <pt x="783" y="429" on="1"/>
        <pt x="783" y="349" on="1"/>
        <pt x="414" y="349" on="1"/>
        <pt x="414" y="0" on="1"/>
      </contour>
    </TTGlyph>
    <TTGlyph name="franc.tf" xMin="79" yMin="0" xMax="1109" yMax="1480">
      <contour>
        <pt x="323" y="0" on="1"/>
        <pt x="323" y="349" on="1"/>
        <pt x="79" y="349" on="1"/>
        <pt x="79" y="429" on="1"/>
        <pt x="323" y="429" on="1"/>
        <pt x="323" y="1480" on="1"/>
        <pt x="1109" y="1480" on="1"/>
        <pt x="1109" y="1397" on="1"/>
        <pt x="414" y="1397" on="1"/>
        <pt x="414" y="842" on="1"/>
        <pt x="1011" y="842" on="1"/>
        <pt x="1011" y="758" on="1"/>
        <pt x="414" y="758" on="1"/>
        <pt x="414" y="429" on="1"/>
        <pt x="680" y="429" on="1"/>
        <pt x="680" y="349" on="1"/>
        <pt x="414" y="349" on="1"/>
        <pt x="414" y="0" on="1"/>
      </contour>
    </TTGlyph>
    <TTGlyph name="g" xMin="114" yMin="-460" xMax="986" yMax="1097">
      <contour>
        <pt x="508" y="-460" on="1"/>
        <pt x="434" y="-460" on="0"/>
        <pt x="256" y="-433" on="0"/>
        <pt x="183" y="-406" on="1"/>
        <pt x="183" y="-322" on="1"/>
        <pt x="272" y="-351" on="0"/>
        <pt x="431" y="-378" on="0"/>
        <pt x="507" y="-378" on="1"/>
        <pt x="705" y="-378" on="0"/>
        <pt x="895" y="-206" on="0"/>
        <pt x="895" y="9" on="1"/>
        <pt x="895" y="119" on="1"/>
        <pt x="888" y="119" on="1"/>
        <pt x="831" y="59" on="0"/>
        <pt x="661" y="-17" on="0"/>
        <pt x="553" y="-17" on="1"/>
        <pt x="431" y="-17" on="0"/>
        <pt x="232" y="88" on="0"/>
        <pt x="114" y="323" on="0"/>
        <pt x="114" y="519" on="1"/>
        <pt x="114" y="812" on="0"/>
        <pt x="393" y="1097" on="0"/>
        <pt x="661" y="1097" on="1"/>
        <pt x="830" y="1097" on="0"/>
        <pt x="986" y="1051" on="1"/>
        <pt x="986" y="19" on="1"/>
        <pt x="986" y="-239" on="0"/>
        <pt x="745" y="-460" on="0"/>
      </contour>
      <contour>
        <pt x="567" y="67" on="1"/>
        <pt x="657" y="67" on="0"/>
        <pt x="833" y="141" on="0"/>
        <pt x="895" y="222" on="1"/>
        <pt x="895" y="986" on="1"/>
        <pt x="849" y="999" on="0"/>
        <pt x="724" y="1015" on="0"/>
        <pt x="653" y="1015" on="1"/>
        <pt x="435" y="1015" on="0"/>
        <pt x="209" y="783" on="0"/>
        <pt x="209" y="528" on="1"/>
        <pt x="209" y="352" on="0"/>
        <pt x="303" y="151" on="0"/>
        <pt x="465" y="67" on="0"/>
      </contour>
    </TTGlyph>
    <TTGlyph name="g.sc" xMin="108" yMin="-9" xMax="1062" yMax="1204">
      <contour>
        <pt x="764" y="-9" on="1"/>
        <pt x="442" y="-9" on="0"/>
        <pt x="110" y="284" on="0"/>
        <pt x="109" y="594" on="1"/>
        <pt x="108" y="809" on="0"/>
        <pt x="266" y="1078" on="0"/>
        <pt x="546" y="1204" on="0"/>
        <pt x="727" y="1204" on="1"/>
        <pt x="808" y="1204" on="0"/>
        <pt x="963" y="1184" on="0"/>
        <pt x="1031" y="1166" on="1"/>
        <pt x="1031" y="1081" on="1"/>
        <pt x="946" y="1104" on="0"/>
        <pt x="802" y="1123" on="0"/>
        <pt x="730" y="1123" on="1"/>
        <pt x="574" y="1123" on="0"/>
        <pt x="337" y="1019" on="0"/>
        <pt x="204" y="787" on="0"/>
        <pt x="205" y="595" on="1"/>
        <pt x="206" y="323" on="0"/>
        <pt x="486" y="71" on="0"/>
        <pt x="762" y="71" on="1"/>
        <pt x="815" y="71" on="0"/>
        <pt x="924" y="78" on="0"/>
        <pt x="973" y="86" on="1"/>
        <pt x="973" y="578" on="1"/>
        <pt x="1062" y="578" on="1"/>
        <pt x="1062" y="15" on="1"/>
        <pt x="985" y="3" on="0"/>
        <pt x="834" y="-9" on="0"/>
      </contour>
    </TTGlyph>
    <TTGlyph name="gbreve" xMin="114" yMin="-460" xMax="986" yMax="1588">
      <component glyphName="g" x="0" y="0" flags="0x204"/>
      <component glyphName="uni0306" x="47" y="0" flags="0x4"/>
    </TTGlyph>
    <TTGlyph name="gbreve.sc" xMin="108" yMin="-9" xMax="1062" yMax="1573">
      <component glyphName="g.sc" x="0" y="0" flags="0x204"/>
      <component glyphName="uni0306.sc" x="107" y="-290" flags="0x4"/>
    </TTGlyph>
    <TTGlyph name="gcaron" xMin="114" yMin="-460" xMax="986" yMax="1616">
      <component glyphName="g" x="0" y="0" flags="0x204"/>
      <component glyphName="uni030C" x="47" y="0" flags="0x4"/>
    </TTGlyph>
    <TTGlyph name="gcaron.sc" xMin="108" yMin="-9" xMax="1062" yMax="1599">
      <component glyphName="g.sc" x="0" y="0" flags="0x204"/>
      <component glyphName="uni030C.sc" x="107" y="-290" flags="0x4"/>
    </TTGlyph>
    <TTGlyph name="gcircumflex" xMin="114" yMin="-460" xMax="986" yMax="1616">
      <component glyphName="g" x="0" y="0" flags="0x204"/>
      <component glyphName="uni0302" x="47" y="0" flags="0x4"/>
    </TTGlyph>
    <TTGlyph name="gcircumflex.sc" xMin="108" yMin="-9" xMax="1062" yMax="1599">
      <component glyphName="g.sc" x="0" y="0" flags="0x204"/>
      <component glyphName="uni0302.sc" x="107" y="-290" flags="0x4"/>
    </TTGlyph>
    <TTGlyph name="gdotaccent" xMin="114" yMin="-460" xMax="986" yMax="1495">
      <component glyphName="g" x="0" y="0" flags="0x204"/>
      <component glyphName="uni0307" x="47" y="0" flags="0x4"/>
    </TTGlyph>
    <TTGlyph name="gdotaccent.sc" xMin="108" yMin="-9" xMax="1062" yMax="1533">
      <component glyphName="g.sc" x="0" y="0" flags="0x204"/>
      <component glyphName="uni0307.sc" x="107" y="-290" flags="0x4"/>
    </TTGlyph>
</ttFont>
